<ttFont>
    <TTGlyph name="A" xMin="15" yMin="-1" xMax="661" yMax="700">
      <contour>
        <pt x="15" y="-1" on="1"/>
        <pt x="16" y="13" on="1"/>
        <pt x="68" y="20" on="1"/>
        <pt x="75" y="21" on="0"/>
        <pt x="80" y="33" on="1"/>
        <pt x="296" y="700" on="1"/>
        <pt x="362" y="700" on="1"/>
        <pt x="592" y="19" on="1"/>
        <pt x="661" y="15" on="1"/>
        <pt x="661" y="14" on="0"/>
        <pt x="660" y="0" on="1"/>
        <pt x="460" y="-1" on="1"/>
        <pt x="460" y="8" on="0"/>
        <pt x="461" y="13" on="1"/>
        <pt x="513" y="20" on="1"/>
        <pt x="521" y="21" on="0"/>
        <pt x="521" y="32" on="1"/>
        <pt x="466" y="195" on="1"/>
        <pt x="154" y="195" on="1"/>
        <pt x="101" y="21" on="1"/>
        <pt x="217" y="15" on="1"/>
        <pt x="217" y="14" on="0"/>
        <pt x="216" y="0" on="1"/>
      </contour>
      <contour>
        <pt x="303" y="681" on="1"/>
        <pt x="160" y="215" on="1"/>
        <pt x="459" y="215" on="1"/>
      </contour>
    </TTGlyph>
    <TTGlyph name="AE" xMin="13" yMin="-1" xMax="656" yMax="700">
      <contour>
        <pt x="13" y="-1" on="1"/>
        <pt x="14" y="13" on="1"/>
        <pt x="66" y="20" on="1"/>
        <pt x="73" y="21" on="0"/>
        <pt x="78" y="33" on="1"/>
        <pt x="318" y="697" on="1"/>
        <pt x="318" y="700" on="1"/>
        <pt x="614" y="700" on="1"/>
        <pt x="627" y="556" on="1"/>
        <pt x="607" y="548" on="1"/>
        <pt x="591" y="680" on="1"/>
        <pt x="386" y="680" on="1"/>
        <pt x="386" y="357" on="1"/>
        <pt x="558" y="357" on="1"/>
        <pt x="563" y="356" on="0"/>
        <pt x="571" y="363" on="0"/>
        <pt x="571" y="369" on="1"/>
        <pt x="575" y="438" on="1"/>
        <pt x="591" y="440" on="1"/>
        <pt x="591" y="269" on="1"/>
        <pt x="590" y="269" on="0"/>
        <pt x="576" y="268" on="1"/>
        <pt x="572" y="337" on="1"/>
        <pt x="386" y="337" on="1"/>
        <pt x="386" y="21" on="1"/>
        <pt x="618" y="21" on="1"/>
        <pt x="637" y="180" on="1"/>
        <pt x="656" y="175" on="1"/>
        <pt x="641" y="0" on="1"/>
        <pt x="318" y="0" on="1"/>
        <pt x="318" y="195" on="1"/>
        <pt x="158" y="195" on="1"/>
        <pt x="98" y="21" on="1"/>
        <pt x="215" y="15" on="1"/>
        <pt x="215" y="14" on="0"/>
        <pt x="214" y="0" on="1"/>
      </contour>
      <contour>
        <pt x="318" y="215" on="1"/>
        <pt x="318" y="658" on="1"/>
        <pt x="165" y="215" on="1"/>
      </contour>
    </TTGlyph>
    <TTGlyph name="Aacute" xMin="15" yMin="-1" xMax="661" yMax="901">
      <contour>
        <pt x="15" y="-1" on="1"/>
        <pt x="16" y="13" on="1"/>
        <pt x="68" y="20" on="1"/>
        <pt x="75" y="21" on="0"/>
        <pt x="80" y="33" on="1"/>
        <pt x="296" y="700" on="1"/>
        <pt x="362" y="700" on="1"/>
        <pt x="592" y="19" on="1"/>
        <pt x="661" y="15" on="1"/>
        <pt x="661" y="14" on="0"/>
        <pt x="660" y="0" on="1"/>
        <pt x="460" y="-1" on="1"/>
        <pt x="460" y="8" on="0"/>
        <pt x="461" y="13" on="1"/>
        <pt x="513" y="20" on="1"/>
        <pt x="521" y="21" on="0"/>
        <pt x="521" y="32" on="1"/>
        <pt x="466" y="195" on="1"/>
        <pt x="154" y="195" on="1"/>
        <pt x="101" y="21" on="1"/>
        <pt x="217" y="15" on="1"/>
        <pt x="217" y="14" on="0"/>
        <pt x="216" y="0" on="1"/>
      </contour>
      <contour>
        <pt x="303" y="681" on="1"/>
        <pt x="160" y="215" on="1"/>
        <pt x="459" y="215" on="1"/>
      </contour>
      <contour>
        <pt x="419" y="901" on="1"/>
        <pt x="449" y="894" on="1"/>
        <pt x="330" y="746" on="1"/>
        <pt x="315" y="754" on="1"/>
      </contour>
    </TTGlyph>
    <TTGlyph name="Acircumflex" xMin="15" yMin="-1" xMax="661" yMax="940">
      <contour>
        <pt x="15" y="-1" on="1"/>
        <pt x="16" y="13" on="1"/>
        <pt x="68" y="20" on="1"/>
        <pt x="75" y="21" on="0"/>
        <pt x="80" y="33" on="1"/>
        <pt x="296" y="700" on="1"/>
        <pt x="362" y="700" on="1"/>
        <pt x="592" y="19" on="1"/>
        <pt x="661" y="15" on="1"/>
        <pt x="661" y="14" on="0"/>
        <pt x="660" y="0" on="1"/>
        <pt x="460" y="-1" on="1"/>
        <pt x="460" y="8" on="0"/>
        <pt x="461" y="13" on="1"/>
        <pt x="513" y="20" on="1"/>
        <pt x="521" y="21" on="0"/>
        <pt x="521" y="32" on="1"/>
        <pt x="466" y="195" on="1"/>
        <pt x="154" y="195" on="1"/>
        <pt x="101" y="21" on="1"/>
        <pt x="217" y="15" on="1"/>
        <pt x="217" y="14" on="0"/>
        <pt x="216" y="0" on="1"/>
      </contour>
      <contour>
        <pt x="303" y="681" on="1"/>
        <pt x="160" y="215" on="1"/>
        <pt x="459" y="215" on="1"/>
      </contour>
      <contour>
        <pt x="152" y="764" on="1"/>
        <pt x="334" y="940" on="1"/>
        <pt x="492" y="786" on="0"/>
        <pt x="500" y="779" on="1"/>
        <pt x="467" y="750" on="1"/>
        <pt x="317" y="898" on="1"/>
        <pt x="170" y="750" on="1"/>
      </contour>
    </TTGlyph>
    <TTGlyph name="Adieresis" xMin="15" yMin="-1" xMax="661" yMax="830">
      <contour>
        <pt x="15" y="-1" on="1"/>
        <pt x="16" y="13" on="1"/>
        <pt x="68" y="20" on="1"/>
        <pt x="75" y="21" on="0"/>
        <pt x="80" y="33" on="1"/>
        <pt x="296" y="700" on="1"/>
        <pt x="362" y="700" on="1"/>
        <pt x="592" y="19" on="1"/>
        <pt x="661" y="15" on="1"/>
        <pt x="661" y="14" on="0"/>
        <pt x="660" y="0" on="1"/>
        <pt x="460" y="-1" on="1"/>
        <pt x="460" y="8" on="0"/>
        <pt x="461" y="13" on="1"/>
        <pt x="513" y="20" on="1"/>
        <pt x="521" y="21" on="0"/>
        <pt x="521" y="32" on="1"/>
        <pt x="466" y="195" on="1"/>
        <pt x="154" y="195" on="1"/>
        <pt x="101" y="21" on="1"/>
        <pt x="217" y="15" on="1"/>
        <pt x="217" y="14" on="0"/>
        <pt x="216" y="0" on="1"/>
      </contour>
      <contour>
        <pt x="303" y="681" on="1"/>
        <pt x="160" y="215" on="1"/>
        <pt x="459" y="215" on="1"/>
      </contour>
      <contour>
        <pt x="201" y="750" on="0"/>
        <pt x="180" y="773" on="0"/>
        <pt x="180" y="809" on="0"/>
        <pt x="201" y="830" on="0"/>
        <pt x="236" y="830" on="0"/>
        <pt x="257" y="809" on="0"/>
        <pt x="257" y="771" on="0"/>
        <pt x="235" y="750" on="0"/>
      </contour>
      <contour>
        <pt x="416" y="750" on="0"/>
        <pt x="396" y="773" on="0"/>
        <pt x="396" y="809" on="0"/>
        <pt x="416" y="830" on="0"/>
        <pt x="433" y="830" on="1"/>
        <pt x="473" y="830" on="0"/>
        <pt x="473" y="790" on="1"/>
        <pt x="473" y="771" on="0"/>
        <pt x="451" y="750" on="0"/>
      </contour>
    </TTGlyph>
    <TTGlyph name="Agrave" xMin="15" yMin="-1" xMax="661" yMax="901">
      <contour>
        <pt x="15" y="-1" on="1"/>
        <pt x="16" y="13" on="1"/>
        <pt x="68" y="20" on="1"/>
        <pt x="75" y="21" on="0"/>
        <pt x="80" y="33" on="1"/>
        <pt x="296" y="700" on="1"/>
        <pt x="362" y="700" on="1"/>
        <pt x="592" y="19" on="1"/>
        <pt x="661" y="15" on="1"/>
        <pt x="661" y="14" on="0"/>
        <pt x="660" y="0" on="1"/>
        <pt x="460" y="-1" on="1"/>
        <pt x="460" y="8" on="0"/>
        <pt x="461" y="13" on="1"/>
        <pt x="513" y="20" on="1"/>
        <pt x="521" y="21" on="0"/>
        <pt x="521" y="32" on="1"/>
        <pt x="466" y="195" on="1"/>
        <pt x="154" y="195" on="1"/>
        <pt x="101" y="21" on="1"/>
        <pt x="217" y="15" on="1"/>
        <pt x="217" y="14" on="0"/>
        <pt x="216" y="0" on="1"/>
      </contour>
      <contour>
        <pt x="303" y="681" on="1"/>
        <pt x="160" y="215" on="1"/>
        <pt x="459" y="215" on="1"/>
      </contour>
      <contour>
        <pt x="340" y="754" on="1"/>
        <pt x="324" y="746" on="1"/>
        <pt x="206" y="894" on="1"/>
        <pt x="236" y="901" on="1"/>
      </contour>
    </TTGlyph>
    <TTGlyph name="Aring" xMin="15" yMin="-1" xMax="661" yMax="909">
      <contour>
        <pt x="15" y="-1" on="1"/>
        <pt x="16" y="13" on="1"/>
        <pt x="68" y="20" on="1"/>
        <pt x="75" y="21" on="0"/>
        <pt x="80" y="33" on="1"/>
        <pt x="296" y="700" on="1"/>
        <pt x="362" y="700" on="1"/>
        <pt x="592" y="19" on="1"/>
        <pt x="661" y="15" on="1"/>
        <pt x="661" y="14" on="0"/>
        <pt x="660" y="0" on="1"/>
        <pt x="460" y="-1" on="1"/>
        <pt x="460" y="8" on="0"/>
        <pt x="461" y="13" on="1"/>
        <pt x="513" y="20" on="1"/>
        <pt x="521" y="21" on="0"/>
        <pt x="521" y="32" on="1"/>
        <pt x="466" y="195" on="1"/>
        <pt x="154" y="195" on="1"/>
        <pt x="101" y="21" on="1"/>
        <pt x="217" y="15" on="1"/>
        <pt x="217" y="14" on="0"/>
        <pt x="216" y="0" on="1"/>
      </contour>
      <contour>
        <pt x="303" y="681" on="1"/>
        <pt x="160" y="215" on="1"/>
        <pt x="459" y="215" on="1"/>
      </contour>
      <contour>
        <pt x="290" y="750" on="0"/>
        <pt x="243" y="788" on="0"/>
        <pt x="243" y="862" on="0"/>
        <pt x="293" y="909" on="0"/>
        <pt x="327" y="909" on="1"/>
        <pt x="412" y="909" on="0"/>
        <pt x="412" y="829" on="1"/>
        <pt x="412" y="796" on="0"/>
        <pt x="363" y="750" on="0"/>
      </contour>
      <contour>
        <pt x="307" y="901" on="0"/>
        <pt x="278" y="858" on="0"/>
        <pt x="278" y="794" on="0"/>
        <pt x="305" y="758" on="0"/>
        <pt x="348" y="758" on="0"/>
        <pt x="377" y="800" on="0"/>
        <pt x="377" y="864" on="0"/>
        <pt x="349" y="901" on="0"/>
      </contour>
    </TTGlyph>
    <TTGlyph name="Atilde" xMin="15" yMin="-1" xMax="661" yMax="826">
      <contour>
        <pt x="15" y="-1" on="1"/>
        <pt x="16" y="13" on="1"/>
        <pt x="68" y="20" on="1"/>
        <pt x="75" y="21" on="0"/>
        <pt x="80" y="33" on="1"/>
        <pt x="296" y="700" on="1"/>
        <pt x="362" y="700" on="1"/>
        <pt x="592" y="19" on="1"/>
        <pt x="661" y="15" on="1"/>
        <pt x="661" y="14" on="0"/>
        <pt x="660" y="0" on="1"/>
        <pt x="460" y="-1" on="1"/>
        <pt x="460" y="8" on="0"/>
        <pt x="461" y="13" on="1"/>
        <pt x="513" y="20" on="1"/>
        <pt x="521" y="21" on="0"/>
        <pt x="521" y="32" on="1"/>
        <pt x="466" y="195" on="1"/>
        <pt x="154" y="195" on="1"/>
        <pt x="101" y="21" on="1"/>
        <pt x="217" y="15" on="1"/>
        <pt x="217" y="14" on="0"/>
        <pt x="216" y="0" on="1"/>
      </contour>
      <contour>
        <pt x="303" y="681" on="1"/>
        <pt x="160" y="215" on="1"/>
        <pt x="459" y="215" on="1"/>
      </contour>
      <contour>
        <pt x="234" y="820" on="1"/>
        <pt x="258" y="820" on="0"/>
        <pt x="417" y="786" on="0"/>
        <pt x="476" y="786" on="0"/>
        <pt x="496" y="804" on="0"/>
        <pt x="502" y="826" on="1"/>
        <pt x="518" y="822" on="1"/>
        <pt x="509" y="781" on="0"/>
        <pt x="472" y="748" on="0"/>
        <pt x="421" y="748" on="0"/>
        <pt x="337" y="768" on="1"/>
        <pt x="266" y="783" on="0"/>
        <pt x="229" y="783" on="1"/>
        <pt x="174" y="783" on="0"/>
        <pt x="165" y="748" on="1"/>
        <pt x="151" y="752" on="1"/>
        <pt x="163" y="820" on="0"/>
      </contour>
    </TTGlyph>
    <TTGlyph name="B" xMin="50" yMin="-1" xMax="522" yMax="700">
      <contour>
        <pt x="50" y="685" on="1"/>
        <pt x="51" y="700" on="1"/>
        <pt x="265" y="700" on="1"/>
        <pt x="481" y="700" on="0"/>
        <pt x="481" y="531" on="1"/>
        <pt x="481" y="466" on="0"/>
        <pt x="395" y="389" on="1"/>
        <pt x="522" y="358" on="0"/>
        <pt x="522" y="207" on="1"/>
        <pt x="522" y="89" on="0"/>
        <pt x="403" y="0" on="0"/>
        <pt x="280" y="0" on="1"/>
        <pt x="251" y="0" on="1"/>
        <pt x="50" y="-1" on="1"/>
        <pt x="51" y="13" on="1"/>
        <pt x="103" y="20" on="1"/>
        <pt x="113" y="21" on="0"/>
        <pt x="115" y="33" on="1"/>
        <pt x="115" y="665" on="1"/>
        <pt x="113" y="678" on="0"/>
        <pt x="103" y="679" on="1"/>
      </contour>
      <contour>
        <pt x="300" y="383" on="1"/>
        <pt x="183" y="383" on="1"/>
        <pt x="183" y="15" on="1"/>
        <pt x="275" y="15" on="1"/>
        <pt x="454" y="15" on="0"/>
        <pt x="454" y="203" on="1"/>
        <pt x="454" y="299" on="0"/>
        <pt x="377" y="383" on="0"/>
      </contour>
      <contour>
        <pt x="305" y="398" on="1"/>
        <pt x="342" y="398" on="0"/>
        <pt x="369" y="394" on="1"/>
        <pt x="413" y="463" on="0"/>
        <pt x="413" y="525" on="1"/>
        <pt x="413" y="685" on="0"/>
        <pt x="260" y="685" on="1"/>
        <pt x="183" y="685" on="1"/>
        <pt x="183" y="398" on="1"/>
      </contour>
    </TTGlyph>
    <TTGlyph name="C" xMin="40" yMin="-4" xMax="537" yMax="701">
      <contour>
        <pt x="353" y="686" on="1"/>
        <pt x="240" y="686" on="0"/>
        <pt x="108" y="498" on="0"/>
        <pt x="108" y="320" on="1"/>
        <pt x="108" y="104" on="0"/>
        <pt x="207" y="41" on="1"/>
        <pt x="237" y="22" on="0"/>
        <pt x="288" y="11" on="0"/>
        <pt x="319" y="11" on="1"/>
        <pt x="418" y="11" on="0"/>
        <pt x="526" y="35" on="1"/>
        <pt x="529" y="21" on="1"/>
        <pt x="512" y="15" on="0"/>
        <pt x="365" y="-4" on="0"/>
        <pt x="273" y="-4" on="0"/>
        <pt x="205" y="9" on="0"/>
        <pt x="129" y="51" on="0"/>
        <pt x="76" y="120" on="0"/>
        <pt x="40" y="240" on="0"/>
        <pt x="40" y="320" on="1"/>
        <pt x="40" y="497" on="0"/>
        <pt x="121" y="596" on="1"/>
        <pt x="206" y="700" on="0"/>
        <pt x="353" y="700" on="1"/>
        <pt x="398" y="700" on="0"/>
        <pt x="503" y="683" on="0"/>
        <pt x="525" y="675" on="1"/>
        <pt x="537" y="531" on="1"/>
        <pt x="518" y="524" on="1"/>
        <pt x="505" y="631" on="1"/>
        <pt x="424" y="686" on="0"/>
      </contour>
    </TTGlyph>
    <TTGlyph name="Ccedilla" xMin="40" yMin="-139" xMax="537" yMax="701">
      <contour>
        <pt x="353" y="686" on="1"/>
        <pt x="240" y="686" on="0"/>
        <pt x="108" y="498" on="0"/>
        <pt x="108" y="320" on="1"/>
        <pt x="108" y="104" on="0"/>
        <pt x="207" y="41" on="1"/>
        <pt x="237" y="22" on="0"/>
        <pt x="288" y="11" on="0"/>
        <pt x="319" y="11" on="1"/>
        <pt x="418" y="11" on="0"/>
        <pt x="526" y="35" on="1"/>
        <pt x="529" y="21" on="1"/>
        <pt x="512" y="15" on="0"/>
        <pt x="365" y="-4" on="0"/>
        <pt x="273" y="-4" on="0"/>
        <pt x="205" y="9" on="0"/>
        <pt x="129" y="51" on="0"/>
        <pt x="76" y="120" on="0"/>
        <pt x="40" y="240" on="0"/>
        <pt x="40" y="320" on="1"/>
        <pt x="40" y="497" on="0"/>
        <pt x="121" y="596" on="1"/>
        <pt x="206" y="700" on="0"/>
        <pt x="353" y="700" on="1"/>
        <pt x="398" y="700" on="0"/>
        <pt x="503" y="683" on="0"/>
        <pt x="525" y="675" on="1"/>
        <pt x="537" y="531" on="1"/>
        <pt x="518" y="524" on="1"/>
        <pt x="505" y="631" on="1"/>
        <pt x="424" y="686" on="0"/>
      </contour>
      <contour>
        <pt x="270" y="-118" on="1"/>
        <pt x="345" y="-92" on="0"/>
        <pt x="345" y="-46" on="1"/>
        <pt x="345" y="-21" on="0"/>
        <pt x="338" y="0" on="1"/>
        <pt x="373" y="6" on="1"/>
        <pt x="381" y="-15" on="0"/>
        <pt x="381" y="-32" on="1"/>
        <pt x="381" y="-70" on="0"/>
        <pt x="322" y="-129" on="0"/>
        <pt x="280" y="-139" on="1"/>
      </contour>
    </TTGlyph>
    <TTGlyph name="D" xMin="46" yMin="-1" xMax="589" yMax="700">
      <contour>
        <pt x="46" y="685" on="1"/>
        <pt x="47" y="700" on="1"/>
        <pt x="291" y="700" on="1"/>
        <pt x="426" y="700" on="0"/>
        <pt x="589" y="543" on="0"/>
        <pt x="589" y="366" on="1"/>
        <pt x="589" y="191" on="0"/>
        <pt x="532" y="104" on="1"/>
        <pt x="482" y="28" on="0"/>
        <pt x="376" y="8" on="1"/>
        <pt x="329" y="0" on="0"/>
        <pt x="266" y="0" on="1"/>
        <pt x="247" y="0" on="1"/>
        <pt x="46" y="-1" on="1"/>
        <pt x="47" y="13" on="1"/>
        <pt x="99" y="20" on="1"/>
        <pt x="109" y="21" on="0"/>
        <pt x="111" y="33" on="1"/>
        <pt x="111" y="665" on="1"/>
        <pt x="109" y="678" on="0"/>
        <pt x="99" y="679" on="1"/>
      </contour>
      <contour>
        <pt x="286" y="685" on="1"/>
        <pt x="179" y="685" on="1"/>
        <pt x="179" y="15" on="1"/>
        <pt x="261" y="15" on="1"/>
        <pt x="309" y="15" on="0"/>
        <pt x="376" y="26" on="0"/>
        <pt x="449" y="67" on="0"/>
        <pt x="470" y="103" on="1"/>
        <pt x="521" y="188" on="0"/>
        <pt x="521" y="361" on="1"/>
        <pt x="521" y="541" on="0"/>
        <pt x="450" y="616" on="1"/>
        <pt x="385" y="685" on="0"/>
      </contour>
    </TTGlyph>
    <TTGlyph name="E" xMin="46" yMin="-1" xMax="516" yMax="700">
      <contour>
        <pt x="46" y="685" on="1"/>
        <pt x="47" y="700" on="1"/>
        <pt x="475" y="700" on="1"/>
        <pt x="474" y="697" on="1"/>
        <pt x="487" y="556" on="1"/>
        <pt x="467" y="548" on="1"/>
        <pt x="451" y="680" on="1"/>
        <pt x="179" y="680" on="1"/>
        <pt x="179" y="357" on="1"/>
        <pt x="418" y="357" on="1"/>
        <pt x="423" y="356" on="0"/>
        <pt x="431" y="363" on="0"/>
        <pt x="431" y="369" on="1"/>
        <pt x="435" y="438" on="1"/>
        <pt x="451" y="440" on="1"/>
        <pt x="451" y="269" on="1"/>
        <pt x="450" y="269" on="0"/>
        <pt x="436" y="268" on="1"/>
        <pt x="432" y="337" on="1"/>
        <pt x="179" y="337" on="1"/>
        <pt x="179" y="20" on="1"/>
        <pt x="478" y="20" on="1"/>
        <pt x="497" y="180" on="1"/>
        <pt x="516" y="175" on="1"/>
        <pt x="501" y="0" on="1"/>
        <pt x="247" y="0" on="1"/>
        <pt x="46" y="-1" on="1"/>
        <pt x="47" y="13" on="1"/>
        <pt x="99" y="20" on="1"/>
        <pt x="109" y="21" on="0"/>
        <pt x="111" y="33" on="1"/>
        <pt x="111" y="666" on="1"/>
        <pt x="109" y="678" on="0"/>
        <pt x="99" y="679" on="1"/>
      </contour>
    </TTGlyph>
    <TTGlyph name="Eacute" xMin="16" yMin="-1" xMax="486" yMax="900">
      <contour>
        <pt x="16" y="685" on="1"/>
        <pt x="17" y="700" on="1"/>
        <pt x="445" y="700" on="1"/>
        <pt x="444" y="697" on="1"/>
        <pt x="457" y="556" on="1"/>
        <pt x="437" y="548" on="1"/>
        <pt x="421" y="680" on="1"/>
        <pt x="149" y="680" on="1"/>
        <pt x="149" y="357" on="1"/>
        <pt x="388" y="357" on="1"/>
        <pt x="393" y="356" on="0"/>
        <pt x="401" y="363" on="0"/>
        <pt x="401" y="369" on="1"/>
        <pt x="405" y="438" on="1"/>
        <pt x="421" y="440" on="1"/>
        <pt x="421" y="269" on="1"/>
        <pt x="420" y="269" on="0"/>
        <pt x="406" y="268" on="1"/>
        <pt x="402" y="337" on="1"/>
        <pt x="149" y="337" on="1"/>
        <pt x="149" y="20" on="1"/>
        <pt x="448" y="20" on="1"/>
        <pt x="467" y="180" on="1"/>
        <pt x="486" y="175" on="1"/>
        <pt x="471" y="0" on="1"/>
        <pt x="217" y="0" on="1"/>
        <pt x="16" y="-1" on="1"/>
        <pt x="17" y="13" on="1"/>
        <pt x="69" y="20" on="1"/>
        <pt x="79" y="21" on="0"/>
        <pt x="81" y="33" on="1"/>
        <pt x="81" y="666" on="1"/>
        <pt x="79" y="678" on="0"/>
        <pt x="69" y="679" on="1"/>
      </contour>
      <contour>
        <pt x="360" y="900" on="1"/>
        <pt x="390" y="893" on="1"/>
        <pt x="271" y="745" on="1"/>
        <pt x="256" y="753" on="1"/>
      </contour>
    </TTGlyph>
    <TTGlyph name="Ecircumflex" xMin="16" yMin="-1" xMax="486" yMax="939">
      <contour>
        <pt x="16" y="685" on="1"/>
        <pt x="17" y="700" on="1"/>
        <pt x="445" y="700" on="1"/>
        <pt x="444" y="697" on="1"/>
        <pt x="457" y="556" on="1"/>
        <pt x="437" y="548" on="1"/>
        <pt x="421" y="680" on="1"/>
        <pt x="149" y="680" on="1"/>
        <pt x="149" y="357" on="1"/>
        <pt x="388" y="357" on="1"/>
        <pt x="393" y="356" on="0"/>
        <pt x="401" y="363" on="0"/>
        <pt x="401" y="369" on="1"/>
        <pt x="405" y="438" on="1"/>
        <pt x="421" y="440" on="1"/>
        <pt x="421" y="269" on="1"/>
        <pt x="420" y="269" on="0"/>
        <pt x="406" y="268" on="1"/>
        <pt x="402" y="337" on="1"/>
        <pt x="149" y="337" on="1"/>
        <pt x="149" y="20" on="1"/>
        <pt x="448" y="20" on="1"/>
        <pt x="467" y="180" on="1"/>
        <pt x="486" y="175" on="1"/>
        <pt x="471" y="0" on="1"/>
        <pt x="217" y="0" on="1"/>
        <pt x="16" y="-1" on="1"/>
        <pt x="17" y="13" on="1"/>
        <pt x="69" y="20" on="1"/>
        <pt x="79" y="21" on="0"/>
        <pt x="81" y="33" on="1"/>
        <pt x="81" y="666" on="1"/>
        <pt x="79" y="678" on="0"/>
        <pt x="69" y="679" on="1"/>
      </contour>
      <contour>
        <pt x="83" y="763" on="1"/>
        <pt x="265" y="939" on="1"/>
        <pt x="423" y="785" on="0"/>
        <pt x="431" y="778" on="1"/>
        <pt x="398" y="749" on="1"/>
        <pt x="248" y="897" on="1"/>
        <pt x="101" y="749" on="1"/>
      </contour>
    </TTGlyph>
    <TTGlyph name="Edieresis" xMin="16" yMin="-1" xMax="486" yMax="830">
      <contour>
        <pt x="16" y="685" on="1"/>
        <pt x="17" y="700" on="1"/>
        <pt x="445" y="700" on="1"/>
        <pt x="444" y="697" on="1"/>
        <pt x="457" y="556" on="1"/>
        <pt x="437" y="548" on="1"/>
        <pt x="421" y="680" on="1"/>
        <pt x="149" y="680" on="1"/>
        <pt x="149" y="357" on="1"/>
        <pt x="388" y="357" on="1"/>
        <pt x="393" y="356" on="0"/>
        <pt x="401" y="363" on="0"/>
        <pt x="401" y="369" on="1"/>
        <pt x="405" y="438" on="1"/>
        <pt x="421" y="440" on="1"/>
        <pt x="421" y="269" on="1"/>
        <pt x="420" y="269" on="0"/>
        <pt x="406" y="268" on="1"/>
        <pt x="402" y="337" on="1"/>
        <pt x="149" y="337" on="1"/>
        <pt x="149" y="20" on="1"/>
        <pt x="448" y="20" on="1"/>
        <pt x="467" y="180" on="1"/>
        <pt x="486" y="175" on="1"/>
        <pt x="471" y="0" on="1"/>
        <pt x="217" y="0" on="1"/>
        <pt x="16" y="-1" on="1"/>
        <pt x="17" y="13" on="1"/>
        <pt x="69" y="20" on="1"/>
        <pt x="79" y="21" on="0"/>
        <pt x="81" y="33" on="1"/>
        <pt x="81" y="666" on="1"/>
        <pt x="79" y="678" on="0"/>
        <pt x="69" y="679" on="1"/>
      </contour>
      <contour>
        <pt x="144" y="750" on="0"/>
        <pt x="123" y="773" on="0"/>
        <pt x="123" y="809" on="0"/>
        <pt x="144" y="830" on="0"/>
        <pt x="179" y="830" on="0"/>
        <pt x="200" y="809" on="0"/>
        <pt x="200" y="771" on="0"/>
        <pt x="178" y="750" on="0"/>
      </contour>
      <contour>
        <pt x="359" y="750" on="0"/>
        <pt x="339" y="773" on="0"/>
        <pt x="339" y="809" on="0"/>
        <pt x="359" y="830" on="0"/>
        <pt x="376" y="830" on="1"/>
        <pt x="416" y="830" on="0"/>
        <pt x="416" y="790" on="1"/>
        <pt x="416" y="771" on="0"/>
        <pt x="394" y="750" on="0"/>
      </contour>
    </TTGlyph>
    <TTGlyph name="Egrave" xMin="16" yMin="-1" xMax="486" yMax="900">
      <contour>
        <pt x="16" y="685" on="1"/>
        <pt x="17" y="700" on="1"/>
        <pt x="445" y="700" on="1"/>
        <pt x="444" y="697" on="1"/>
        <pt x="457" y="556" on="1"/>
        <pt x="437" y="548" on="1"/>
        <pt x="421" y="680" on="1"/>
        <pt x="149" y="680" on="1"/>
        <pt x="149" y="357" on="1"/>
        <pt x="388" y="357" on="1"/>
        <pt x="393" y="356" on="0"/>
        <pt x="401" y="363" on="0"/>
        <pt x="401" y="369" on="1"/>
        <pt x="405" y="438" on="1"/>
        <pt x="421" y="440" on="1"/>
        <pt x="421" y="269" on="1"/>
        <pt x="420" y="269" on="0"/>
        <pt x="406" y="268" on="1"/>
        <pt x="402" y="337" on="1"/>
        <pt x="149" y="337" on="1"/>
        <pt x="149" y="20" on="1"/>
        <pt x="448" y="20" on="1"/>
        <pt x="467" y="180" on="1"/>
        <pt x="486" y="175" on="1"/>
        <pt x="471" y="0" on="1"/>
        <pt x="217" y="0" on="1"/>
        <pt x="16" y="-1" on="1"/>
        <pt x="17" y="13" on="1"/>
        <pt x="69" y="20" on="1"/>
        <pt x="79" y="21" on="0"/>
        <pt x="81" y="33" on="1"/>
        <pt x="81" y="666" on="1"/>
        <pt x="79" y="678" on="0"/>
        <pt x="69" y="679" on="1"/>
      </contour>
      <contour>
        <pt x="269" y="753" on="1"/>
        <pt x="253" y="745" on="1"/>
        <pt x="135" y="893" on="1"/>
        <pt x="165" y="900" on="1"/>
      </contour>
    </TTGlyph>
    <TTGlyph name="Eth" xMin="46" yMin="-1" xMax="589" yMax="700">
      <contour>
        <pt x="50" y="376" on="1"/>
        <pt x="327" y="376" on="1"/>
        <pt x="327" y="358" on="1"/>
        <pt x="50" y="358" on="1"/>
      </contour>
      <contour>
        <pt x="46" y="685" on="1"/>
        <pt x="47" y="700" on="1"/>
        <pt x="291" y="700" on="1"/>
        <pt x="426" y="700" on="0"/>
        <pt x="589" y="543" on="0"/>
        <pt x="589" y="366" on="1"/>
        <pt x="589" y="191" on="0"/>
        <pt x="532" y="104" on="1"/>
        <pt x="482" y="28" on="0"/>
        <pt x="376" y="8" on="1"/>
        <pt x="329" y="0" on="0"/>
        <pt x="266" y="0" on="1"/>
        <pt x="247" y="0" on="1"/>
        <pt x="46" y="-1" on="1"/>
        <pt x="47" y="13" on="1"/>
        <pt x="99" y="20" on="1"/>
        <pt x="109" y="21" on="0"/>
        <pt x="111" y="33" on="1"/>
        <pt x="111" y="665" on="1"/>
        <pt x="109" y="678" on="0"/>
        <pt x="99" y="679" on="1"/>
      </contour>
      <contour>
        <pt x="286" y="685" on="1"/>
        <pt x="179" y="685" on="1"/>
        <pt x="179" y="15" on="1"/>
        <pt x="261" y="15" on="1"/>
        <pt x="309" y="15" on="0"/>
        <pt x="376" y="26" on="0"/>
        <pt x="449" y="67" on="0"/>
        <pt x="470" y="103" on="1"/>
        <pt x="521" y="188" on="0"/>
        <pt x="521" y="361" on="1"/>
        <pt x="521" y="541" on="0"/>
        <pt x="450" y="616" on="1"/>
        <pt x="385" y="685" on="0"/>
      </contour>
    </TTGlyph>
    <TTGlyph name="Euro" xMin="53" yMin="-6" xMax="534" yMax="605">
      <contour>
        <pt x="53" y="246" on="1"/>
        <pt x="94" y="246" on="1"/>
        <pt x="91" y="272" on="0"/>
        <pt x="91" y="328" on="0"/>
        <pt x="94" y="355" on="1"/>
        <pt x="58" y="355" on="1"/>
        <pt x="58" y="373" on="1"/>
        <pt x="96" y="373" on="1"/>
        <pt x="113" y="482" on="0"/>
        <pt x="178" y="538" on="1"/>
        <pt x="255" y="605" on="0"/>
        <pt x="358" y="605" on="1"/>
        <pt x="413" y="605" on="0"/>
        <pt x="507" y="575" on="0"/>
        <pt x="528" y="551" on="1"/>
        <pt x="519" y="545" on="1"/>
        <pt x="477" y="590" on="0"/>
        <pt x="364" y="590" on="1"/>
        <pt x="284" y="590" on="0"/>
        <pt x="176" y="482" on="0"/>
        <pt x="162" y="373" on="1"/>
        <pt x="440" y="373" on="1"/>
        <pt x="440" y="355" on="1"/>
        <pt x="160" y="355" on="1"/>
        <pt x="158" y="319" on="0"/>
        <pt x="158" y="263" on="0"/>
        <pt x="160" y="246" on="1"/>
        <pt x="440" y="246" on="1"/>
        <pt x="440" y="228" on="1"/>
        <pt x="162" y="228" on="1"/>
        <pt x="176" y="117" on="0"/>
        <pt x="283" y="10" on="0"/>
        <pt x="364" y="10" on="1"/>
        <pt x="478" y="10" on="0"/>
        <pt x="527" y="59" on="1"/>
        <pt x="534" y="50" on="1"/>
        <pt x="509" y="23" on="0"/>
        <pt x="406" y="-5" on="0"/>
        <pt x="344" y="-5" on="0"/>
        <pt x="329" y="-4" on="1"/>
        <pt x="274" y="2" on="0"/>
        <pt x="182" y="48" on="0"/>
        <pt x="108" y="152" on="0"/>
        <pt x="96" y="228" on="1"/>
        <pt x="53" y="228" on="1"/>
      </contour>
    </TTGlyph>
    <TTGlyph name="F" xMin="46" yMin="-1" xMax="487" yMax="700">
      <contour>
        <pt x="46" y="685" on="1"/>
        <pt x="47" y="700" on="1"/>
        <pt x="475" y="700" on="1"/>
        <pt x="474" y="697" on="1"/>
        <pt x="487" y="556" on="1"/>
        <pt x="467" y="548" on="1"/>
        <pt x="451" y="680" on="1"/>
        <pt x="179" y="680" on="1"/>
        <pt x="179" y="357" on="1"/>
        <pt x="418" y="357" on="1"/>
        <pt x="423" y="356" on="0"/>
        <pt x="431" y="363" on="0"/>
        <pt x="431" y="369" on="1"/>
        <pt x="435" y="438" on="1"/>
        <pt x="451" y="440" on="1"/>
        <pt x="451" y="269" on="1"/>
        <pt x="450" y="269" on="0"/>
        <pt x="436" y="268" on="1"/>
        <pt x="432" y="337" on="1"/>
        <pt x="179" y="337" on="1"/>
        <pt x="179" y="19" on="1"/>
        <pt x="248" y="15" on="1"/>
        <pt x="248" y="14" on="0"/>
        <pt x="247" y="0" on="1"/>
        <pt x="46" y="-1" on="1"/>
        <pt x="47" y="13" on="1"/>
        <pt x="99" y="20" on="1"/>
        <pt x="109" y="21" on="0"/>
        <pt x="111" y="33" on="1"/>
        <pt x="111" y="666" on="1"/>
        <pt x="109" y="678" on="0"/>
        <pt x="99" y="679" on="1"/>
      </contour>
    </TTGlyph>
    <TTGlyph name="G" xMin="40" yMin="-4" xMax="569" yMax="701">
      <contour>
        <pt x="568" y="289" on="1"/>
        <pt x="568" y="288" on="0"/>
        <pt x="569" y="274" on="1"/>
        <pt x="529" y="269" on="1"/>
        <pt x="529" y="21" on="1"/>
        <pt x="512" y="15" on="0"/>
        <pt x="365" y="-4" on="0"/>
        <pt x="273" y="-4" on="0"/>
        <pt x="205" y="9" on="0"/>
        <pt x="129" y="51" on="0"/>
        <pt x="76" y="120" on="0"/>
        <pt x="40" y="240" on="0"/>
        <pt x="40" y="320" on="1"/>
        <pt x="40" y="497" on="0"/>
        <pt x="121" y="596" on="1"/>
        <pt x="206" y="700" on="0"/>
        <pt x="353" y="700" on="1"/>
        <pt x="398" y="700" on="0"/>
        <pt x="503" y="683" on="0"/>
        <pt x="525" y="675" on="1"/>
        <pt x="537" y="531" on="1"/>
        <pt x="518" y="524" on="1"/>
        <pt x="505" y="631" on="1"/>
        <pt x="424" y="686" on="0"/>
        <pt x="353" y="686" on="1"/>
        <pt x="240" y="686" on="0"/>
        <pt x="108" y="498" on="0"/>
        <pt x="108" y="320" on="1"/>
        <pt x="108" y="104" on="0"/>
        <pt x="207" y="41" on="1"/>
        <pt x="237" y="22" on="0"/>
        <pt x="288" y="11" on="0"/>
        <pt x="380" y="11" on="0"/>
        <pt x="469" y="24" on="1"/>
        <pt x="473" y="254" on="1"/>
        <pt x="473" y="266" on="0"/>
        <pt x="461" y="268" on="1"/>
        <pt x="389" y="273" on="1"/>
        <pt x="388" y="279" on="0"/>
        <pt x="388" y="288" on="1"/>
      </contour>
    </TTGlyph>
    <TTGlyph name="H" xMin="40" yMin="-1" xMax="645" yMax="700">
      <contour>
        <pt x="634" y="700" on="1"/>
        <pt x="634" y="699" on="0"/>
        <pt x="635" y="685" on="1"/>
        <pt x="572" y="678" on="1"/>
        <pt x="572" y="19" on="1"/>
        <pt x="645" y="15" on="1"/>
        <pt x="645" y="14" on="0"/>
        <pt x="644" y="0" on="1"/>
        <pt x="444" y="-1" on="1"/>
        <pt x="444" y="8" on="0"/>
        <pt x="445" y="13" on="1"/>
        <pt x="497" y="20" on="1"/>
        <pt x="507" y="21" on="0"/>
        <pt x="509" y="33" on="1"/>
        <pt x="509" y="337" on="1"/>
        <pt x="168" y="337" on="1"/>
        <pt x="168" y="19" on="1"/>
        <pt x="242" y="15" on="1"/>
        <pt x="242" y="14" on="0"/>
        <pt x="241" y="0" on="1"/>
        <pt x="40" y="-1" on="1"/>
        <pt x="41" y="13" on="1"/>
        <pt x="93" y="20" on="1"/>
        <pt x="103" y="21" on="0"/>
        <pt x="105" y="32" on="1"/>
        <pt x="105" y="666" on="1"/>
        <pt x="103" y="678" on="0"/>
        <pt x="93" y="679" on="1"/>
        <pt x="41" y="684" on="1"/>
        <pt x="40" y="699" on="1"/>
        <pt x="241" y="700" on="1"/>
        <pt x="241" y="699" on="0"/>
        <pt x="242" y="685" on="1"/>
        <pt x="168" y="678" on="1"/>
        <pt x="168" y="357" on="1"/>
        <pt x="509" y="357" on="1"/>
        <pt x="509" y="665" on="1"/>
        <pt x="507" y="678" on="0"/>
        <pt x="497" y="679" on="1"/>
        <pt x="445" y="684" on="1"/>
        <pt x="444" y="690" on="0"/>
        <pt x="444" y="699" on="1"/>
      </contour>
    </TTGlyph>
    <TTGlyph name="I" xMin="50" yMin="-1" xMax="252" yMax="700">
      <contour>
        <pt x="50" y="-1" on="1"/>
        <pt x="51" y="13" on="1"/>
        <pt x="103" y="20" on="1"/>
        <pt x="113" y="21" on="0"/>
        <pt x="115" y="33" on="1"/>
        <pt x="116" y="33" on="1"/>
        <pt x="116" y="665" on="1"/>
        <pt x="115" y="665" on="1"/>
        <pt x="113" y="678" on="0"/>
        <pt x="103" y="679" on="1"/>
        <pt x="51" y="684" on="1"/>
        <pt x="50" y="699" on="1"/>
        <pt x="251" y="700" on="1"/>
        <pt x="251" y="699" on="0"/>
        <pt x="252" y="685" on="1"/>
        <pt x="184" y="679" on="1"/>
        <pt x="184" y="19" on="1"/>
        <pt x="252" y="15" on="1"/>
        <pt x="252" y="14" on="0"/>
        <pt x="251" y="0" on="1"/>
      </contour>
    </TTGlyph>
    <TTGlyph name="Iacute" xMin="50" yMin="-1" xMax="270" yMax="906">
      <contour>
        <pt x="50" y="-1" on="1"/>
        <pt x="51" y="13" on="1"/>
        <pt x="103" y="20" on="1"/>
        <pt x="113" y="21" on="0"/>
        <pt x="115" y="33" on="1"/>
        <pt x="116" y="33" on="1"/>
        <pt x="116" y="665" on="1"/>
        <pt x="115" y="665" on="1"/>
        <pt x="113" y="678" on="0"/>
        <pt x="103" y="679" on="1"/>
        <pt x="51" y="684" on="1"/>
        <pt x="50" y="699" on="1"/>
        <pt x="251" y="700" on="1"/>
        <pt x="251" y="699" on="0"/>
        <pt x="252" y="685" on="1"/>
        <pt x="184" y="679" on="1"/>
        <pt x="184" y="19" on="1"/>
        <pt x="252" y="15" on="1"/>
        <pt x="252" y="14" on="0"/>
        <pt x="251" y="0" on="1"/>
      </contour>
      <contour>
        <pt x="240" y="906" on="1"/>
        <pt x="270" y="899" on="1"/>
        <pt x="151" y="751" on="1"/>
        <pt x="136" y="759" on="1"/>
      </contour>
    </TTGlyph>
    <TTGlyph name="Icircumflex" xMin="15" yMin="-1" xMax="363" yMax="911">
      <contour>
        <pt x="15" y="735" on="1"/>
        <pt x="197" y="911" on="1"/>
        <pt x="355" y="757" on="0"/>
        <pt x="363" y="750" on="1"/>
        <pt x="330" y="721" on="1"/>
        <pt x="180" y="869" on="1"/>
        <pt x="33" y="721" on="1"/>
      </contour>
      <contour>
        <pt x="87" y="-1" on="1"/>
        <pt x="88" y="13" on="1"/>
        <pt x="140" y="20" on="1"/>
        <pt x="150" y="21" on="0"/>
        <pt x="152" y="33" on="1"/>
        <pt x="153" y="33" on="1"/>
        <pt x="153" y="665" on="1"/>
        <pt x="152" y="665" on="1"/>
        <pt x="150" y="678" on="0"/>
        <pt x="140" y="679" on="1"/>
        <pt x="88" y="684" on="1"/>
        <pt x="87" y="699" on="1"/>
        <pt x="288" y="700" on="1"/>
        <pt x="288" y="699" on="0"/>
        <pt x="289" y="685" on="1"/>
        <pt x="221" y="679" on="1"/>
        <pt x="221" y="19" on="1"/>
        <pt x="289" y="15" on="1"/>
        <pt x="289" y="14" on="0"/>
        <pt x="288" y="0" on="1"/>
      </contour>
    </TTGlyph>
    <TTGlyph name="Idieresis" xMin="20" yMin="-1" xMax="313" yMax="829">
      <contour>
        <pt x="41" y="749" on="0"/>
        <pt x="20" y="772" on="0"/>
        <pt x="20" y="808" on="0"/>
        <pt x="41" y="829" on="0"/>
        <pt x="76" y="829" on="0"/>
        <pt x="97" y="808" on="0"/>
        <pt x="97" y="770" on="0"/>
        <pt x="75" y="749" on="0"/>
      </contour>
      <contour>
        <pt x="256" y="749" on="0"/>
        <pt x="236" y="772" on="0"/>
        <pt x="236" y="808" on="0"/>
        <pt x="256" y="829" on="0"/>
        <pt x="273" y="829" on="1"/>
        <pt x="313" y="829" on="0"/>
        <pt x="313" y="789" on="1"/>
        <pt x="313" y="770" on="0"/>
        <pt x="291" y="749" on="0"/>
      </contour>
      <contour>
        <pt x="70" y="-1" on="1"/>
        <pt x="71" y="13" on="1"/>
        <pt x="123" y="20" on="1"/>
        <pt x="133" y="21" on="0"/>
        <pt x="135" y="33" on="1"/>
        <pt x="136" y="33" on="1"/>
        <pt x="136" y="665" on="1"/>
        <pt x="135" y="665" on="1"/>
        <pt x="133" y="678" on="0"/>
        <pt x="123" y="679" on="1"/>
        <pt x="71" y="684" on="1"/>
        <pt x="71" y="684" on="0"/>
        <pt x="70" y="699" on="1"/>
        <pt x="271" y="700" on="1"/>
        <pt x="271" y="699" on="0"/>
        <pt x="272" y="685" on="1"/>
        <pt x="204" y="679" on="1"/>
        <pt x="204" y="19" on="1"/>
        <pt x="272" y="15" on="1"/>
        <pt x="272" y="14" on="0"/>
        <pt x="271" y="0" on="1"/>
      </contour>
    </TTGlyph>
    <TTGlyph name="Igrave" xMin="20" yMin="-1" xMax="247" yMax="900">
      <contour>
        <pt x="154" y="753" on="1"/>
        <pt x="138" y="745" on="1"/>
        <pt x="20" y="893" on="1"/>
        <pt x="50" y="900" on="1"/>
      </contour>
      <contour>
        <pt x="45" y="-1" on="1"/>
        <pt x="46" y="13" on="1"/>
        <pt x="98" y="20" on="1"/>
        <pt x="108" y="21" on="0"/>
        <pt x="110" y="33" on="1"/>
        <pt x="111" y="33" on="1"/>
        <pt x="111" y="665" on="1"/>
        <pt x="110" y="665" on="1"/>
        <pt x="108" y="678" on="0"/>
        <pt x="98" y="679" on="1"/>
        <pt x="46" y="684" on="1"/>
        <pt x="45" y="699" on="1"/>
        <pt x="246" y="700" on="1"/>
        <pt x="246" y="699" on="0"/>
        <pt x="247" y="685" on="1"/>
        <pt x="179" y="679" on="1"/>
        <pt x="179" y="19" on="1"/>
        <pt x="247" y="15" on="1"/>
        <pt x="247" y="14" on="0"/>
        <pt x="246" y="0" on="1"/>
      </contour>
    </TTGlyph>
    <TTGlyph name="J" xMin="-10" yMin="-248" xMax="185" yMax="700">
      <contour>
        <pt x="184" y="700" on="1"/>
        <pt x="184" y="699" on="0"/>
        <pt x="185" y="685" on="1"/>
        <pt x="146" y="680" on="1"/>
        <pt x="146" y="0" on="1"/>
        <pt x="149" y="-120" on="0"/>
        <pt x="2" y="-248" on="1"/>
        <pt x="-10" y="-239" on="1"/>
        <pt x="79" y="-118" on="0"/>
        <pt x="78" y="0" on="1"/>
        <pt x="78" y="668" on="1"/>
        <pt x="76" y="677" on="0"/>
        <pt x="66" y="679" on="1"/>
        <pt x="4" y="684" on="1"/>
        <pt x="3" y="699" on="1"/>
      </contour>
    </TTGlyph>
    <TTGlyph name="K" xMin="50" yMin="-1" xMax="582" yMax="700">
      <contour>
        <pt x="566" y="700" on="1"/>
        <pt x="566" y="699" on="0"/>
        <pt x="567" y="685" on="1"/>
        <pt x="482" y="677" on="1"/>
        <pt x="239" y="394" on="1"/>
        <pt x="535" y="18" on="1"/>
        <pt x="582" y="15" on="1"/>
        <pt x="582" y="14" on="0"/>
        <pt x="581" y="0" on="1"/>
        <pt x="473" y="-1" on="1"/>
        <pt x="184" y="364" on="1"/>
        <pt x="183" y="365" on="1"/>
        <pt x="183" y="19" on="1"/>
        <pt x="251" y="15" on="1"/>
        <pt x="251" y="14" on="0"/>
        <pt x="250" y="0" on="1"/>
        <pt x="50" y="-1" on="1"/>
        <pt x="50" y="8" on="0"/>
        <pt x="51" y="13" on="1"/>
        <pt x="103" y="20" on="1"/>
        <pt x="113" y="21" on="0"/>
        <pt x="115" y="33" on="1"/>
        <pt x="115" y="666" on="1"/>
        <pt x="111" y="678" on="0"/>
        <pt x="103" y="679" on="1"/>
        <pt x="51" y="684" on="1"/>
        <pt x="50" y="690" on="0"/>
        <pt x="50" y="699" on="1"/>
        <pt x="250" y="700" on="1"/>
        <pt x="250" y="699" on="0"/>
        <pt x="251" y="685" on="1"/>
        <pt x="183" y="679" on="1"/>
        <pt x="183" y="366" on="1"/>
        <pt x="185" y="367" on="1"/>
        <pt x="430" y="660" on="1"/>
        <pt x="438" y="676" on="0"/>
        <pt x="424" y="679" on="1"/>
        <pt x="372" y="684" on="1"/>
        <pt x="371" y="690" on="0"/>
        <pt x="371" y="699" on="1"/>
      </contour>
      <contour>
        <pt x="183" y="366" on="1"/>
        <pt x="183" y="365" on="1"/>
      </contour>
    </TTGlyph>
    <TTGlyph name="L" xMin="50" yMin="-1" xMax="498" yMax="700">
      <contour>
        <pt x="251" y="700" on="1"/>
        <pt x="251" y="699" on="0"/>
        <pt x="252" y="685" on="1"/>
        <pt x="183" y="679" on="1"/>
        <pt x="183" y="20" on="1"/>
        <pt x="459" y="20" on="1"/>
        <pt x="479" y="180" on="1"/>
        <pt x="498" y="175" on="1"/>
        <pt x="483" y="0" on="1"/>
        <pt x="251" y="0" on="1"/>
        <pt x="50" y="-1" on="1"/>
        <pt x="51" y="13" on="1"/>
        <pt x="103" y="20" on="1"/>
        <pt x="113" y="21" on="0"/>
        <pt x="115" y="33" on="1"/>
        <pt x="115" y="666" on="1"/>
        <pt x="113" y="678" on="0"/>
        <pt x="103" y="679" on="1"/>
        <pt x="51" y="684" on="1"/>
        <pt x="50" y="699" on="1"/>
      </contour>
    </TTGlyph>
    <TTGlyph name="M" xMin="38" yMin="-1" xMax="787" yMax="700">
      <contour>
        <pt x="38" y="685" on="1"/>
        <pt x="39" y="700" on="1"/>
        <pt x="171" y="700" on="1"/>
        <pt x="410" y="193" on="1"/>
        <pt x="645" y="700" on="1"/>
        <pt x="777" y="700" on="1"/>
        <pt x="777" y="698" on="0"/>
        <pt x="779" y="688" on="0"/>
        <pt x="778" y="685" on="1"/>
        <pt x="725" y="679" on="1"/>
        <pt x="715" y="678" on="0"/>
        <pt x="713" y="666" on="1"/>
        <pt x="713" y="19" on="1"/>
        <pt x="787" y="15" on="1"/>
        <pt x="787" y="14" on="0"/>
        <pt x="786" y="0" on="1"/>
        <pt x="585" y="-1" on="1"/>
        <pt x="586" y="13" on="1"/>
        <pt x="638" y="20" on="1"/>
        <pt x="648" y="21" on="0"/>
        <pt x="650" y="32" on="1"/>
        <pt x="650" y="664" on="1"/>
        <pt x="422" y="171" on="1"/>
        <pt x="402" y="131" on="1"/>
        <pt x="379" y="131" on="1"/>
        <pt x="126" y="665" on="1"/>
        <pt x="126" y="21" on="1"/>
        <pt x="240" y="15" on="1"/>
        <pt x="240" y="14" on="0"/>
        <pt x="239" y="0" on="1"/>
        <pt x="38" y="-1" on="1"/>
        <pt x="39" y="13" on="1"/>
        <pt x="91" y="20" on="1"/>
        <pt x="101" y="21" on="0"/>
        <pt x="103" y="33" on="1"/>
        <pt x="103" y="666" on="1"/>
        <pt x="101" y="678" on="0"/>
        <pt x="91" y="679" on="1"/>
      </contour>
    </TTGlyph>
    <TTGlyph name="N" xMin="45" yMin="-1" xMax="654" yMax="700">
      <contour>
        <pt x="45" y="685" on="1"/>
        <pt x="46" y="700" on="1"/>
        <pt x="183" y="700" on="1"/>
        <pt x="572" y="28" on="1"/>
        <pt x="567" y="665" on="1"/>
        <pt x="563" y="675" on="0"/>
        <pt x="556" y="676" on="1"/>
        <pt x="464" y="684" on="1"/>
        <pt x="463" y="690" on="0"/>
        <pt x="463" y="699" on="1"/>
        <pt x="653" y="700" on="1"/>
        <pt x="653" y="699" on="0"/>
        <pt x="654" y="685" on="1"/>
        <pt x="590" y="678" on="1"/>
        <pt x="590" y="0" on="1"/>
        <pt x="517" y="0" on="1"/>
        <pt x="128" y="672" on="1"/>
        <pt x="133" y="21" on="1"/>
        <pt x="247" y="15" on="1"/>
        <pt x="247" y="14" on="0"/>
        <pt x="246" y="0" on="1"/>
        <pt x="45" y="-1" on="1"/>
        <pt x="46" y="13" on="1"/>
        <pt x="98" y="20" on="1"/>
        <pt x="108" y="21" on="0"/>
        <pt x="110" y="33" on="1"/>
        <pt x="110" y="666" on="1"/>
        <pt x="108" y="678" on="0"/>
        <pt x="98" y="679" on="1"/>
      </contour>
    </TTGlyph>
    <TTGlyph name="Ntilde" xMin="45" yMin="-1" xMax="654" yMax="825">
      <contour>
        <pt x="45" y="685" on="1"/>
        <pt x="46" y="700" on="1"/>
        <pt x="183" y="700" on="1"/>
        <pt x="572" y="28" on="1"/>
        <pt x="567" y="665" on="1"/>
        <pt x="563" y="675" on="0"/>
        <pt x="556" y="676" on="1"/>
        <pt x="464" y="684" on="1"/>
        <pt x="463" y="690" on="0"/>
        <pt x="463" y="699" on="1"/>
        <pt x="653" y="700" on="1"/>
        <pt x="653" y="699" on="0"/>
        <pt x="654" y="685" on="1"/>
        <pt x="590" y="678" on="1"/>
        <pt x="590" y="0" on="1"/>
        <pt x="517" y="0" on="1"/>
        <pt x="128" y="672" on="1"/>
        <pt x="133" y="21" on="1"/>
        <pt x="247" y="15" on="1"/>
        <pt x="247" y="14" on="0"/>
        <pt x="246" y="0" on="1"/>
        <pt x="45" y="-1" on="1"/>
        <pt x="46" y="13" on="1"/>
        <pt x="98" y="20" on="1"/>
        <pt x="108" y="21" on="0"/>
        <pt x="110" y="33" on="1"/>
        <pt x="110" y="666" on="1"/>
        <pt x="108" y="678" on="0"/>
        <pt x="98" y="679" on="1"/>
      </contour>
      <contour>
        <pt x="271" y="819" on="1"/>
        <pt x="294" y="819" on="0"/>
        <pt x="454" y="785" on="0"/>
        <pt x="513" y="785" on="0"/>
        <pt x="533" y="803" on="0"/>
        <pt x="539" y="825" on="1"/>
        <pt x="555" y="821" on="1"/>
        <pt x="546" y="780" on="0"/>
        <pt x="509" y="747" on="0"/>
        <pt x="458" y="747" on="0"/>
        <pt x="304" y="782" on="0"/>
        <pt x="266" y="782" on="1"/>
        <pt x="211" y="782" on="0"/>
        <pt x="202" y="747" on="1"/>
        <pt x="188" y="751" on="1"/>
        <pt x="200" y="819" on="0"/>
      </contour>
    </TTGlyph>
    <TTGlyph name="O" xMin="40" yMin="-9" xMax="630" yMax="709">
      <contour>
        <pt x="40" y="348" on="1"/>
        <pt x="40" y="513" on="0"/>
        <pt x="209" y="709" on="0"/>
        <pt x="335" y="709" on="1"/>
        <pt x="630" y="709" on="0"/>
        <pt x="630" y="348" on="1"/>
        <pt x="630" y="182" on="0"/>
        <pt x="462" y="-9" on="0"/>
        <pt x="335" y="-9" on="1"/>
        <pt x="40" y="-9" on="0"/>
      </contour>
      <contour>
        <pt x="108" y="350" on="1"/>
        <pt x="108" y="11" on="0"/>
        <pt x="335" y="11" on="1"/>
        <pt x="433" y="11" on="0"/>
        <pt x="562" y="191" on="0"/>
        <pt x="562" y="350" on="1"/>
        <pt x="562" y="689" on="0"/>
        <pt x="335" y="689" on="1"/>
        <pt x="238" y="689" on="0"/>
        <pt x="108" y="507" on="0"/>
      </contour>
    </TTGlyph>
    <TTGlyph name="OE" xMin="40" yMin="-4" xMax="696" yMax="704">
      <contour>
        <pt x="631" y="269" on="1"/>
        <pt x="630" y="269" on="0"/>
        <pt x="616" y="268" on="1"/>
        <pt x="612" y="337" on="1"/>
        <pt x="423" y="337" on="1"/>
        <pt x="423" y="21" on="1"/>
        <pt x="658" y="21" on="1"/>
        <pt x="677" y="180" on="1"/>
        <pt x="696" y="175" on="1"/>
        <pt x="681" y="0" on="1"/>
        <pt x="385" y="0" on="1"/>
        <pt x="364" y="-4" on="0"/>
        <pt x="335" y="-4" on="1"/>
        <pt x="40" y="-4" on="0"/>
        <pt x="40" y="348" on="1"/>
        <pt x="40" y="511" on="0"/>
        <pt x="209" y="704" on="0"/>
        <pt x="335" y="704" on="1"/>
        <pt x="354" y="704" on="0"/>
        <pt x="394" y="700" on="1"/>
        <pt x="654" y="700" on="1"/>
        <pt x="667" y="556" on="1"/>
        <pt x="647" y="548" on="1"/>
        <pt x="631" y="680" on="1"/>
        <pt x="423" y="680" on="1"/>
        <pt x="423" y="357" on="1"/>
        <pt x="601" y="357" on="1"/>
        <pt x="611" y="359" on="0"/>
        <pt x="611" y="369" on="1"/>
        <pt x="615" y="438" on="1"/>
        <pt x="631" y="440" on="1"/>
      </contour>
      <contour>
        <pt x="335" y="16" on="1"/>
        <pt x="355" y="16" on="1"/>
        <pt x="355" y="683" on="1"/>
        <pt x="348" y="684" on="0"/>
        <pt x="335" y="684" on="1"/>
        <pt x="238" y="684" on="0"/>
        <pt x="108" y="505" on="0"/>
        <pt x="108" y="350" on="1"/>
        <pt x="108" y="16" on="0"/>
      </contour>
    </TTGlyph>
    <TTGlyph name="Oacute" xMin="40" yMin="-9" xMax="630" yMax="900">
      <contour>
        <pt x="40" y="348" on="1"/>
        <pt x="40" y="513" on="0"/>
        <pt x="209" y="709" on="0"/>
        <pt x="335" y="709" on="1"/>
        <pt x="630" y="709" on="0"/>
        <pt x="630" y="348" on="1"/>
        <pt x="630" y="182" on="0"/>
        <pt x="462" y="-9" on="0"/>
        <pt x="335" y="-9" on="1"/>
        <pt x="40" y="-9" on="0"/>
      </contour>
      <contour>
        <pt x="108" y="350" on="1"/>
        <pt x="108" y="11" on="0"/>
        <pt x="335" y="11" on="1"/>
        <pt x="433" y="11" on="0"/>
        <pt x="562" y="191" on="0"/>
        <pt x="562" y="350" on="1"/>
        <pt x="562" y="689" on="0"/>
        <pt x="335" y="689" on="1"/>
        <pt x="238" y="689" on="0"/>
        <pt x="108" y="507" on="0"/>
      </contour>
      <contour>
        <pt x="470" y="900" on="1"/>
        <pt x="500" y="893" on="1"/>
        <pt x="381" y="745" on="1"/>
        <pt x="366" y="753" on="1"/>
      </contour>
    </TTGlyph>
    <TTGlyph name="Ocircumflex" xMin="40" yMin="-9" xMax="630" yMax="939">
      <contour>
        <pt x="40" y="348" on="1"/>
        <pt x="40" y="513" on="0"/>
        <pt x="209" y="709" on="0"/>
        <pt x="335" y="709" on="1"/>
        <pt x="630" y="709" on="0"/>
        <pt x="630" y="348" on="1"/>
        <pt x="630" y="182" on="0"/>
        <pt x="462" y="-9" on="0"/>
        <pt x="335" y="-9" on="1"/>
        <pt x="40" y="-9" on="0"/>
      </contour>
      <contour>
        <pt x="108" y="350" on="1"/>
        <pt x="108" y="11" on="0"/>
        <pt x="335" y="11" on="1"/>
        <pt x="433" y="11" on="0"/>
        <pt x="562" y="191" on="0"/>
        <pt x="562" y="350" on="1"/>
        <pt x="562" y="689" on="0"/>
        <pt x="335" y="689" on="1"/>
        <pt x="238" y="689" on="0"/>
        <pt x="108" y="507" on="0"/>
      </contour>
      <contour>
        <pt x="182" y="763" on="1"/>
        <pt x="364" y="939" on="1"/>
        <pt x="522" y="785" on="0"/>
        <pt x="530" y="778" on="1"/>
        <pt x="497" y="749" on="1"/>
        <pt x="347" y="897" on="1"/>
        <pt x="200" y="749" on="1"/>
      </contour>
    </TTGlyph>
    <TTGlyph name="Odieresis" xMin="40" yMin="-9" xMax="630" yMax="830">
      <contour>
        <pt x="40" y="348" on="1"/>
        <pt x="40" y="513" on="0"/>
        <pt x="209" y="709" on="0"/>
        <pt x="335" y="709" on="1"/>
        <pt x="630" y="709" on="0"/>
        <pt x="630" y="348" on="1"/>
        <pt x="630" y="182" on="0"/>
        <pt x="462" y="-9" on="0"/>
        <pt x="335" y="-9" on="1"/>
        <pt x="40" y="-9" on="0"/>
      </contour>
      <contour>
        <pt x="108" y="350" on="1"/>
        <pt x="108" y="11" on="0"/>
        <pt x="335" y="11" on="1"/>
        <pt x="433" y="11" on="0"/>
        <pt x="562" y="191" on="0"/>
        <pt x="562" y="350" on="1"/>
        <pt x="562" y="689" on="0"/>
        <pt x="335" y="689" on="1"/>
        <pt x="238" y="689" on="0"/>
        <pt x="108" y="507" on="0"/>
      </contour>
      <contour>
        <pt x="236" y="750" on="0"/>
        <pt x="215" y="773" on="0"/>
        <pt x="215" y="809" on="0"/>
        <pt x="236" y="830" on="0"/>
        <pt x="271" y="830" on="0"/>
        <pt x="292" y="809" on="0"/>
        <pt x="292" y="771" on="0"/>
        <pt x="270" y="750" on="0"/>
      </contour>
      <contour>
        <pt x="451" y="750" on="0"/>
        <pt x="431" y="773" on="0"/>
        <pt x="431" y="809" on="0"/>
        <pt x="451" y="830" on="0"/>
        <pt x="468" y="830" on="1"/>
        <pt x="508" y="830" on="0"/>
        <pt x="508" y="790" on="1"/>
        <pt x="508" y="771" on="0"/>
        <pt x="486" y="750" on="0"/>
      </contour>
    </TTGlyph>
    <TTGlyph name="Ograve" xMin="40" yMin="-9" xMax="630" yMax="900">
      <contour>
        <pt x="40" y="348" on="1"/>
        <pt x="40" y="513" on="0"/>
        <pt x="209" y="709" on="0"/>
        <pt x="335" y="709" on="1"/>
        <pt x="630" y="709" on="0"/>
        <pt x="630" y="348" on="1"/>
        <pt x="630" y="182" on="0"/>
        <pt x="462" y="-9" on="0"/>
        <pt x="335" y="-9" on="1"/>
        <pt x="40" y="-9" on="0"/>
      </contour>
      <contour>
        <pt x="108" y="350" on="1"/>
        <pt x="108" y="11" on="0"/>
        <pt x="335" y="11" on="1"/>
        <pt x="433" y="11" on="0"/>
        <pt x="562" y="191" on="0"/>
        <pt x="562" y="350" on="1"/>
        <pt x="562" y="689" on="0"/>
        <pt x="335" y="689" on="1"/>
        <pt x="238" y="689" on="0"/>
        <pt x="108" y="507" on="0"/>
      </contour>
      <contour>
        <pt x="348" y="753" on="1"/>
        <pt x="332" y="745" on="1"/>
        <pt x="214" y="893" on="1"/>
        <pt x="244" y="900" on="1"/>
      </contour>
    </TTGlyph>
    <TTGlyph name="Oslash" xMin="40" yMin="-9" xMax="630" yMax="709">
      <contour>
        <pt x="602" y="686" on="1"/>
        <pt x="85" y="0" on="1"/>
        <pt x="69" y="13" on="1"/>
        <pt x="586" y="700" on="1"/>
      </contour>
      <contour>
        <pt x="40" y="348" on="1"/>
        <pt x="40" y="513" on="0"/>
        <pt x="209" y="709" on="0"/>
        <pt x="335" y="709" on="1"/>
        <pt x="630" y="709" on="0"/>
        <pt x="630" y="348" on="1"/>
        <pt x="630" y="182" on="0"/>
        <pt x="462" y="-9" on="0"/>
        <pt x="335" y="-9" on="1"/>
        <pt x="40" y="-9" on="0"/>
      </contour>
      <contour>
        <pt x="108" y="350" on="1"/>
        <pt x="108" y="11" on="0"/>
        <pt x="335" y="11" on="1"/>
        <pt x="433" y="11" on="0"/>
        <pt x="562" y="191" on="0"/>
        <pt x="562" y="350" on="1"/>
        <pt x="562" y="689" on="0"/>
        <pt x="335" y="689" on="1"/>
        <pt x="238" y="689" on="0"/>
        <pt x="108" y="507" on="0"/>
      </contour>
    </TTGlyph>
    <TTGlyph name="Otilde" xMin="40" yMin="-9" xMax="630" yMax="837">
      <contour>
        <pt x="40" y="348" on="1"/>
        <pt x="40" y="513" on="0"/>
        <pt x="209" y="709" on="0"/>
        <pt x="335" y="709" on="1"/>
        <pt x="630" y="709" on="0"/>
        <pt x="630" y="348" on="1"/>
        <pt x="630" y="182" on="0"/>
        <pt x="462" y="-9" on="0"/>
        <pt x="335" y="-9" on="1"/>
        <pt x="40" y="-9" on="0"/>
      </contour>
      <contour>
        <pt x="108" y="350" on="1"/>
        <pt x="108" y="11" on="0"/>
        <pt x="335" y="11" on="1"/>
        <pt x="433" y="11" on="0"/>
        <pt x="562" y="191" on="0"/>
        <pt x="562" y="350" on="1"/>
        <pt x="562" y="689" on="0"/>
        <pt x="335" y="689" on="1"/>
        <pt x="238" y="689" on="0"/>
        <pt x="108" y="507" on="0"/>
      </contour>
      <contour>
        <pt x="263" y="831" on="1"/>
        <pt x="286" y="831" on="0"/>
        <pt x="446" y="797" on="0"/>
        <pt x="505" y="797" on="0"/>
        <pt x="525" y="815" on="0"/>
        <pt x="531" y="837" on="1"/>
        <pt x="547" y="833" on="1"/>
        <pt x="538" y="792" on="0"/>
        <pt x="501" y="759" on="0"/>
        <pt x="450" y="759" on="0"/>
        <pt x="366" y="779" on="1"/>
        <pt x="295" y="794" on="0"/>
        <pt x="258" y="794" on="1"/>
        <pt x="203" y="794" on="0"/>
        <pt x="194" y="759" on="1"/>
        <pt x="180" y="763" on="1"/>
        <pt x="192" y="831" on="0"/>
      </contour>
    </TTGlyph>
    <TTGlyph name="P" xMin="50" yMin="-1" xMax="502" yMax="700">
      <contour>
        <pt x="50" y="688" on="1"/>
        <pt x="52" y="700" on="1"/>
        <pt x="260" y="700" on="1"/>
        <pt x="383" y="700" on="0"/>
        <pt x="502" y="616" on="0"/>
        <pt x="502" y="383" on="0"/>
        <pt x="379" y="272" on="0"/>
        <pt x="260" y="272" on="1"/>
        <pt x="183" y="272" on="1"/>
        <pt x="183" y="19" on="1"/>
        <pt x="252" y="15" on="1"/>
        <pt x="252" y="14" on="0"/>
        <pt x="251" y="0" on="1"/>
        <pt x="51" y="-1" on="1"/>
        <pt x="51" y="8" on="0"/>
        <pt x="52" y="13" on="1"/>
        <pt x="104" y="20" on="1"/>
        <pt x="111" y="21" on="0"/>
        <pt x="115" y="29" on="1"/>
        <pt x="115" y="669" on="1"/>
        <pt x="111" y="678" on="0"/>
        <pt x="104" y="679" on="1"/>
        <pt x="51" y="685" on="1"/>
        <pt x="50" y="686" on="0"/>
      </contour>
      <contour>
        <pt x="255" y="685" on="1"/>
        <pt x="183" y="685" on="1"/>
        <pt x="183" y="287" on="1"/>
        <pt x="255" y="287" on="1"/>
        <pt x="345" y="287" on="0"/>
        <pt x="434" y="383" on="0"/>
        <pt x="434" y="608" on="0"/>
        <pt x="346" y="685" on="0"/>
      </contour>
    </TTGlyph>
    <TTGlyph name="Q" xMin="40" yMin="-200" xMax="630" yMax="704">
      <contour>
        <pt x="623" y="-184" on="1"/>
        <pt x="622" y="-198" on="0"/>
        <pt x="622" y="-199" on="1"/>
        <pt x="461" y="-200" on="1"/>
        <pt x="412" y="-166" on="0"/>
        <pt x="316" y="-60" on="0"/>
        <pt x="299" y="-2" on="1"/>
        <pt x="40" y="18" on="0"/>
        <pt x="40" y="348" on="1"/>
        <pt x="40" y="511" on="0"/>
        <pt x="209" y="704" on="0"/>
        <pt x="335" y="704" on="1"/>
        <pt x="630" y="704" on="0"/>
        <pt x="630" y="348" on="1"/>
        <pt x="630" y="194" on="0"/>
        <pt x="478" y="7" on="0"/>
        <pt x="361" y="-3" on="1"/>
        <pt x="386" y="-89" on="0"/>
        <pt x="497" y="-177" on="1"/>
      </contour>
      <contour>
        <pt x="108" y="350" on="1"/>
        <pt x="108" y="16" on="0"/>
        <pt x="335" y="16" on="1"/>
        <pt x="433" y="16" on="0"/>
        <pt x="562" y="195" on="0"/>
        <pt x="562" y="350" on="1"/>
        <pt x="562" y="684" on="0"/>
        <pt x="335" y="684" on="1"/>
        <pt x="238" y="684" on="0"/>
        <pt x="108" y="505" on="0"/>
      </contour>
    </TTGlyph>
    <TTGlyph name="R" xMin="47" yMin="-1" xMax="612" yMax="700">
      <contour>
        <pt x="47" y="685" on="1"/>
        <pt x="48" y="700" on="1"/>
        <pt x="291" y="700" on="1"/>
        <pt x="394" y="700" on="0"/>
        <pt x="506" y="610" on="0"/>
        <pt x="506" y="521" on="1"/>
        <pt x="506" y="463" on="0"/>
        <pt x="417" y="337" on="0"/>
        <pt x="378" y="319" on="1"/>
        <pt x="563" y="18" on="1"/>
        <pt x="612" y="15" on="1"/>
        <pt x="612" y="14" on="0"/>
        <pt x="611" y="0" on="1"/>
        <pt x="502" y="-1" on="1"/>
        <pt x="312" y="307" on="1"/>
        <pt x="179" y="307" on="1"/>
        <pt x="179" y="19" on="1"/>
        <pt x="249" y="15" on="1"/>
        <pt x="249" y="14" on="0"/>
        <pt x="248" y="0" on="1"/>
        <pt x="47" y="-1" on="1"/>
        <pt x="48" y="13" on="1"/>
        <pt x="100" y="20" on="1"/>
        <pt x="107" y="21" on="0"/>
        <pt x="111" y="29" on="1"/>
        <pt x="111" y="669" on="1"/>
        <pt x="108" y="678" on="0"/>
        <pt x="100" y="679" on="1"/>
      </contour>
      <contour>
        <pt x="286" y="685" on="1"/>
        <pt x="179" y="685" on="1"/>
        <pt x="179" y="322" on="1"/>
        <pt x="350" y="322" on="1"/>
        <pt x="402" y="381" on="0"/>
        <pt x="438" y="472" on="0"/>
        <pt x="438" y="515" on="1"/>
        <pt x="438" y="599" on="0"/>
        <pt x="360" y="685" on="0"/>
      </contour>
    </TTGlyph>
    <TTGlyph name="S" xMin="45" yMin="-1" xMax="492" yMax="702">
      <contour>
        <pt x="238" y="19" on="1"/>
        <pt x="312" y="19" on="0"/>
        <pt x="424" y="106" on="0"/>
        <pt x="424" y="195" on="1"/>
        <pt x="424" y="235" on="0"/>
        <pt x="385" y="292" on="0"/>
        <pt x="321" y="323" on="0"/>
        <pt x="245" y="346" on="0"/>
        <pt x="169" y="372" on="0"/>
        <pt x="105" y="408" on="0"/>
        <pt x="66" y="474" on="0"/>
        <pt x="66" y="520" on="1"/>
        <pt x="66" y="600" on="0"/>
        <pt x="176" y="702" on="0"/>
        <pt x="360" y="702" on="0"/>
        <pt x="444" y="681" on="1"/>
        <pt x="455" y="556" on="1"/>
        <pt x="436" y="548" on="1"/>
        <pt x="426" y="627" on="1"/>
        <pt x="352" y="682" on="0"/>
        <pt x="222" y="682" on="0"/>
        <pt x="134" y="603" on="0"/>
        <pt x="134" y="524" on="1"/>
        <pt x="134" y="478" on="0"/>
        <pt x="208" y="424" on="0"/>
        <pt x="313" y="394" on="0"/>
        <pt x="418" y="356" on="0"/>
        <pt x="492" y="266" on="0"/>
        <pt x="492" y="194" on="1"/>
        <pt x="492" y="97" on="0"/>
        <pt x="354" y="-1" on="0"/>
        <pt x="128" y="-1" on="0"/>
        <pt x="45" y="60" on="1"/>
        <pt x="46" y="166" on="1"/>
        <pt x="65" y="171" on="1"/>
        <pt x="67" y="114" on="1"/>
        <pt x="94" y="76" on="0"/>
        <pt x="188" y="19" on="0"/>
      </contour>
    </TTGlyph>
    <TTGlyph name="T" xMin="20" yMin="-1" xMax="501" yMax="700">
      <contour>
        <pt x="227" y="680" on="1"/>
        <pt x="55" y="680" on="1"/>
        <pt x="39" y="548" on="1"/>
        <pt x="20" y="556" on="1"/>
        <pt x="30" y="680" on="1"/>
        <pt x="29" y="680" on="1"/>
        <pt x="31" y="688" on="1"/>
        <pt x="32" y="700" on="1"/>
        <pt x="34" y="699" on="1"/>
        <pt x="34" y="700" on="1"/>
        <pt x="488" y="700" on="1"/>
        <pt x="501" y="556" on="1"/>
        <pt x="481" y="548" on="1"/>
        <pt x="465" y="680" on="1"/>
        <pt x="290" y="680" on="1"/>
        <pt x="290" y="19" on="1"/>
        <pt x="363" y="15" on="1"/>
        <pt x="363" y="14" on="0"/>
        <pt x="362" y="0" on="1"/>
        <pt x="162" y="-1" on="1"/>
        <pt x="162" y="8" on="0"/>
        <pt x="163" y="13" on="1"/>
        <pt x="215" y="20" on="1"/>
        <pt x="225" y="21" on="0"/>
        <pt x="227" y="33" on="1"/>
      </contour>
    </TTGlyph>
    <TTGlyph name="Thorn" xMin="50" yMin="-1" xMax="502" yMax="700">
      <contour>
        <pt x="50" y="688" on="1"/>
        <pt x="52" y="700" on="1"/>
        <pt x="183" y="700" on="1"/>
        <pt x="183" y="570" on="1"/>
        <pt x="260" y="570" on="1"/>
        <pt x="383" y="570" on="0"/>
        <pt x="502" y="486" on="0"/>
        <pt x="502" y="253" on="0"/>
        <pt x="379" y="142" on="0"/>
        <pt x="260" y="142" on="1"/>
        <pt x="183" y="142" on="1"/>
        <pt x="183" y="19" on="1"/>
        <pt x="252" y="15" on="1"/>
        <pt x="252" y="14" on="0"/>
        <pt x="251" y="0" on="1"/>
        <pt x="51" y="-1" on="1"/>
        <pt x="51" y="8" on="0"/>
        <pt x="52" y="13" on="1"/>
        <pt x="104" y="20" on="1"/>
        <pt x="111" y="21" on="0"/>
        <pt x="115" y="29" on="1"/>
        <pt x="115" y="669" on="1"/>
        <pt x="111" y="678" on="0"/>
        <pt x="104" y="679" on="1"/>
        <pt x="51" y="685" on="1"/>
        <pt x="50" y="686" on="0"/>
      </contour>
      <contour>
        <pt x="255" y="555" on="1"/>
        <pt x="183" y="555" on="1"/>
        <pt x="183" y="157" on="1"/>
        <pt x="255" y="157" on="1"/>
        <pt x="345" y="157" on="0"/>
        <pt x="434" y="253" on="0"/>
        <pt x="434" y="478" on="0"/>
        <pt x="346" y="555" on="0"/>
      </contour>
    </TTGlyph>
    <TTGlyph name="U" xMin="50" yMin="-4" xMax="683" yMax="700">
      <contour>
        <pt x="250" y="700" on="1"/>
        <pt x="250" y="699" on="0"/>
        <pt x="251" y="685" on="1"/>
        <pt x="183" y="679" on="1"/>
        <pt x="183" y="301" on="1"/>
        <pt x="183" y="127" on="0"/>
        <pt x="244" y="70" on="1"/>
        <pt x="273" y="42" on="0"/>
        <pt x="333" y="21" on="0"/>
        <pt x="414" y="21" on="0"/>
        <pt x="480" y="43" on="0"/>
        <pt x="511" y="72" on="1"/>
        <pt x="577" y="132" on="0"/>
        <pt x="577" y="301" on="1"/>
        <pt x="577" y="663" on="1"/>
        <pt x="575" y="676" on="0"/>
        <pt x="565" y="677" on="1"/>
        <pt x="493" y="684" on="1"/>
        <pt x="492" y="690" on="0"/>
        <pt x="492" y="699" on="1"/>
        <pt x="682" y="700" on="1"/>
        <pt x="682" y="699" on="0"/>
        <pt x="683" y="685" on="1"/>
        <pt x="600" y="676" on="1"/>
        <pt x="600" y="300" on="1"/>
        <pt x="600" y="-4" on="0"/>
        <pt x="373" y="-4" on="1"/>
        <pt x="318" y="-4" on="0"/>
        <pt x="235" y="19" on="0"/>
        <pt x="196" y="50" on="1"/>
        <pt x="115" y="113" on="0"/>
        <pt x="115" y="300" on="1"/>
        <pt x="115" y="666" on="1"/>
        <pt x="111" y="678" on="0"/>
        <pt x="103" y="679" on="1"/>
        <pt x="51" y="684" on="1"/>
        <pt x="50" y="690" on="0"/>
        <pt x="50" y="699" on="1"/>
      </contour>
    </TTGlyph>
    <TTGlyph name="Uacute" xMin="20" yMin="-4" xMax="653" yMax="901">
      <contour>
        <pt x="220" y="700" on="1"/>
        <pt x="220" y="699" on="0"/>
        <pt x="221" y="685" on="1"/>
        <pt x="153" y="679" on="1"/>
        <pt x="153" y="301" on="1"/>
        <pt x="153" y="127" on="0"/>
        <pt x="214" y="70" on="1"/>
        <pt x="243" y="42" on="0"/>
        <pt x="303" y="21" on="0"/>
        <pt x="384" y="21" on="0"/>
        <pt x="450" y="43" on="0"/>
        <pt x="481" y="72" on="1"/>
        <pt x="547" y="132" on="0"/>
        <pt x="547" y="301" on="1"/>
        <pt x="547" y="663" on="1"/>
        <pt x="545" y="676" on="0"/>
        <pt x="535" y="677" on="1"/>
        <pt x="463" y="684" on="1"/>
        <pt x="462" y="690" on="0"/>
        <pt x="462" y="699" on="1"/>
        <pt x="652" y="700" on="1"/>
        <pt x="652" y="699" on="0"/>
        <pt x="653" y="685" on="1"/>
        <pt x="570" y="676" on="1"/>
        <pt x="570" y="300" on="1"/>
        <pt x="570" y="-4" on="0"/>
        <pt x="343" y="-4" on="1"/>
        <pt x="288" y="-4" on="0"/>
        <pt x="205" y="19" on="0"/>
        <pt x="166" y="50" on="1"/>
        <pt x="85" y="113" on="0"/>
        <pt x="85" y="300" on="1"/>
        <pt x="85" y="666" on="1"/>
        <pt x="81" y="678" on="0"/>
        <pt x="73" y="679" on="1"/>
        <pt x="21" y="684" on="1"/>
        <pt x="20" y="690" on="0"/>
        <pt x="20" y="699" on="1"/>
      </contour>
      <contour>
        <pt x="459" y="901" on="1"/>
        <pt x="489" y="894" on="1"/>
        <pt x="370" y="746" on="1"/>
        <pt x="355" y="754" on="1"/>
      </contour>
    </TTGlyph>
    <TTGlyph name="Ucircumflex" xMin="20" yMin="-4" xMax="653" yMax="940">
      <contour>
        <pt x="220" y="700" on="1"/>
        <pt x="220" y="699" on="0"/>
        <pt x="221" y="685" on="1"/>
        <pt x="153" y="679" on="1"/>
        <pt x="153" y="301" on="1"/>
        <pt x="153" y="127" on="0"/>
        <pt x="214" y="70" on="1"/>
        <pt x="243" y="42" on="0"/>
        <pt x="303" y="21" on="0"/>
        <pt x="384" y="21" on="0"/>
        <pt x="450" y="43" on="0"/>
        <pt x="481" y="72" on="1"/>
        <pt x="547" y="132" on="0"/>
        <pt x="547" y="301" on="1"/>
        <pt x="547" y="663" on="1"/>
        <pt x="545" y="676" on="0"/>
        <pt x="535" y="677" on="1"/>
        <pt x="463" y="684" on="1"/>
        <pt x="462" y="690" on="0"/>
        <pt x="462" y="699" on="1"/>
        <pt x="652" y="700" on="1"/>
        <pt x="652" y="699" on="0"/>
        <pt x="653" y="685" on="1"/>
        <pt x="570" y="676" on="1"/>
        <pt x="570" y="300" on="1"/>
        <pt x="570" y="-4" on="0"/>
        <pt x="343" y="-4" on="1"/>
        <pt x="288" y="-4" on="0"/>
        <pt x="205" y="19" on="0"/>
        <pt x="166" y="50" on="1"/>
        <pt x="85" y="113" on="0"/>
        <pt x="85" y="300" on="1"/>
        <pt x="85" y="666" on="1"/>
        <pt x="81" y="678" on="0"/>
        <pt x="73" y="679" on="1"/>
        <pt x="21" y="684" on="1"/>
        <pt x="20" y="690" on="0"/>
        <pt x="20" y="699" on="1"/>
      </contour>
      <contour>
        <pt x="162" y="764" on="1"/>
        <pt x="344" y="940" on="1"/>
        <pt x="502" y="786" on="0"/>
        <pt x="510" y="779" on="1"/>
        <pt x="477" y="750" on="1"/>
        <pt x="327" y="898" on="1"/>
        <pt x="180" y="750" on="1"/>
      </contour>
    </TTGlyph>
    <TTGlyph name="Udieresis" xMin="20" yMin="-4" xMax="653" yMax="830">
      <contour>
        <pt x="220" y="700" on="1"/>
        <pt x="220" y="699" on="0"/>
        <pt x="221" y="685" on="1"/>
        <pt x="153" y="679" on="1"/>
        <pt x="153" y="301" on="1"/>
        <pt x="153" y="127" on="0"/>
        <pt x="214" y="70" on="1"/>
        <pt x="243" y="42" on="0"/>
        <pt x="303" y="21" on="0"/>
        <pt x="384" y="21" on="0"/>
        <pt x="450" y="43" on="0"/>
        <pt x="481" y="72" on="1"/>
        <pt x="547" y="132" on="0"/>
        <pt x="547" y="301" on="1"/>
        <pt x="547" y="663" on="1"/>
        <pt x="545" y="676" on="0"/>
        <pt x="535" y="677" on="1"/>
        <pt x="463" y="684" on="1"/>
        <pt x="462" y="690" on="0"/>
        <pt x="462" y="699" on="1"/>
        <pt x="652" y="700" on="1"/>
        <pt x="652" y="699" on="0"/>
        <pt x="653" y="685" on="1"/>
        <pt x="570" y="676" on="1"/>
        <pt x="570" y="300" on="1"/>
        <pt x="570" y="-4" on="0"/>
        <pt x="343" y="-4" on="1"/>
        <pt x="288" y="-4" on="0"/>
        <pt x="205" y="19" on="0"/>
        <pt x="166" y="50" on="1"/>
        <pt x="85" y="113" on="0"/>
        <pt x="85" y="300" on="1"/>
        <pt x="85" y="666" on="1"/>
        <pt x="81" y="678" on="0"/>
        <pt x="73" y="679" on="1"/>
        <pt x="21" y="684" on="1"/>
        <pt x="20" y="690" on="0"/>
        <pt x="20" y="699" on="1"/>
      </contour>
      <contour>
        <pt x="214" y="750" on="0"/>
        <pt x="193" y="773" on="0"/>
        <pt x="193" y="809" on="0"/>
        <pt x="214" y="830" on="0"/>
        <pt x="249" y="830" on="0"/>
        <pt x="270" y="809" on="0"/>
        <pt x="270" y="771" on="0"/>
        <pt x="248" y="750" on="0"/>
      </contour>
      <contour>
        <pt x="429" y="750" on="0"/>
        <pt x="409" y="773" on="0"/>
        <pt x="409" y="809" on="0"/>
        <pt x="429" y="830" on="0"/>
        <pt x="446" y="830" on="1"/>
        <pt x="486" y="830" on="0"/>
        <pt x="486" y="790" on="1"/>
        <pt x="486" y="771" on="0"/>
        <pt x="464" y="750" on="0"/>
      </contour>
    </TTGlyph>
    <TTGlyph name="Ugrave" xMin="20" yMin="-4" xMax="653" yMax="901">
      <contour>
        <pt x="220" y="700" on="1"/>
        <pt x="220" y="699" on="0"/>
        <pt x="221" y="685" on="1"/>
        <pt x="153" y="679" on="1"/>
        <pt x="153" y="301" on="1"/>
        <pt x="153" y="127" on="0"/>
        <pt x="214" y="70" on="1"/>
        <pt x="243" y="42" on="0"/>
        <pt x="303" y="21" on="0"/>
        <pt x="384" y="21" on="0"/>
        <pt x="450" y="43" on="0"/>
        <pt x="481" y="72" on="1"/>
        <pt x="547" y="132" on="0"/>
        <pt x="547" y="301" on="1"/>
        <pt x="547" y="663" on="1"/>
        <pt x="545" y="676" on="0"/>
        <pt x="535" y="677" on="1"/>
        <pt x="463" y="684" on="1"/>
        <pt x="462" y="690" on="0"/>
        <pt x="462" y="699" on="1"/>
        <pt x="652" y="700" on="1"/>
        <pt x="652" y="699" on="0"/>
        <pt x="653" y="685" on="1"/>
        <pt x="570" y="676" on="1"/>
        <pt x="570" y="300" on="1"/>
        <pt x="570" y="-4" on="0"/>
        <pt x="343" y="-4" on="1"/>
        <pt x="288" y="-4" on="0"/>
        <pt x="205" y="19" on="0"/>
        <pt x="166" y="50" on="1"/>
        <pt x="85" y="113" on="0"/>
        <pt x="85" y="300" on="1"/>
        <pt x="85" y="666" on="1"/>
        <pt x="81" y="678" on="0"/>
        <pt x="73" y="679" on="1"/>
        <pt x="21" y="684" on="1"/>
        <pt x="20" y="690" on="0"/>
        <pt x="20" y="699" on="1"/>
      </contour>
      <contour>
        <pt x="339" y="754" on="1"/>
        <pt x="323" y="746" on="1"/>
        <pt x="205" y="894" on="1"/>
        <pt x="235" y="901" on="1"/>
      </contour>
    </TTGlyph>
    <TTGlyph name="V" xMin="14" yMin="0" xMax="652" yMax="700">
      <contour>
        <pt x="651" y="700" on="1"/>
        <pt x="651" y="699" on="0"/>
        <pt x="652" y="685" on="1"/>
        <pt x="589" y="679" on="1"/>
        <pt x="369" y="0" on="1"/>
        <pt x="303" y="0" on="1"/>
        <pt x="75" y="674" on="1"/>
        <pt x="72" y="678" on="0"/>
        <pt x="67" y="679" on="1"/>
        <pt x="15" y="684" on="1"/>
        <pt x="14" y="690" on="0"/>
        <pt x="14" y="699" on="1"/>
        <pt x="214" y="700" on="1"/>
        <pt x="214" y="699" on="0"/>
        <pt x="215" y="685" on="1"/>
        <pt x="141" y="678" on="1"/>
        <pt x="362" y="19" on="1"/>
        <pt x="556" y="654" on="1"/>
        <pt x="557" y="663" on="1"/>
        <pt x="557" y="675" on="0"/>
        <pt x="548" y="676" on="1"/>
        <pt x="457" y="684" on="1"/>
        <pt x="456" y="690" on="0"/>
        <pt x="456" y="699" on="1"/>
      </contour>
    </TTGlyph>
    <TTGlyph name="W" xMin="15" yMin="0" xMax="952" yMax="700">
      <contour>
        <pt x="216" y="700" on="1"/>
        <pt x="216" y="699" on="0"/>
        <pt x="217" y="685" on="1"/>
        <pt x="139" y="678" on="1"/>
        <pt x="305" y="26" on="1"/>
        <pt x="491" y="700" on="1"/>
        <pt x="506" y="700" on="1"/>
        <pt x="503" y="692" on="1"/>
        <pt x="507" y="700" on="1"/>
        <pt x="683" y="24" on="1"/>
        <pt x="859" y="665" on="1"/>
        <pt x="859" y="675" on="0"/>
        <pt x="850" y="676" on="1"/>
        <pt x="756" y="684" on="1"/>
        <pt x="755" y="699" on="1"/>
        <pt x="951" y="700" on="1"/>
        <pt x="951" y="699" on="0"/>
        <pt x="952" y="685" on="1"/>
        <pt x="887" y="679" on="1"/>
        <pt x="689" y="0" on="1"/>
        <pt x="628" y="0" on="1"/>
        <pt x="477" y="597" on="1"/>
        <pt x="312" y="0" on="1"/>
        <pt x="250" y="0" on="1"/>
        <pt x="78" y="671" on="1"/>
        <pt x="75" y="678" on="0"/>
        <pt x="68" y="679" on="1"/>
        <pt x="16" y="684" on="1"/>
        <pt x="15" y="699" on="1"/>
      </contour>
    </TTGlyph>
    <TTGlyph name="X" xMin="20" yMin="-1" xMax="592" yMax="700">
      <contour>
        <pt x="20" y="-1" on="1"/>
        <pt x="21" y="13" on="1"/>
        <pt x="93" y="22" on="1"/>
        <pt x="103" y="23" on="0"/>
        <pt x="109" y="35" on="1"/>
        <pt x="278" y="340" on="1"/>
        <pt x="87" y="666" on="1"/>
        <pt x="82" y="673" on="1"/>
        <pt x="81" y="677" on="0"/>
        <pt x="73" y="679" on="1"/>
        <pt x="28" y="684" on="1"/>
        <pt x="27" y="699" on="1"/>
        <pt x="215" y="700" on="1"/>
        <pt x="215" y="699" on="0"/>
        <pt x="216" y="685" on="1"/>
        <pt x="151" y="679" on="1"/>
        <pt x="320" y="380" on="1"/>
        <pt x="471" y="664" on="1"/>
        <pt x="472" y="667" on="0"/>
        <pt x="467" y="675" on="0"/>
        <pt x="463" y="676" on="1"/>
        <pt x="378" y="684" on="1"/>
        <pt x="377" y="699" on="1"/>
        <pt x="559" y="700" on="1"/>
        <pt x="559" y="699" on="0"/>
        <pt x="560" y="685" on="1"/>
        <pt x="507" y="680" on="1"/>
        <pt x="329" y="363" on="1"/>
        <pt x="531" y="19" on="1"/>
        <pt x="592" y="15" on="1"/>
        <pt x="592" y="14" on="0"/>
        <pt x="591" y="0" on="1"/>
        <pt x="391" y="-1" on="1"/>
        <pt x="391" y="8" on="0"/>
        <pt x="392" y="13" on="1"/>
        <pt x="440" y="20" on="1"/>
        <pt x="446" y="21" on="0"/>
        <pt x="454" y="29" on="0"/>
        <pt x="451" y="33" on="1"/>
        <pt x="288" y="322" on="1"/>
        <pt x="128" y="21" on="1"/>
        <pt x="213" y="15" on="1"/>
        <pt x="213" y="14" on="0"/>
        <pt x="212" y="0" on="1"/>
      </contour>
    </TTGlyph>
    <TTGlyph name="Y" xMin="20" yMin="-1" xMax="630" yMax="700">
      <contour>
        <pt x="629" y="700" on="1"/>
        <pt x="629" y="699" on="0"/>
        <pt x="630" y="685" on="1"/>
        <pt x="573" y="680" on="1"/>
        <pt x="359" y="236" on="1"/>
        <pt x="359" y="19" on="1"/>
        <pt x="432" y="15" on="1"/>
        <pt x="432" y="14" on="0"/>
        <pt x="431" y="0" on="1"/>
        <pt x="231" y="-1" on="1"/>
        <pt x="231" y="8" on="0"/>
        <pt x="232" y="13" on="1"/>
        <pt x="284" y="20" on="1"/>
        <pt x="294" y="21" on="0"/>
        <pt x="296" y="33" on="1"/>
        <pt x="296" y="236" on="1"/>
        <pt x="71" y="675" on="1"/>
        <pt x="67" y="678" on="0"/>
        <pt x="63" y="680" on="1"/>
        <pt x="21" y="684" on="1"/>
        <pt x="20" y="690" on="0"/>
        <pt x="20" y="699" on="1"/>
        <pt x="222" y="700" on="1"/>
        <pt x="222" y="699" on="0"/>
        <pt x="223" y="685" on="1"/>
        <pt x="141" y="678" on="1"/>
        <pt x="348" y="253" on="1"/>
        <pt x="535" y="663" on="1"/>
        <pt x="535" y="675" on="0"/>
        <pt x="526" y="676" on="1"/>
        <pt x="435" y="684" on="1"/>
        <pt x="434" y="690" on="0"/>
        <pt x="434" y="699" on="1"/>
      </contour>
    </TTGlyph>
    <TTGlyph name="Yacute" xMin="20" yMin="-1" xMax="630" yMax="900">
      <contour>
        <pt x="629" y="700" on="1"/>
        <pt x="629" y="699" on="0"/>
        <pt x="630" y="685" on="1"/>
        <pt x="573" y="680" on="1"/>
        <pt x="359" y="236" on="1"/>
        <pt x="359" y="19" on="1"/>
        <pt x="432" y="15" on="1"/>
        <pt x="432" y="14" on="0"/>
        <pt x="431" y="0" on="1"/>
        <pt x="231" y="-1" on="1"/>
        <pt x="231" y="8" on="0"/>
        <pt x="232" y="13" on="1"/>
        <pt x="284" y="20" on="1"/>
        <pt x="294" y="21" on="0"/>
        <pt x="296" y="33" on="1"/>
        <pt x="296" y="236" on="1"/>
        <pt x="71" y="675" on="1"/>
        <pt x="67" y="678" on="0"/>
        <pt x="63" y="680" on="1"/>
        <pt x="21" y="684" on="1"/>
        <pt x="20" y="690" on="0"/>
        <pt x="20" y="699" on="1"/>
        <pt x="222" y="700" on="1"/>
        <pt x="222" y="699" on="0"/>
        <pt x="223" y="685" on="1"/>
        <pt x="141" y="678" on="1"/>
        <pt x="348" y="253" on="1"/>
        <pt x="535" y="663" on="1"/>
        <pt x="535" y="675" on="0"/>
        <pt x="526" y="676" on="1"/>
        <pt x="435" y="684" on="1"/>
        <pt x="434" y="690" on="0"/>
        <pt x="434" y="699" on="1"/>
      </contour>
      <contour>
        <pt x="444" y="900" on="1"/>
        <pt x="474" y="893" on="1"/>
        <pt x="355" y="745" on="1"/>
        <pt x="340" y="753" on="1"/>
      </contour>
    </TTGlyph>
    <TTGlyph name="Ydieresis" xMin="20" yMin="-1" xMax="630" yMax="830">
      <contour>
        <pt x="629" y="700" on="1"/>
        <pt x="629" y="699" on="0"/>
        <pt x="630" y="685" on="1"/>
        <pt x="573" y="680" on="1"/>
        <pt x="359" y="236" on="1"/>
        <pt x="359" y="19" on="1"/>
        <pt x="432" y="15" on="1"/>
        <pt x="432" y="14" on="0"/>
        <pt x="431" y="0" on="1"/>
        <pt x="231" y="-1" on="1"/>
        <pt x="231" y="8" on="0"/>
        <pt x="232" y="13" on="1"/>
        <pt x="284" y="20" on="1"/>
        <pt x="294" y="21" on="0"/>
        <pt x="296" y="33" on="1"/>
        <pt x="296" y="236" on="1"/>
        <pt x="71" y="675" on="1"/>
        <pt x="67" y="678" on="0"/>
        <pt x="63" y="680" on="1"/>
        <pt x="21" y="684" on="1"/>
        <pt x="20" y="690" on="0"/>
        <pt x="20" y="699" on="1"/>
        <pt x="222" y="700" on="1"/>
        <pt x="222" y="699" on="0"/>
        <pt x="223" y="685" on="1"/>
        <pt x="141" y="678" on="1"/>
        <pt x="348" y="253" on="1"/>
        <pt x="535" y="663" on="1"/>
        <pt x="535" y="675" on="0"/>
        <pt x="526" y="676" on="1"/>
        <pt x="435" y="684" on="1"/>
        <pt x="434" y="690" on="0"/>
        <pt x="434" y="699" on="1"/>
      </contour>
      <contour>
        <pt x="222" y="750" on="0"/>
        <pt x="201" y="773" on="0"/>
        <pt x="201" y="809" on="0"/>
        <pt x="222" y="830" on="0"/>
        <pt x="257" y="830" on="0"/>
        <pt x="278" y="809" on="0"/>
        <pt x="278" y="771" on="0"/>
        <pt x="256" y="750" on="0"/>
      </contour>
      <contour>
        <pt x="437" y="750" on="0"/>
        <pt x="417" y="773" on="0"/>
        <pt x="417" y="809" on="0"/>
        <pt x="437" y="830" on="0"/>
        <pt x="454" y="830" on="1"/>
        <pt x="494" y="830" on="0"/>
        <pt x="494" y="790" on="1"/>
        <pt x="494" y="771" on="0"/>
        <pt x="472" y="750" on="0"/>
      </contour>
    </TTGlyph>
    <TTGlyph name="Z" xMin="25" yMin="0" xMax="552" yMax="700">
      <contour>
        <pt x="35" y="0" on="1"/>
        <pt x="25" y="15" on="1"/>
        <pt x="418" y="685" on="1"/>
        <pt x="75" y="685" on="1"/>
        <pt x="58" y="548" on="1"/>
        <pt x="38" y="556" on="1"/>
        <pt x="51" y="700" on="1"/>
        <pt x="486" y="700" on="1"/>
        <pt x="496" y="685" on="1"/>
        <pt x="102" y="15" on="1"/>
        <pt x="513" y="15" on="1"/>
        <pt x="533" y="180" on="1"/>
        <pt x="552" y="175" on="1"/>
        <pt x="537" y="0" on="1"/>
      </contour>
    </TTGlyph>
    <TTGlyph name="a" xMin="40" yMin="-5" xMax="499" yMax="503">
      <contour>
        <pt x="360" y="38" on="1"/>
        <pt x="357" y="38" on="1"/>
        <pt x="267" y="-4" on="0"/>
        <pt x="182" y="-4" on="1"/>
        <pt x="49" y="-4" on="0"/>
        <pt x="41" y="101" on="1"/>
        <pt x="40" y="108" on="0"/>
        <pt x="40" y="114" on="1"/>
        <pt x="40" y="191" on="0"/>
        <pt x="141" y="217" on="1"/>
        <pt x="201" y="230" on="0"/>
        <pt x="357" y="248" on="1"/>
        <pt x="357" y="336" on="1"/>
        <pt x="357" y="378" on="0"/>
        <pt x="337" y="438" on="0"/>
        <pt x="313" y="467" on="0"/>
        <pt x="294" y="475" on="1"/>
        <pt x="270" y="485" on="0"/>
        <pt x="211" y="485" on="0"/>
        <pt x="173" y="470" on="1"/>
        <pt x="118" y="447" on="0"/>
        <pt x="75" y="412" on="1"/>
        <pt x="71" y="334" on="1"/>
        <pt x="52" y="329" on="1"/>
        <pt x="52" y="450" on="1"/>
        <pt x="62" y="454" on="1"/>
        <pt x="140" y="488" on="0"/>
        <pt x="222" y="502" on="0"/>
        <pt x="260" y="503" on="0"/>
        <pt x="295" y="501" on="0"/>
        <pt x="351" y="485" on="0"/>
        <pt x="392" y="456" on="0"/>
        <pt x="422" y="398" on="0"/>
        <pt x="422" y="358" on="1"/>
        <pt x="422" y="52" on="1"/>
        <pt x="422" y="21" on="0"/>
        <pt x="438" y="21" on="1"/>
        <pt x="499" y="18" on="1"/>
        <pt x="498" y="3" on="1"/>
        <pt x="442" y="-5" on="0"/>
        <pt x="398" y="-5" on="1"/>
        <pt x="386" y="-4" on="0"/>
        <pt x="360" y="19" on="0"/>
      </contour>
      <contour>
        <pt x="200" y="12" on="1"/>
        <pt x="274" y="12" on="0"/>
        <pt x="357" y="64" on="1"/>
        <pt x="357" y="229" on="1"/>
        <pt x="207" y="224" on="0"/>
        <pt x="130" y="199" on="0"/>
        <pt x="101" y="146" on="0"/>
        <pt x="101" y="120" on="1"/>
        <pt x="101" y="115" on="0"/>
        <pt x="101" y="110" on="1"/>
        <pt x="104" y="58" on="0"/>
        <pt x="160" y="12" on="0"/>
      </contour>
    </TTGlyph>
    <TTGlyph name="aacute" xMin="40" yMin="-5" xMax="499" yMax="750">
      <contour>
        <pt x="360" y="38" on="1"/>
        <pt x="357" y="38" on="1"/>
        <pt x="267" y="-4" on="0"/>
        <pt x="182" y="-4" on="1"/>
        <pt x="49" y="-4" on="0"/>
        <pt x="41" y="101" on="1"/>
        <pt x="40" y="108" on="0"/>
        <pt x="40" y="114" on="1"/>
        <pt x="40" y="191" on="0"/>
        <pt x="141" y="217" on="1"/>
        <pt x="201" y="230" on="0"/>
        <pt x="357" y="248" on="1"/>
        <pt x="357" y="336" on="1"/>
        <pt x="357" y="378" on="0"/>
        <pt x="337" y="438" on="0"/>
        <pt x="313" y="467" on="0"/>
        <pt x="294" y="475" on="1"/>
        <pt x="270" y="485" on="0"/>
        <pt x="211" y="485" on="0"/>
        <pt x="173" y="470" on="1"/>
        <pt x="118" y="447" on="0"/>
        <pt x="75" y="412" on="1"/>
        <pt x="71" y="334" on="1"/>
        <pt x="52" y="329" on="1"/>
        <pt x="52" y="450" on="1"/>
        <pt x="62" y="454" on="1"/>
        <pt x="140" y="488" on="0"/>
        <pt x="222" y="502" on="0"/>
        <pt x="260" y="503" on="0"/>
        <pt x="295" y="501" on="0"/>
        <pt x="351" y="485" on="0"/>
        <pt x="392" y="456" on="0"/>
        <pt x="422" y="398" on="0"/>
        <pt x="422" y="358" on="1"/>
        <pt x="422" y="52" on="1"/>
        <pt x="422" y="21" on="0"/>
        <pt x="438" y="21" on="1"/>
        <pt x="499" y="18" on="1"/>
        <pt x="498" y="3" on="1"/>
        <pt x="442" y="-5" on="0"/>
        <pt x="398" y="-5" on="1"/>
        <pt x="386" y="-4" on="0"/>
        <pt x="360" y="19" on="0"/>
      </contour>
      <contour>
        <pt x="200" y="12" on="1"/>
        <pt x="274" y="12" on="0"/>
        <pt x="357" y="64" on="1"/>
        <pt x="357" y="229" on="1"/>
        <pt x="207" y="224" on="0"/>
        <pt x="130" y="199" on="0"/>
        <pt x="101" y="146" on="0"/>
        <pt x="101" y="120" on="1"/>
        <pt x="101" y="115" on="0"/>
        <pt x="101" y="110" on="1"/>
        <pt x="104" y="58" on="0"/>
        <pt x="160" y="12" on="0"/>
      </contour>
      <contour>
        <pt x="356" y="750" on="1"/>
        <pt x="386" y="743" on="1"/>
        <pt x="267" y="595" on="1"/>
        <pt x="252" y="603" on="1"/>
      </contour>
    </TTGlyph>
    <TTGlyph name="acircumflex" xMin="40" yMin="-5" xMax="499" yMax="761">
      <contour>
        <pt x="360" y="38" on="1"/>
        <pt x="357" y="38" on="1"/>
        <pt x="267" y="-4" on="0"/>
        <pt x="182" y="-4" on="1"/>
        <pt x="49" y="-4" on="0"/>
        <pt x="41" y="101" on="1"/>
        <pt x="40" y="108" on="0"/>
        <pt x="40" y="114" on="1"/>
        <pt x="40" y="191" on="0"/>
        <pt x="141" y="217" on="1"/>
        <pt x="201" y="230" on="0"/>
        <pt x="357" y="248" on="1"/>
        <pt x="357" y="336" on="1"/>
        <pt x="357" y="378" on="0"/>
        <pt x="337" y="438" on="0"/>
        <pt x="313" y="467" on="0"/>
        <pt x="294" y="475" on="1"/>
        <pt x="270" y="485" on="0"/>
        <pt x="211" y="485" on="0"/>
        <pt x="173" y="470" on="1"/>
        <pt x="118" y="447" on="0"/>
        <pt x="75" y="412" on="1"/>
        <pt x="71" y="334" on="1"/>
        <pt x="52" y="329" on="1"/>
        <pt x="52" y="450" on="1"/>
        <pt x="62" y="454" on="1"/>
        <pt x="140" y="488" on="0"/>
        <pt x="222" y="502" on="0"/>
        <pt x="260" y="503" on="0"/>
        <pt x="295" y="501" on="0"/>
        <pt x="351" y="485" on="0"/>
        <pt x="392" y="456" on="0"/>
        <pt x="422" y="398" on="0"/>
        <pt x="422" y="358" on="1"/>
        <pt x="422" y="52" on="1"/>
        <pt x="422" y="21" on="0"/>
        <pt x="438" y="21" on="1"/>
        <pt x="499" y="18" on="1"/>
        <pt x="498" y="3" on="1"/>
        <pt x="442" y="-5" on="0"/>
        <pt x="398" y="-5" on="1"/>
        <pt x="386" y="-4" on="0"/>
        <pt x="360" y="19" on="0"/>
      </contour>
      <contour>
        <pt x="200" y="12" on="1"/>
        <pt x="274" y="12" on="0"/>
        <pt x="357" y="64" on="1"/>
        <pt x="357" y="229" on="1"/>
        <pt x="207" y="224" on="0"/>
        <pt x="130" y="199" on="0"/>
        <pt x="101" y="146" on="0"/>
        <pt x="101" y="120" on="1"/>
        <pt x="101" y="115" on="0"/>
        <pt x="101" y="110" on="1"/>
        <pt x="104" y="58" on="0"/>
        <pt x="160" y="12" on="0"/>
      </contour>
      <contour>
        <pt x="67" y="585" on="1"/>
        <pt x="249" y="761" on="1"/>
        <pt x="407" y="607" on="0"/>
        <pt x="415" y="600" on="1"/>
        <pt x="382" y="571" on="1"/>
        <pt x="232" y="719" on="1"/>
        <pt x="85" y="571" on="1"/>
      </contour>
    </TTGlyph>
    <TTGlyph name="acute" xMin="106" yMin="595" xMax="240" yMax="750">
      <contour>
        <pt x="210" y="750" on="1"/>
        <pt x="240" y="743" on="1"/>
        <pt x="121" y="595" on="1"/>
        <pt x="106" y="603" on="1"/>
      </contour>
    </TTGlyph>
    <TTGlyph name="adieresis" xMin="40" yMin="-5" xMax="499" yMax="650">
      <contour>
        <pt x="360" y="38" on="1"/>
        <pt x="357" y="38" on="1"/>
        <pt x="267" y="-4" on="0"/>
        <pt x="182" y="-4" on="1"/>
        <pt x="49" y="-4" on="0"/>
        <pt x="41" y="101" on="1"/>
        <pt x="40" y="108" on="0"/>
        <pt x="40" y="114" on="1"/>
        <pt x="40" y="191" on="0"/>
        <pt x="141" y="217" on="1"/>
        <pt x="201" y="230" on="0"/>
        <pt x="357" y="248" on="1"/>
        <pt x="357" y="336" on="1"/>
        <pt x="357" y="378" on="0"/>
        <pt x="337" y="438" on="0"/>
        <pt x="313" y="467" on="0"/>
        <pt x="294" y="475" on="1"/>
        <pt x="270" y="485" on="0"/>
        <pt x="211" y="485" on="0"/>
        <pt x="173" y="470" on="1"/>
        <pt x="118" y="447" on="0"/>
        <pt x="75" y="412" on="1"/>
        <pt x="71" y="334" on="1"/>
        <pt x="52" y="329" on="1"/>
        <pt x="52" y="450" on="1"/>
        <pt x="62" y="454" on="1"/>
        <pt x="140" y="488" on="0"/>
        <pt x="222" y="502" on="0"/>
        <pt x="260" y="503" on="0"/>
        <pt x="295" y="501" on="0"/>
        <pt x="351" y="485" on="0"/>
        <pt x="392" y="456" on="0"/>
        <pt x="422" y="398" on="0"/>
        <pt x="422" y="358" on="1"/>
        <pt x="422" y="52" on="1"/>
        <pt x="422" y="21" on="0"/>
        <pt x="438" y="21" on="1"/>
        <pt x="499" y="18" on="1"/>
        <pt x="498" y="3" on="1"/>
        <pt x="442" y="-5" on="0"/>
        <pt x="398" y="-5" on="1"/>
        <pt x="386" y="-4" on="0"/>
        <pt x="360" y="19" on="0"/>
      </contour>
      <contour>
        <pt x="200" y="12" on="1"/>
        <pt x="274" y="12" on="0"/>
        <pt x="357" y="64" on="1"/>
        <pt x="357" y="229" on="1"/>
        <pt x="207" y="224" on="0"/>
        <pt x="130" y="199" on="0"/>
        <pt x="101" y="146" on="0"/>
        <pt x="101" y="120" on="1"/>
        <pt x="101" y="115" on="0"/>
        <pt x="101" y="110" on="1"/>
        <pt x="104" y="58" on="0"/>
        <pt x="160" y="12" on="0"/>
      </contour>
      <contour>
        <pt x="119" y="570" on="0"/>
        <pt x="98" y="593" on="0"/>
        <pt x="98" y="629" on="0"/>
        <pt x="119" y="650" on="0"/>
        <pt x="154" y="650" on="0"/>
        <pt x="175" y="629" on="0"/>
        <pt x="175" y="591" on="0"/>
        <pt x="153" y="570" on="0"/>
      </contour>
      <contour>
        <pt x="334" y="570" on="0"/>
        <pt x="314" y="593" on="0"/>
        <pt x="314" y="629" on="0"/>
        <pt x="334" y="650" on="0"/>
        <pt x="351" y="650" on="1"/>
        <pt x="391" y="650" on="0"/>
        <pt x="391" y="610" on="1"/>
        <pt x="391" y="591" on="0"/>
        <pt x="369" y="570" on="0"/>
      </contour>
    </TTGlyph>
    <TTGlyph name="ae" xMin="40" yMin="-4" xMax="686" yMax="505">
      <contour>
        <pt x="182" y="-4" on="1"/>
        <pt x="49" y="-4" on="0"/>
        <pt x="41" y="101" on="1"/>
        <pt x="40" y="108" on="0"/>
        <pt x="40" y="114" on="1"/>
        <pt x="40" y="191" on="0"/>
        <pt x="141" y="217" on="1"/>
        <pt x="188" y="227" on="0"/>
        <pt x="277" y="239" on="1"/>
        <pt x="282" y="225" on="1"/>
        <pt x="195" y="219" on="0"/>
        <pt x="130" y="199" on="0"/>
        <pt x="101" y="146" on="0"/>
        <pt x="101" y="120" on="1"/>
        <pt x="101" y="115" on="0"/>
        <pt x="101" y="110" on="1"/>
        <pt x="104" y="58" on="0"/>
        <pt x="160" y="12" on="0"/>
        <pt x="200" y="12" on="1"/>
        <pt x="264" y="12" on="0"/>
        <pt x="341" y="55" on="1"/>
        <pt x="351" y="35" on="1"/>
        <pt x="265" y="-4" on="0"/>
      </contour>
      <contour>
        <pt x="243" y="485" on="1"/>
        <pt x="211" y="485" on="0"/>
        <pt x="173" y="470" on="1"/>
        <pt x="118" y="447" on="0"/>
        <pt x="75" y="412" on="1"/>
        <pt x="71" y="334" on="1"/>
        <pt x="52" y="329" on="1"/>
        <pt x="52" y="450" on="1"/>
        <pt x="62" y="454" on="1"/>
        <pt x="140" y="488" on="0"/>
        <pt x="181" y="495" on="1"/>
        <pt x="229" y="503" on="0"/>
        <pt x="253" y="503" on="1"/>
        <pt x="337" y="503" on="0"/>
        <pt x="384" y="459" on="1"/>
        <pt x="343" y="421" on="1"/>
        <pt x="317" y="485" on="0"/>
      </contour>
      <contour>
        <pt x="325" y="230" on="1"/>
        <pt x="325" y="14" on="0"/>
        <pt x="493" y="14" on="1"/>
        <pt x="538" y="14" on="0"/>
        <pt x="637" y="33" on="0"/>
        <pt x="651" y="41" on="1"/>
        <pt x="658" y="31" on="1"/>
        <pt x="635" y="16" on="0"/>
        <pt x="530" y="-4" on="0"/>
        <pt x="443" y="-4" on="0"/>
        <pt x="374" y="14" on="0"/>
        <pt x="302" y="60" on="0"/>
        <pt x="260" y="158" on="0"/>
        <pt x="260" y="229" on="1"/>
        <pt x="260" y="361" on="0"/>
        <pt x="328" y="431" on="1"/>
        <pt x="399" y="504" on="0"/>
        <pt x="587" y="504" on="0"/>
        <pt x="686" y="400" on="0"/>
        <pt x="686" y="306" on="1"/>
        <pt x="686" y="286" on="0"/>
        <pt x="683" y="263" on="1"/>
        <pt x="326" y="263" on="1"/>
        <pt x="325" y="252" on="0"/>
      </contour>
      <contour>
        <pt x="627" y="313" on="1"/>
        <pt x="627" y="388" on="0"/>
        <pt x="561" y="483" on="0"/>
        <pt x="504" y="483" on="1"/>
        <pt x="430" y="483" on="0"/>
        <pt x="378" y="418" on="1"/>
        <pt x="338" y="367" on="0"/>
        <pt x="328" y="282" on="1"/>
        <pt x="626" y="282" on="1"/>
        <pt x="627" y="293" on="0"/>
      </contour>
    </TTGlyph>
    <TTGlyph name="agrave" xMin="40" yMin="-5" xMax="499" yMax="750">
      <contour>
        <pt x="360" y="38" on="1"/>
        <pt x="357" y="38" on="1"/>
        <pt x="267" y="-4" on="0"/>
        <pt x="182" y="-4" on="1"/>
        <pt x="49" y="-4" on="0"/>
        <pt x="41" y="101" on="1"/>
        <pt x="40" y="108" on="0"/>
        <pt x="40" y="114" on="1"/>
        <pt x="40" y="191" on="0"/>
        <pt x="141" y="217" on="1"/>
        <pt x="201" y="230" on="0"/>
        <pt x="357" y="248" on="1"/>
        <pt x="357" y="336" on="1"/>
        <pt x="357" y="378" on="0"/>
        <pt x="337" y="438" on="0"/>
        <pt x="313" y="467" on="0"/>
        <pt x="294" y="475" on="1"/>
        <pt x="270" y="485" on="0"/>
        <pt x="211" y="485" on="0"/>
        <pt x="173" y="470" on="1"/>
        <pt x="118" y="447" on="0"/>
        <pt x="75" y="412" on="1"/>
        <pt x="71" y="334" on="1"/>
        <pt x="52" y="329" on="1"/>
        <pt x="52" y="450" on="1"/>
        <pt x="62" y="454" on="1"/>
        <pt x="140" y="488" on="0"/>
        <pt x="222" y="502" on="0"/>
        <pt x="260" y="503" on="0"/>
        <pt x="295" y="501" on="0"/>
        <pt x="351" y="485" on="0"/>
        <pt x="392" y="456" on="0"/>
        <pt x="422" y="398" on="0"/>
        <pt x="422" y="358" on="1"/>
        <pt x="422" y="52" on="1"/>
        <pt x="422" y="21" on="0"/>
        <pt x="438" y="21" on="1"/>
        <pt x="499" y="18" on="1"/>
        <pt x="498" y="3" on="1"/>
        <pt x="442" y="-5" on="0"/>
        <pt x="398" y="-5" on="1"/>
        <pt x="386" y="-4" on="0"/>
        <pt x="360" y="19" on="0"/>
      </contour>
      <contour>
        <pt x="200" y="12" on="1"/>
        <pt x="274" y="12" on="0"/>
        <pt x="357" y="64" on="1"/>
        <pt x="357" y="229" on="1"/>
        <pt x="207" y="224" on="0"/>
        <pt x="130" y="199" on="0"/>
        <pt x="101" y="146" on="0"/>
        <pt x="101" y="120" on="1"/>
        <pt x="101" y="115" on="0"/>
        <pt x="101" y="110" on="1"/>
        <pt x="104" y="58" on="0"/>
        <pt x="160" y="12" on="0"/>
      </contour>
      <contour>
        <pt x="246" y="603" on="1"/>
        <pt x="230" y="595" on="1"/>
        <pt x="112" y="743" on="1"/>
        <pt x="142" y="750" on="1"/>
      </contour>
    </TTGlyph>
    <TTGlyph name="ampersand" xMin="71" yMin="-4" xMax="818" yMax="749">
      <contour>
        <pt x="817" y="353" on="1"/>
        <pt x="817" y="352" on="0"/>
        <pt x="818" y="338" on="1"/>
        <pt x="744" y="332" on="1"/>
        <pt x="711" y="204" on="0"/>
        <pt x="640" y="123" on="1"/>
        <pt x="686" y="82" on="0"/>
        <pt x="760" y="19" on="1"/>
        <pt x="808" y="15" on="1"/>
        <pt x="808" y="14" on="0"/>
        <pt x="807" y="0" on="1"/>
        <pt x="720" y="-1" on="1"/>
        <pt x="698" y="-1" on="1"/>
        <pt x="600" y="84" on="1"/>
        <pt x="496" y="-4" on="0"/>
        <pt x="338" y="-4" on="1"/>
        <pt x="71" y="-4" on="0"/>
        <pt x="71" y="229" on="1"/>
        <pt x="71" y="329" on="0"/>
        <pt x="170" y="444" on="0"/>
        <pt x="254" y="461" on="1"/>
        <pt x="199" y="545" on="0"/>
        <pt x="199" y="653" on="0"/>
        <pt x="287" y="749" on="0"/>
        <pt x="375" y="749" on="1"/>
        <pt x="422" y="749" on="0"/>
        <pt x="472" y="730" on="0"/>
        <pt x="500" y="718" on="0"/>
        <pt x="526" y="700" on="0"/>
        <pt x="534" y="695" on="1"/>
        <pt x="550" y="684" on="0"/>
        <pt x="560" y="674" on="1"/>
        <pt x="552" y="664" on="1"/>
        <pt x="468" y="734" on="0"/>
        <pt x="388" y="734" on="1"/>
        <pt x="350" y="734" on="0"/>
        <pt x="297" y="703" on="0"/>
        <pt x="285" y="680" on="1"/>
        <pt x="264" y="638" on="0"/>
        <pt x="264" y="602" on="1"/>
        <pt x="264" y="468" on="0"/>
        <pt x="609" y="151" on="1"/>
        <pt x="660" y="224" on="0"/>
        <pt x="682" y="318" on="1"/>
        <pt x="682" y="330" on="0"/>
        <pt x="670" y="332" on="1"/>
        <pt x="608" y="337" on="1"/>
        <pt x="607" y="343" on="0"/>
        <pt x="607" y="352" on="1"/>
      </contour>
      <contour>
        <pt x="345" y="11" on="1"/>
        <pt x="483" y="11" on="0"/>
        <pt x="575" y="108" on="1"/>
        <pt x="356" y="309" on="0"/>
        <pt x="263" y="446" on="1"/>
        <pt x="202" y="429" on="0"/>
        <pt x="136" y="319" on="0"/>
        <pt x="136" y="129" on="0"/>
        <pt x="236" y="11" on="0"/>
      </contour>
    </TTGlyph>
    <TTGlyph name="aring" xMin="40" yMin="-5" xMax="499" yMax="744">
      <contour>
        <pt x="360" y="38" on="1"/>
        <pt x="357" y="38" on="1"/>
        <pt x="267" y="-4" on="0"/>
        <pt x="182" y="-4" on="1"/>
        <pt x="49" y="-4" on="0"/>
        <pt x="41" y="101" on="1"/>
        <pt x="40" y="108" on="0"/>
        <pt x="40" y="114" on="1"/>
        <pt x="40" y="191" on="0"/>
        <pt x="141" y="217" on="1"/>
        <pt x="201" y="230" on="0"/>
        <pt x="357" y="248" on="1"/>
        <pt x="357" y="336" on="1"/>
        <pt x="357" y="378" on="0"/>
        <pt x="337" y="438" on="0"/>
        <pt x="313" y="467" on="0"/>
        <pt x="294" y="475" on="1"/>
        <pt x="270" y="485" on="0"/>
        <pt x="211" y="485" on="0"/>
        <pt x="173" y="470" on="1"/>
        <pt x="118" y="447" on="0"/>
        <pt x="75" y="412" on="1"/>
        <pt x="71" y="334" on="1"/>
        <pt x="52" y="329" on="1"/>
        <pt x="52" y="450" on="1"/>
        <pt x="62" y="454" on="1"/>
        <pt x="140" y="488" on="0"/>
        <pt x="222" y="502" on="0"/>
        <pt x="260" y="503" on="0"/>
        <pt x="295" y="501" on="0"/>
        <pt x="351" y="485" on="0"/>
        <pt x="392" y="456" on="0"/>
        <pt x="422" y="398" on="0"/>
        <pt x="422" y="358" on="1"/>
        <pt x="422" y="52" on="1"/>
        <pt x="422" y="21" on="0"/>
        <pt x="438" y="21" on="1"/>
        <pt x="499" y="18" on="1"/>
        <pt x="498" y="3" on="1"/>
        <pt x="442" y="-5" on="0"/>
        <pt x="398" y="-5" on="1"/>
        <pt x="386" y="-4" on="0"/>
        <pt x="360" y="19" on="0"/>
      </contour>
      <contour>
        <pt x="200" y="12" on="1"/>
        <pt x="274" y="12" on="0"/>
        <pt x="357" y="64" on="1"/>
        <pt x="357" y="229" on="1"/>
        <pt x="207" y="224" on="0"/>
        <pt x="130" y="199" on="0"/>
        <pt x="101" y="146" on="0"/>
        <pt x="101" y="120" on="1"/>
        <pt x="101" y="115" on="0"/>
        <pt x="101" y="110" on="1"/>
        <pt x="104" y="58" on="0"/>
        <pt x="160" y="12" on="0"/>
      </contour>
      <contour>
        <pt x="222" y="585" on="0"/>
        <pt x="175" y="623" on="0"/>
        <pt x="175" y="697" on="0"/>
        <pt x="225" y="744" on="0"/>
        <pt x="259" y="744" on="1"/>
        <pt x="344" y="744" on="0"/>
        <pt x="344" y="664" on="1"/>
        <pt x="344" y="631" on="0"/>
        <pt x="295" y="585" on="0"/>
      </contour>
      <contour>
        <pt x="239" y="736" on="0"/>
        <pt x="210" y="693" on="0"/>
        <pt x="210" y="629" on="0"/>
        <pt x="237" y="593" on="0"/>
        <pt x="280" y="593" on="0"/>
        <pt x="309" y="635" on="0"/>
        <pt x="309" y="699" on="0"/>
        <pt x="281" y="736" on="0"/>
      </contour>
    </TTGlyph>
    <TTGlyph name="asciicircum" xMin="136" yMin="300" xMax="406" yMax="463">
      <contour>
        <pt x="406" y="305" on="1"/>
        <pt x="374" y="300" on="1"/>
        <pt x="366" y="311" on="0"/>
        <pt x="282" y="413" on="0"/>
        <pt x="270" y="429" on="1"/>
        <pt x="260" y="416" on="0"/>
        <pt x="236" y="386" on="1"/>
        <pt x="180" y="318" on="0"/>
        <pt x="168" y="300" on="1"/>
        <pt x="136" y="305" on="1"/>
        <pt x="147" y="319" on="0"/>
        <pt x="259" y="449" on="0"/>
        <pt x="270" y="463" on="1"/>
        <pt x="281" y="449" on="0"/>
        <pt x="395" y="319" on="0"/>
      </contour>
    </TTGlyph>
    <TTGlyph name="asciitilde" xMin="122" yMin="308" xMax="489" yMax="386">
      <contour>
        <pt x="205" y="380" on="1"/>
        <pt x="229" y="380" on="0"/>
        <pt x="388" y="346" on="0"/>
        <pt x="447" y="346" on="0"/>
        <pt x="467" y="364" on="0"/>
        <pt x="473" y="386" on="1"/>
        <pt x="489" y="382" on="1"/>
        <pt x="480" y="341" on="0"/>
        <pt x="443" y="308" on="0"/>
        <pt x="392" y="308" on="0"/>
        <pt x="308" y="328" on="1"/>
        <pt x="237" y="343" on="0"/>
        <pt x="200" y="343" on="1"/>
        <pt x="145" y="343" on="0"/>
        <pt x="136" y="308" on="1"/>
        <pt x="122" y="312" on="1"/>
        <pt x="134" y="380" on="0"/>
      </contour>
    </TTGlyph>
    <TTGlyph name="asterisk" xMin="148" yMin="454" xMax="443" yMax="736">
      <contour>
        <pt x="274" y="736" on="1"/>
        <pt x="322" y="735" on="1"/>
        <pt x="322" y="688" on="0"/>
        <pt x="314" y="613" on="1"/>
        <pt x="427" y="656" on="1"/>
        <pt x="443" y="609" on="1"/>
        <pt x="397" y="593" on="0"/>
        <pt x="325" y="578" on="1"/>
        <pt x="400" y="483" on="1"/>
        <pt x="361" y="454" on="1"/>
        <pt x="332" y="492" on="0"/>
        <pt x="293" y="559" on="1"/>
        <pt x="239" y="480" on="0"/>
        <pt x="225" y="457" on="1"/>
        <pt x="186" y="485" on="1"/>
        <pt x="193" y="494" on="0"/>
        <pt x="264" y="581" on="1"/>
        <pt x="148" y="613" on="1"/>
        <pt x="162" y="660" on="1"/>
        <pt x="220" y="640" on="0"/>
        <pt x="278" y="613" on="1"/>
        <pt x="275" y="726" on="0"/>
      </contour>
    </TTGlyph>
    <TTGlyph name="at" xMin="85" yMin="-215" xMax="973" yMax="715">
      <contour>
        <pt x="523" y="-215" on="1"/>
        <pt x="288" y="-215" on="0"/>
        <pt x="170" y="-61" on="1"/>
        <pt x="85" y="50" on="0"/>
        <pt x="85" y="445" on="0"/>
        <pt x="344" y="715" on="0"/>
        <pt x="536" y="715" on="1"/>
        <pt x="721" y="715" on="0"/>
        <pt x="844" y="606" on="1"/>
        <pt x="904" y="553" on="0"/>
        <pt x="973" y="378" on="0"/>
        <pt x="973" y="190" on="0"/>
        <pt x="930" y="69" on="0"/>
        <pt x="896" y="34" on="1"/>
        <pt x="828" y="-39" on="0"/>
        <pt x="750" y="-39" on="1"/>
        <pt x="711" y="-39" on="0"/>
        <pt x="659" y="2" on="0"/>
        <pt x="655" y="38" on="1"/>
        <pt x="567" y="-4" on="0"/>
        <pt x="480" y="-4" on="1"/>
        <pt x="347" y="-4" on="0"/>
        <pt x="339" y="101" on="1"/>
        <pt x="338" y="108" on="0"/>
        <pt x="338" y="114" on="1"/>
        <pt x="338" y="191" on="0"/>
        <pt x="439" y="217" on="1"/>
        <pt x="499" y="230" on="0"/>
        <pt x="655" y="248" on="1"/>
        <pt x="655" y="336" on="1"/>
        <pt x="655" y="378" on="0"/>
        <pt x="635" y="438" on="0"/>
        <pt x="611" y="467" on="0"/>
        <pt x="592" y="475" on="1"/>
        <pt x="568" y="485" on="0"/>
        <pt x="509" y="485" on="0"/>
        <pt x="471" y="470" on="1"/>
        <pt x="416" y="447" on="0"/>
        <pt x="373" y="412" on="1"/>
        <pt x="369" y="334" on="1"/>
        <pt x="350" y="329" on="1"/>
        <pt x="350" y="450" on="1"/>
        <pt x="360" y="454" on="1"/>
        <pt x="438" y="488" on="0"/>
        <pt x="520" y="502" on="0"/>
        <pt x="558" y="503" on="0"/>
        <pt x="593" y="501" on="0"/>
        <pt x="649" y="485" on="0"/>
        <pt x="690" y="456" on="0"/>
        <pt x="720" y="398" on="0"/>
        <pt x="720" y="358" on="1"/>
        <pt x="720" y="45" on="1"/>
        <pt x="723" y="16" on="0"/>
        <pt x="758" y="16" on="1"/>
        <pt x="809" y="16" on="0"/>
        <pt x="908" y="143" on="0"/>
        <pt x="908" y="371" on="0"/>
        <pt x="848" y="545" on="0"/>
        <pt x="796" y="596" on="1"/>
        <pt x="692" y="697" on="0"/>
        <pt x="369" y="697" on="0"/>
        <pt x="150" y="430" on="0"/>
        <pt x="150" y="233" on="1"/>
        <pt x="150" y="120" on="0"/>
        <pt x="209" y="-48" on="0"/>
        <pt x="262" y="-98" on="1"/>
        <pt x="365" y="-197" on="0"/>
        <pt x="530" y="-197" on="1"/>
        <pt x="630" y="-197" on="0"/>
        <pt x="696" y="-165" on="1"/>
        <pt x="704" y="-175" on="1"/>
        <pt x="633" y="-215" on="0"/>
      </contour>
      <contour>
        <pt x="498" y="12" on="1"/>
        <pt x="572" y="12" on="0"/>
        <pt x="655" y="64" on="1"/>
        <pt x="655" y="229" on="1"/>
        <pt x="505" y="224" on="0"/>
        <pt x="428" y="199" on="0"/>
        <pt x="399" y="146" on="0"/>
        <pt x="399" y="120" on="1"/>
        <pt x="399" y="115" on="0"/>
        <pt x="399" y="110" on="1"/>
        <pt x="402" y="58" on="0"/>
        <pt x="458" y="12" on="0"/>
      </contour>
    </TTGlyph>
    <TTGlyph name="atilde" xMin="40" yMin="-5" xMax="499" yMax="660">
      <contour>
        <pt x="360" y="38" on="1"/>
        <pt x="357" y="38" on="1"/>
        <pt x="267" y="-4" on="0"/>
        <pt x="182" y="-4" on="1"/>
        <pt x="49" y="-4" on="0"/>
        <pt x="41" y="101" on="1"/>
        <pt x="40" y="108" on="0"/>
        <pt x="40" y="114" on="1"/>
        <pt x="40" y="191" on="0"/>
        <pt x="141" y="217" on="1"/>
        <pt x="201" y="230" on="0"/>
        <pt x="357" y="248" on="1"/>
        <pt x="357" y="336" on="1"/>
        <pt x="357" y="378" on="0"/>
        <pt x="337" y="438" on="0"/>
        <pt x="313" y="467" on="0"/>
        <pt x="294" y="475" on="1"/>
        <pt x="270" y="485" on="0"/>
        <pt x="211" y="485" on="0"/>
        <pt x="173" y="470" on="1"/>
        <pt x="118" y="447" on="0"/>
        <pt x="75" y="412" on="1"/>
        <pt x="71" y="334" on="1"/>
        <pt x="52" y="329" on="1"/>
        <pt x="52" y="450" on="1"/>
        <pt x="62" y="454" on="1"/>
        <pt x="140" y="488" on="0"/>
        <pt x="222" y="502" on="0"/>
        <pt x="260" y="503" on="0"/>
        <pt x="295" y="501" on="0"/>
        <pt x="351" y="485" on="0"/>
        <pt x="392" y="456" on="0"/>
        <pt x="422" y="398" on="0"/>
        <pt x="422" y="358" on="1"/>
        <pt x="422" y="52" on="1"/>
        <pt x="422" y="21" on="0"/>
        <pt x="438" y="21" on="1"/>
        <pt x="499" y="18" on="1"/>
        <pt x="498" y="3" on="1"/>
        <pt x="442" y="-5" on="0"/>
        <pt x="398" y="-5" on="1"/>
        <pt x="386" y="-4" on="0"/>
        <pt x="360" y="19" on="0"/>
      </contour>
      <contour>
        <pt x="200" y="12" on="1"/>
        <pt x="274" y="12" on="0"/>
        <pt x="357" y="64" on="1"/>
        <pt x="357" y="229" on="1"/>
        <pt x="207" y="224" on="0"/>
        <pt x="130" y="199" on="0"/>
        <pt x="101" y="146" on="0"/>
        <pt x="101" y="120" on="1"/>
        <pt x="101" y="115" on="0"/>
        <pt x="101" y="110" on="1"/>
        <pt x="104" y="58" on="0"/>
        <pt x="160" y="12" on="0"/>
      </contour>
      <contour>
        <pt x="139" y="654" on="1"/>
        <pt x="162" y="654" on="0"/>
        <pt x="322" y="620" on="0"/>
        <pt x="381" y="620" on="0"/>
        <pt x="401" y="638" on="0"/>
        <pt x="407" y="660" on="1"/>
        <pt x="423" y="656" on="1"/>
        <pt x="414" y="615" on="0"/>
        <pt x="377" y="582" on="0"/>
        <pt x="326" y="582" on="0"/>
        <pt x="172" y="617" on="0"/>
        <pt x="134" y="617" on="1"/>
        <pt x="79" y="617" on="0"/>
        <pt x="70" y="582" on="1"/>
        <pt x="56" y="586" on="1"/>
        <pt x="68" y="654" on="0"/>
      </contour>
    </TTGlyph>
    <TTGlyph name="b" xMin="50" yMin="0" xMax="515" yMax="750">
      <contour>
        <pt x="182" y="709" on="1"/>
        <pt x="182" y="460" on="1"/>
        <pt x="242" y="509" on="0"/>
        <pt x="316" y="509" on="1"/>
        <pt x="384" y="509" on="0"/>
        <pt x="444" y="467" on="1"/>
        <pt x="476" y="444" on="0"/>
        <pt x="515" y="346" on="0"/>
        <pt x="515" y="276" on="1"/>
        <pt x="515" y="143" on="0"/>
        <pt x="449" y="76" on="1"/>
        <pt x="374" y="0" on="0"/>
        <pt x="259" y="0" on="1"/>
        <pt x="216" y="0" on="0"/>
        <pt x="131" y="14" on="0"/>
        <pt x="117" y="23" on="1"/>
        <pt x="117" y="717" on="1"/>
        <pt x="115" y="725" on="0"/>
        <pt x="111" y="725" on="1"/>
        <pt x="50" y="727" on="1"/>
        <pt x="51" y="741" on="1"/>
        <pt x="114" y="750" on="0"/>
        <pt x="161" y="750" on="0"/>
        <pt x="182" y="724" on="0"/>
      </contour>
      <contour>
        <pt x="182" y="441" on="1"/>
        <pt x="182" y="18" on="1"/>
        <pt x="209" y="9" on="0"/>
        <pt x="245" y="9" on="1"/>
        <pt x="343" y="9" on="0"/>
        <pt x="450" y="147" on="0"/>
        <pt x="450" y="271" on="1"/>
        <pt x="450" y="407" on="0"/>
        <pt x="396" y="454" on="1"/>
        <pt x="354" y="491" on="0"/>
        <pt x="244" y="491" on="0"/>
      </contour>
    </TTGlyph>
    <TTGlyph name="backslash" xMin="107" yMin="-200" xMax="495" yMax="749">
      <contour>
        <pt x="495" y="-200" on="1"/>
        <pt x="425" y="-200" on="1"/>
        <pt x="107" y="749" on="1"/>
        <pt x="177" y="749" on="1"/>
      </contour>
    </TTGlyph>
    <TTGlyph name="bar" xMin="112" yMin="-200" xMax="172" yMax="749">
      <contour>
        <pt x="112" y="749" on="1"/>
        <pt x="172" y="749" on="1"/>
        <pt x="172" y="-200" on="1"/>
        <pt x="112" y="-200" on="1"/>
      </contour>
    </TTGlyph>
    <TTGlyph name="braceleft" xMin="61" yMin="-250" xMax="353" yMax="749">
      <contour>
        <pt x="61" y="241" on="1"/>
        <pt x="61" y="258" on="1"/>
        <pt x="177" y="258" on="0"/>
        <pt x="177" y="378" on="1"/>
        <pt x="177" y="613" on="1"/>
        <pt x="177" y="657" on="0"/>
        <pt x="194" y="687" on="1"/>
        <pt x="229" y="749" on="0"/>
        <pt x="333" y="749" on="1"/>
        <pt x="343" y="749" on="0"/>
        <pt x="353" y="748" on="1"/>
        <pt x="353" y="731" on="1"/>
        <pt x="350" y="731" on="0"/>
        <pt x="347" y="731" on="1"/>
        <pt x="303" y="731" on="0"/>
        <pt x="237" y="670" on="0"/>
        <pt x="237" y="591" on="1"/>
        <pt x="237" y="381" on="1"/>
        <pt x="237" y="275" on="0"/>
        <pt x="141" y="249" on="1"/>
        <pt x="237" y="225" on="0"/>
        <pt x="237" y="118" on="1"/>
        <pt x="237" y="-92" on="1"/>
        <pt x="237" y="-179" on="0"/>
        <pt x="276" y="-208" on="1"/>
        <pt x="308" y="-232" on="0"/>
        <pt x="346" y="-232" on="1"/>
        <pt x="350" y="-232" on="0"/>
        <pt x="353" y="-232" on="1"/>
        <pt x="353" y="-249" on="1"/>
        <pt x="343" y="-250" on="0"/>
        <pt x="313" y="-250" on="0"/>
        <pt x="268" y="-243" on="0"/>
        <pt x="211" y="-218" on="0"/>
        <pt x="177" y="-158" on="0"/>
        <pt x="177" y="-114" on="1"/>
        <pt x="177" y="96" on="1"/>
        <pt x="177" y="237" on="0"/>
        <pt x="68" y="241" on="1"/>
      </contour>
    </TTGlyph>
    <TTGlyph name="braceright" xMin="61" yMin="-250" xMax="353" yMax="749">
      <contour>
        <pt x="353" y="241" on="1"/>
        <pt x="346" y="241" on="1"/>
        <pt x="237" y="237" on="0"/>
        <pt x="237" y="96" on="1"/>
        <pt x="237" y="-114" on="1"/>
        <pt x="237" y="-158" on="0"/>
        <pt x="220" y="-188" on="1"/>
        <pt x="185" y="-250" on="0"/>
        <pt x="81" y="-250" on="1"/>
        <pt x="71" y="-250" on="0"/>
        <pt x="61" y="-249" on="1"/>
        <pt x="61" y="-232" on="1"/>
        <pt x="64" y="-232" on="0"/>
        <pt x="86" y="-232" on="0"/>
        <pt x="120" y="-222" on="0"/>
        <pt x="138" y="-208" on="1"/>
        <pt x="177" y="-179" on="0"/>
        <pt x="177" y="-92" on="1"/>
        <pt x="177" y="118" on="1"/>
        <pt x="177" y="225" on="0"/>
        <pt x="273" y="249" on="1"/>
        <pt x="177" y="275" on="0"/>
        <pt x="177" y="381" on="1"/>
        <pt x="177" y="591" on="1"/>
        <pt x="177" y="670" on="0"/>
        <pt x="111" y="731" on="0"/>
        <pt x="67" y="731" on="1"/>
        <pt x="64" y="731" on="0"/>
        <pt x="61" y="731" on="1"/>
        <pt x="61" y="748" on="1"/>
        <pt x="71" y="749" on="0"/>
        <pt x="100" y="749" on="0"/>
        <pt x="145" y="742" on="0"/>
        <pt x="203" y="717" on="0"/>
        <pt x="237" y="657" on="0"/>
        <pt x="237" y="613" on="1"/>
        <pt x="237" y="378" on="1"/>
        <pt x="237" y="258" on="0"/>
        <pt x="353" y="258" on="1"/>
      </contour>
    </TTGlyph>
    <TTGlyph name="bracketleft" xMin="107" yMin="-200" xMax="300" yMax="750">
      <contour>
        <pt x="107" y="-200" on="1"/>
        <pt x="107" y="750" on="1"/>
        <pt x="300" y="750" on="1"/>
        <pt x="300" y="732" on="1"/>
        <pt x="172" y="732" on="1"/>
        <pt x="172" y="-182" on="1"/>
        <pt x="300" y="-182" on="1"/>
        <pt x="300" y="-200" on="1"/>
      </contour>
    </TTGlyph>
    <TTGlyph name="bracketright" xMin="107" yMin="-200" xMax="300" yMax="750">
      <contour>
        <pt x="107" y="750" on="1"/>
        <pt x="300" y="750" on="1"/>
        <pt x="300" y="-200" on="1"/>
        <pt x="107" y="-200" on="1"/>
        <pt x="107" y="-182" on="1"/>
        <pt x="235" y="-182" on="1"/>
        <pt x="235" y="732" on="1"/>
        <pt x="107" y="732" on="1"/>
      </contour>
    </TTGlyph>
    <TTGlyph name="breve" xMin="80" yMin="589" xMax="420" yMax="700">
      <contour>
        <pt x="110" y="700" on="1"/>
        <pt x="110" y="686" on="0"/>
        <pt x="128" y="646" on="0"/>
        <pt x="156" y="619" on="0"/>
        <pt x="213" y="598" on="0"/>
        <pt x="251" y="598" on="0"/>
        <pt x="293" y="599" on="0"/>
        <pt x="351" y="620" on="0"/>
        <pt x="364" y="635" on="1"/>
        <pt x="388" y="665" on="0"/>
        <pt x="390" y="690" on="1"/>
        <pt x="390" y="700" on="1"/>
        <pt x="420" y="700" on="1"/>
        <pt x="420" y="661" on="0"/>
        <pt x="386" y="630" on="1"/>
        <pt x="371" y="615" on="0"/>
        <pt x="336" y="603" on="1"/>
        <pt x="298" y="590" on="0"/>
        <pt x="202" y="590" on="0"/>
        <pt x="134" y="611" on="0"/>
        <pt x="118" y="628" on="1"/>
        <pt x="83" y="662" on="0"/>
        <pt x="81" y="688" on="1"/>
        <pt x="80" y="700" on="1"/>
      </contour>
    </TTGlyph>
    <TTGlyph name="brokenbar" xMin="102" yMin="-200" xMax="182" yMax="749">
      <contour>
        <pt x="102" y="200" on="1"/>
        <pt x="182" y="200" on="1"/>
        <pt x="182" y="-200" on="1"/>
        <pt x="102" y="-200" on="1"/>
      </contour>
      <contour>
        <pt x="182" y="400" on="1"/>
        <pt x="102" y="400" on="1"/>
        <pt x="102" y="749" on="1"/>
        <pt x="182" y="749" on="1"/>
      </contour>
    </TTGlyph>
    <TTGlyph name="bullet" xMin="103" yMin="293" xMax="358" yMax="557">
      <contour>
        <pt x="175" y="293" on="0"/>
        <pt x="103" y="361" on="0"/>
        <pt x="103" y="481" on="0"/>
        <pt x="177" y="557" on="0"/>
        <pt x="285" y="557" on="0"/>
        <pt x="358" y="488" on="0"/>
        <pt x="358" y="368" on="0"/>
        <pt x="283" y="293" on="0"/>
      </contour>
    </TTGlyph>
    <TTGlyph name="c" xMin="45" yMin="-4" xMax="443" yMax="506">
      <contour>
        <pt x="300" y="486" on="1"/>
        <pt x="215" y="486" on="0"/>
        <pt x="110" y="353" on="0"/>
        <pt x="110" y="231" on="1"/>
        <pt x="110" y="14" on="0"/>
        <pt x="275" y="14" on="1"/>
        <pt x="340" y="14" on="0"/>
        <pt x="432" y="39" on="0"/>
        <pt x="436" y="42" on="1"/>
        <pt x="443" y="31" on="1"/>
        <pt x="420" y="16" on="0"/>
        <pt x="314" y="-4" on="0"/>
        <pt x="228" y="-4" on="0"/>
        <pt x="158" y="14" on="0"/>
        <pt x="87" y="60" on="0"/>
        <pt x="45" y="159" on="0"/>
        <pt x="45" y="230" on="1"/>
        <pt x="45" y="361" on="0"/>
        <pt x="112" y="428" on="1"/>
        <pt x="187" y="505" on="0"/>
        <pt x="301" y="505" on="1"/>
        <pt x="337" y="505" on="0"/>
        <pt x="418" y="486" on="0"/>
        <pt x="440" y="466" on="1"/>
        <pt x="440" y="335" on="1"/>
        <pt x="421" y="328" on="1"/>
        <pt x="416" y="433" on="1"/>
        <pt x="394" y="456" on="0"/>
        <pt x="331" y="486" on="0"/>
      </contour>
    </TTGlyph>
    <TTGlyph name="ccedilla" xMin="45" yMin="-139" xMax="443" yMax="506">
      <contour>
        <pt x="300" y="486" on="1"/>
        <pt x="215" y="486" on="0"/>
        <pt x="110" y="353" on="0"/>
        <pt x="110" y="231" on="1"/>
        <pt x="110" y="14" on="0"/>
        <pt x="275" y="14" on="1"/>
        <pt x="340" y="14" on="0"/>
        <pt x="432" y="39" on="0"/>
        <pt x="436" y="42" on="1"/>
        <pt x="443" y="31" on="1"/>
        <pt x="420" y="16" on="0"/>
        <pt x="314" y="-4" on="0"/>
        <pt x="228" y="-4" on="0"/>
        <pt x="158" y="14" on="0"/>
        <pt x="87" y="60" on="0"/>
        <pt x="45" y="159" on="0"/>
        <pt x="45" y="230" on="1"/>
        <pt x="45" y="361" on="0"/>
        <pt x="112" y="428" on="1"/>
        <pt x="187" y="505" on="0"/>
        <pt x="301" y="505" on="1"/>
        <pt x="337" y="505" on="0"/>
        <pt x="418" y="486" on="0"/>
        <pt x="440" y="466" on="1"/>
        <pt x="440" y="335" on="1"/>
        <pt x="421" y="328" on="1"/>
        <pt x="416" y="433" on="1"/>
        <pt x="394" y="456" on="0"/>
        <pt x="331" y="486" on="0"/>
      </contour>
      <contour>
        <pt x="202" y="-118" on="1"/>
        <pt x="277" y="-92" on="0"/>
        <pt x="277" y="-46" on="1"/>
        <pt x="277" y="-21" on="0"/>
        <pt x="270" y="0" on="1"/>
        <pt x="305" y="6" on="1"/>
        <pt x="313" y="-15" on="0"/>
        <pt x="313" y="-32" on="1"/>
        <pt x="313" y="-70" on="0"/>
        <pt x="254" y="-129" on="0"/>
        <pt x="212" y="-139" on="1"/>
      </contour>
    </TTGlyph>
    <TTGlyph name="cedilla" xMin="58" yMin="-139" xMax="169" yMax="6">
      <contour>
        <pt x="58" y="-118" on="1"/>
        <pt x="133" y="-92" on="0"/>
        <pt x="133" y="-46" on="1"/>
        <pt x="133" y="-21" on="0"/>
        <pt x="126" y="0" on="1"/>
        <pt x="161" y="6" on="1"/>
        <pt x="169" y="-15" on="0"/>
        <pt x="169" y="-32" on="1"/>
        <pt x="169" y="-70" on="0"/>
        <pt x="110" y="-129" on="0"/>
        <pt x="68" y="-139" on="1"/>
      </contour>
    </TTGlyph>
    <TTGlyph name="cent" xMin="45" yMin="-100" xMax="443" yMax="600">
      <contour>
        <pt x="300" y="486" on="1"/>
        <pt x="289" y="486" on="1"/>
        <pt x="289" y="14" on="1"/>
        <pt x="350" y="16" on="0"/>
        <pt x="432" y="39" on="0"/>
        <pt x="436" y="42" on="1"/>
        <pt x="443" y="31" on="1"/>
        <pt x="397" y="3" on="0"/>
        <pt x="289" y="-3" on="1"/>
        <pt x="289" y="-100" on="1"/>
        <pt x="259" y="-100" on="1"/>
        <pt x="259" y="-4" on="1"/>
        <pt x="177" y="-2" on="0"/>
        <pt x="118" y="40" on="1"/>
        <pt x="84" y="64" on="0"/>
        <pt x="45" y="161" on="0"/>
        <pt x="45" y="230" on="1"/>
        <pt x="45" y="356" on="0"/>
        <pt x="167" y="489" on="0"/>
        <pt x="259" y="502" on="1"/>
        <pt x="259" y="600" on="1"/>
        <pt x="289" y="600" on="1"/>
        <pt x="289" y="505" on="1"/>
        <pt x="296" y="505" on="0"/>
        <pt x="342" y="505" on="0"/>
        <pt x="420" y="485" on="0"/>
        <pt x="440" y="466" on="1"/>
        <pt x="440" y="335" on="1"/>
        <pt x="421" y="328" on="1"/>
        <pt x="416" y="433" on="1"/>
        <pt x="394" y="456" on="0"/>
        <pt x="331" y="486" on="0"/>
      </contour>
      <contour>
        <pt x="110" y="231" on="1"/>
        <pt x="110" y="25" on="0"/>
        <pt x="259" y="14" on="1"/>
        <pt x="259" y="481" on="1"/>
        <pt x="191" y="466" on="0"/>
        <pt x="110" y="337" on="0"/>
      </contour>
    </TTGlyph>
    <TTGlyph name="circumflex" xMin="101" yMin="571" xMax="449" yMax="761">
      <contour>
        <pt x="101" y="585" on="1"/>
        <pt x="283" y="761" on="1"/>
        <pt x="441" y="607" on="0"/>
        <pt x="449" y="600" on="1"/>
        <pt x="416" y="571" on="1"/>
        <pt x="266" y="719" on="1"/>
        <pt x="119" y="571" on="1"/>
      </contour>
    </TTGlyph>
    <TTGlyph name="colon" xMin="79" yMin="-8" xMax="149" yMax="473">
      <contour>
        <pt x="79" y="29" on="1"/>
        <pt x="79" y="48" on="0"/>
        <pt x="98" y="70" on="0"/>
        <pt x="114" y="70" on="1"/>
        <pt x="149" y="70" on="0"/>
        <pt x="149" y="29" on="1"/>
        <pt x="149" y="12" on="0"/>
        <pt x="129" y="-8" on="0"/>
        <pt x="114" y="-8" on="1"/>
        <pt x="79" y="-8" on="0"/>
      </contour>
      <contour>
        <pt x="79" y="432" on="1"/>
        <pt x="79" y="451" on="0"/>
        <pt x="98" y="473" on="0"/>
        <pt x="114" y="473" on="1"/>
        <pt x="149" y="473" on="0"/>
        <pt x="149" y="432" on="1"/>
        <pt x="149" y="415" on="0"/>
        <pt x="129" y="395" on="0"/>
        <pt x="114" y="395" on="1"/>
        <pt x="79" y="395" on="0"/>
      </contour>
    </TTGlyph>
    <TTGlyph name="comma" xMin="13" yMin="-103" xMax="87" yMax="65">
      <contour>
        <pt x="33" y="65" on="1"/>
        <pt x="33" y="65" on="0"/>
        <pt x="87" y="64" on="1"/>
        <pt x="87" y="29" on="0"/>
        <pt x="64" y="-30" on="1"/>
        <pt x="56" y="-51" on="0"/>
        <pt x="35" y="-91" on="0"/>
        <pt x="29" y="-103" on="1"/>
        <pt x="13" y="-101" on="1"/>
        <pt x="18" y="-67" on="1"/>
        <pt x="33" y="24" on="0"/>
        <pt x="33" y="62" on="0"/>
      </contour>
    </TTGlyph>
    <TTGlyph name="copyright" xMin="85" yMin="-5" xMax="703" yMax="625">
      <contour>
        <pt x="259" y="-5" on="0"/>
        <pt x="85" y="157" on="0"/>
        <pt x="85" y="449" on="0"/>
        <pt x="263" y="625" on="0"/>
        <pt x="529" y="625" on="0"/>
        <pt x="703" y="462" on="0"/>
        <pt x="703" y="171" on="0"/>
        <pt x="525" y="-5" on="0"/>
      </contour>
      <contour>
        <pt x="278" y="607" on="0"/>
        <pt x="115" y="436" on="0"/>
        <pt x="115" y="177" on="0"/>
        <pt x="275" y="13" on="0"/>
        <pt x="510" y="13" on="0"/>
        <pt x="673" y="184" on="0"/>
        <pt x="673" y="443" on="0"/>
        <pt x="513" y="607" on="0"/>
      </contour>
      <contour>
        <pt x="387" y="498" on="1"/>
        <pt x="325" y="498" on="0"/>
        <pt x="253" y="396" on="0"/>
        <pt x="253" y="299" on="1"/>
        <pt x="253" y="130" on="0"/>
        <pt x="368" y="130" on="1"/>
        <pt x="416" y="130" on="0"/>
        <pt x="481" y="143" on="1"/>
        <pt x="483" y="135" on="1"/>
        <pt x="435" y="122" on="0"/>
        <pt x="364" y="122" on="1"/>
        <pt x="216" y="122" on="0"/>
        <pt x="216" y="299" on="1"/>
        <pt x="216" y="396" on="0"/>
        <pt x="260" y="450" on="1"/>
        <pt x="307" y="506" on="0"/>
        <pt x="385" y="506" on="1"/>
        <pt x="411" y="506" on="0"/>
        <pt x="470" y="496" on="0"/>
        <pt x="480" y="492" on="1"/>
        <pt x="487" y="414" on="1"/>
        <pt x="477" y="410" on="1"/>
        <pt x="470" y="468" on="1"/>
        <pt x="426" y="498" on="0"/>
      </contour>
    </TTGlyph>
    <TTGlyph name="currency" xMin="89" yMin="236" xMax="515" yMax="663">
      <contour>
        <pt x="134" y="324" on="1"/>
        <pt x="100" y="372" on="0"/>
        <pt x="100" y="520" on="0"/>
        <pt x="138" y="571" on="1"/>
        <pt x="90" y="620" on="1"/>
        <pt x="131" y="661" on="1"/>
        <pt x="180" y="613" on="1"/>
        <pt x="231" y="650" on="0"/>
        <pt x="374" y="650" on="0"/>
        <pt x="425" y="615" on="1"/>
        <pt x="473" y="663" on="1"/>
        <pt x="515" y="621" on="1"/>
        <pt x="466" y="572" on="1"/>
        <pt x="500" y="522" on="0"/>
        <pt x="500" y="381" on="0"/>
        <pt x="462" y="329" on="1"/>
        <pt x="515" y="277" on="1"/>
        <pt x="474" y="236" on="1"/>
        <pt x="421" y="289" on="1"/>
        <pt x="368" y="250" on="0"/>
        <pt x="226" y="250" on="0"/>
        <pt x="177" y="283" on="1"/>
        <pt x="131" y="237" on="1"/>
        <pt x="89" y="279" on="1"/>
      </contour>
      <contour>
        <pt x="243" y="632" on="0"/>
        <pt x="160" y="524" on="0"/>
        <pt x="160" y="367" on="0"/>
        <pt x="240" y="268" on="0"/>
        <pt x="357" y="268" on="0"/>
        <pt x="440" y="376" on="0"/>
        <pt x="440" y="533" on="0"/>
        <pt x="360" y="632" on="0"/>
      </contour>
    </TTGlyph>
    <TTGlyph name="d" xMin="45" yMin="-5" xMax="529" yMax="750">
      <contour>
        <pt x="453" y="709" on="1"/>
        <pt x="453" y="52" on="1"/>
        <pt x="453" y="21" on="0"/>
        <pt x="469" y="21" on="1"/>
        <pt x="529" y="18" on="1"/>
        <pt x="528" y="3" on="1"/>
        <pt x="480" y="-5" on="0"/>
        <pt x="428" y="-5" on="1"/>
        <pt x="417" y="-4" on="0"/>
        <pt x="392" y="16" on="0"/>
        <pt x="390" y="32" on="1"/>
        <pt x="333" y="-4" on="0"/>
        <pt x="258" y="-4" on="1"/>
        <pt x="185" y="-4" on="0"/>
        <pt x="123" y="37" on="1"/>
        <pt x="88" y="60" on="0"/>
        <pt x="45" y="159" on="0"/>
        <pt x="45" y="230" on="1"/>
        <pt x="45" y="361" on="0"/>
        <pt x="112" y="430" on="1"/>
        <pt x="183" y="504" on="0"/>
        <pt x="274" y="504" on="1"/>
        <pt x="330" y="504" on="0"/>
        <pt x="388" y="475" on="1"/>
        <pt x="388" y="714" on="1"/>
        <pt x="388" y="725" on="0"/>
        <pt x="382" y="725" on="1"/>
        <pt x="321" y="727" on="1"/>
        <pt x="322" y="741" on="1"/>
        <pt x="385" y="750" on="0"/>
        <pt x="432" y="750" on="0"/>
        <pt x="453" y="724" on="0"/>
      </contour>
      <contour>
        <pt x="271" y="14" on="1"/>
        <pt x="332" y="14" on="0"/>
        <pt x="388" y="41" on="1"/>
        <pt x="388" y="459" on="1"/>
        <pt x="344" y="486" on="0"/>
        <pt x="301" y="486" on="1"/>
        <pt x="215" y="486" on="0"/>
        <pt x="110" y="354" on="0"/>
        <pt x="110" y="231" on="1"/>
        <pt x="110" y="14" on="0"/>
      </contour>
    </TTGlyph>
    <TTGlyph name="degree" xMin="90" yMin="513" xMax="287" yMax="710">
      <contour>
        <pt x="145" y="513" on="0"/>
        <pt x="90" y="563" on="0"/>
        <pt x="90" y="654" on="0"/>
        <pt x="147" y="710" on="0"/>
        <pt x="232" y="710" on="0"/>
        <pt x="287" y="660" on="0"/>
        <pt x="287" y="568" on="0"/>
        <pt x="230" y="513" on="0"/>
      </contour>
      <contour>
        <pt x="160" y="682" on="0"/>
        <pt x="120" y="640" on="0"/>
        <pt x="120" y="578" on="0"/>
        <pt x="158" y="541" on="0"/>
        <pt x="217" y="541" on="0"/>
        <pt x="257" y="582" on="0"/>
        <pt x="257" y="644" on="0"/>
        <pt x="218" y="682" on="0"/>
      </contour>
    </TTGlyph>
    <TTGlyph name="dieresis" xMin="109" yMin="570" xMax="402" yMax="650">
      <contour>
        <pt x="130" y="570" on="0"/>
        <pt x="109" y="593" on="0"/>
        <pt x="109" y="629" on="0"/>
        <pt x="130" y="650" on="0"/>
        <pt x="165" y="650" on="0"/>
        <pt x="186" y="629" on="0"/>
        <pt x="186" y="591" on="0"/>
        <pt x="164" y="570" on="0"/>
      </contour>
      <contour>
        <pt x="345" y="570" on="0"/>
        <pt x="325" y="593" on="0"/>
        <pt x="325" y="629" on="0"/>
        <pt x="345" y="650" on="0"/>
        <pt x="362" y="650" on="1"/>
        <pt x="402" y="650" on="0"/>
        <pt x="402" y="610" on="1"/>
        <pt x="402" y="591" on="0"/>
        <pt x="380" y="570" on="0"/>
      </contour>
    </TTGlyph>
    <TTGlyph name="divide" xMin="146" yMin="48" xMax="600" yMax="468">
      <contour>
        <pt x="333" y="95" on="1"/>
        <pt x="333" y="117" on="0"/>
        <pt x="357" y="144" on="0"/>
        <pt x="377" y="144" on="1"/>
        <pt x="420" y="144" on="0"/>
        <pt x="420" y="95" on="1"/>
        <pt x="420" y="74" on="0"/>
        <pt x="395" y="48" on="0"/>
        <pt x="377" y="48" on="1"/>
        <pt x="333" y="48" on="0"/>
      </contour>
      <contour>
        <pt x="333" y="418" on="1"/>
        <pt x="333" y="440" on="0"/>
        <pt x="358" y="468" on="0"/>
        <pt x="377" y="468" on="1"/>
        <pt x="420" y="468" on="0"/>
        <pt x="420" y="418" on="1"/>
        <pt x="420" y="397" on="0"/>
        <pt x="395" y="372" on="0"/>
        <pt x="377" y="372" on="1"/>
        <pt x="333" y="372" on="0"/>
      </contour>
      <contour>
        <pt x="146" y="270" on="1"/>
        <pt x="600" y="270" on="1"/>
        <pt x="600" y="252" on="1"/>
        <pt x="146" y="252" on="1"/>
      </contour>
    </TTGlyph>
    <TTGlyph name="dollar" xMin="65" yMin="-100" xMax="489" yMax="700">
      <contour>
        <pt x="306" y="587" on="1"/>
        <pt x="301" y="587" on="1"/>
        <pt x="301" y="334" on="1"/>
        <pt x="417" y="301" on="0"/>
        <pt x="450" y="267" on="1"/>
        <pt x="489" y="226" on="0"/>
        <pt x="489" y="88" on="0"/>
        <pt x="383" y="3" on="0"/>
        <pt x="301" y="-3" on="1"/>
        <pt x="301" y="-100" on="1"/>
        <pt x="266" y="-100" on="1"/>
        <pt x="266" y="-4" on="1"/>
        <pt x="126" y="2" on="0"/>
        <pt x="65" y="52" on="1"/>
        <pt x="73" y="60" on="1"/>
        <pt x="98" y="35" on="0"/>
        <pt x="212" y="9" on="0"/>
        <pt x="264" y="9" on="1"/>
        <pt x="266" y="9" on="1"/>
        <pt x="266" y="288" on="1"/>
        <pt x="152" y="320" on="0"/>
        <pt x="122" y="349" on="1"/>
        <pt x="84" y="385" on="0"/>
        <pt x="84" y="508" on="0"/>
        <pt x="182" y="593" on="0"/>
        <pt x="266" y="599" on="1"/>
        <pt x="266" y="700" on="1"/>
        <pt x="301" y="700" on="1"/>
        <pt x="301" y="600" on="1"/>
        <pt x="362" y="598" on="0"/>
        <pt x="430" y="586" on="1"/>
        <pt x="452" y="582" on="1"/>
        <pt x="449" y="571" on="1"/>
        <pt x="353" y="587" on="0"/>
      </contour>
      <contour>
        <pt x="429" y="161" on="1"/>
        <pt x="429" y="209" on="0"/>
        <pt x="363" y="260" on="0"/>
        <pt x="301" y="278" on="1"/>
        <pt x="301" y="11" on="1"/>
        <pt x="359" y="20" on="0"/>
        <pt x="429" y="94" on="0"/>
      </contour>
      <contour>
        <pt x="210" y="573" on="0"/>
        <pt x="149" y="502" on="0"/>
        <pt x="149" y="405" on="0"/>
        <pt x="209" y="361" on="0"/>
        <pt x="266" y="344" on="1"/>
        <pt x="266" y="583" on="1"/>
      </contour>
    </TTGlyph>
    <TTGlyph name="dotaccent" xMin="94" yMin="600" xMax="164" yMax="678">
      <contour>
        <pt x="94" y="637" on="1"/>
        <pt x="94" y="656" on="0"/>
        <pt x="113" y="678" on="0"/>
        <pt x="129" y="678" on="1"/>
        <pt x="164" y="678" on="0"/>
        <pt x="164" y="637" on="1"/>
        <pt x="164" y="620" on="0"/>
        <pt x="144" y="600" on="0"/>
        <pt x="129" y="600" on="1"/>
        <pt x="94" y="600" on="0"/>
      </contour>
    </TTGlyph>
    <TTGlyph name="dotlessi" xMin="60" yMin="-1" xMax="266" yMax="500">
      <contour>
        <pt x="191" y="459" on="1"/>
        <pt x="191" y="40" on="1"/>
        <pt x="266" y="35" on="1"/>
        <pt x="266" y="34" on="0"/>
        <pt x="266" y="17" on="1"/>
        <pt x="265" y="0" on="1"/>
        <pt x="65" y="-1" on="1"/>
        <pt x="65" y="28" on="0"/>
        <pt x="66" y="33" on="1"/>
        <pt x="118" y="40" on="1"/>
        <pt x="126" y="41" on="0"/>
        <pt x="126" y="54" on="1"/>
        <pt x="126" y="444" on="1"/>
        <pt x="126" y="455" on="0"/>
        <pt x="120" y="455" on="1"/>
        <pt x="60" y="457" on="1"/>
        <pt x="61" y="491" on="1"/>
        <pt x="115" y="500" on="0"/>
        <pt x="171" y="500" on="0"/>
        <pt x="191" y="474" on="0"/>
      </contour>
    </TTGlyph>
    <TTGlyph name="e" xMin="45" yMin="-4" xMax="471" yMax="505">
      <contour>
        <pt x="110" y="230" on="1"/>
        <pt x="110" y="14" on="0"/>
        <pt x="278" y="14" on="1"/>
        <pt x="322" y="14" on="0"/>
        <pt x="422" y="33" on="0"/>
        <pt x="436" y="41" on="1"/>
        <pt x="443" y="31" on="1"/>
        <pt x="420" y="16" on="0"/>
        <pt x="315" y="-4" on="0"/>
        <pt x="228" y="-4" on="0"/>
        <pt x="159" y="14" on="0"/>
        <pt x="87" y="60" on="0"/>
        <pt x="45" y="158" on="0"/>
        <pt x="45" y="229" on="1"/>
        <pt x="45" y="361" on="0"/>
        <pt x="113" y="431" on="1"/>
        <pt x="184" y="504" on="0"/>
        <pt x="372" y="504" on="0"/>
        <pt x="471" y="400" on="0"/>
        <pt x="471" y="306" on="1"/>
        <pt x="471" y="286" on="0"/>
        <pt x="468" y="263" on="1"/>
        <pt x="111" y="263" on="1"/>
        <pt x="110" y="252" on="0"/>
      </contour>
      <contour>
        <pt x="412" y="313" on="1"/>
        <pt x="412" y="388" on="0"/>
        <pt x="346" y="483" on="0"/>
        <pt x="289" y="483" on="1"/>
        <pt x="215" y="483" on="0"/>
        <pt x="164" y="418" on="1"/>
        <pt x="123" y="367" on="0"/>
        <pt x="113" y="282" on="1"/>
        <pt x="411" y="282" on="1"/>
        <pt x="412" y="293" on="0"/>
      </contour>
    </TTGlyph>
    <TTGlyph name="eacute" xMin="45" yMin="-4" xMax="471" yMax="750">
      <contour>
        <pt x="110" y="230" on="1"/>
        <pt x="110" y="14" on="0"/>
        <pt x="278" y="14" on="1"/>
        <pt x="322" y="14" on="0"/>
        <pt x="422" y="33" on="0"/>
        <pt x="436" y="41" on="1"/>
        <pt x="443" y="31" on="1"/>
        <pt x="420" y="16" on="0"/>
        <pt x="315" y="-4" on="0"/>
        <pt x="228" y="-4" on="0"/>
        <pt x="159" y="14" on="0"/>
        <pt x="87" y="60" on="0"/>
        <pt x="45" y="158" on="0"/>
        <pt x="45" y="229" on="1"/>
        <pt x="45" y="361" on="0"/>
        <pt x="113" y="431" on="1"/>
        <pt x="184" y="504" on="0"/>
        <pt x="372" y="504" on="0"/>
        <pt x="471" y="400" on="0"/>
        <pt x="471" y="306" on="1"/>
        <pt x="471" y="286" on="0"/>
        <pt x="468" y="263" on="1"/>
        <pt x="111" y="263" on="1"/>
        <pt x="110" y="252" on="0"/>
      </contour>
      <contour>
        <pt x="412" y="313" on="1"/>
        <pt x="412" y="388" on="0"/>
        <pt x="346" y="483" on="0"/>
        <pt x="289" y="483" on="1"/>
        <pt x="215" y="483" on="0"/>
        <pt x="164" y="418" on="1"/>
        <pt x="123" y="367" on="0"/>
        <pt x="113" y="282" on="1"/>
        <pt x="411" y="282" on="1"/>
        <pt x="412" y="293" on="0"/>
      </contour>
      <contour>
        <pt x="417" y="750" on="1"/>
        <pt x="447" y="743" on="1"/>
        <pt x="328" y="595" on="1"/>
        <pt x="313" y="603" on="1"/>
      </contour>
    </TTGlyph>
    <TTGlyph name="ecircumflex" xMin="45" yMin="-4" xMax="471" yMax="761">
      <contour>
        <pt x="110" y="230" on="1"/>
        <pt x="110" y="14" on="0"/>
        <pt x="278" y="14" on="1"/>
        <pt x="322" y="14" on="0"/>
        <pt x="422" y="33" on="0"/>
        <pt x="436" y="41" on="1"/>
        <pt x="443" y="31" on="1"/>
        <pt x="420" y="16" on="0"/>
        <pt x="315" y="-4" on="0"/>
        <pt x="228" y="-4" on="0"/>
        <pt x="159" y="14" on="0"/>
        <pt x="87" y="60" on="0"/>
        <pt x="45" y="158" on="0"/>
        <pt x="45" y="229" on="1"/>
        <pt x="45" y="361" on="0"/>
        <pt x="113" y="431" on="1"/>
        <pt x="184" y="504" on="0"/>
        <pt x="372" y="504" on="0"/>
        <pt x="471" y="400" on="0"/>
        <pt x="471" y="306" on="1"/>
        <pt x="471" y="286" on="0"/>
        <pt x="468" y="263" on="1"/>
        <pt x="111" y="263" on="1"/>
        <pt x="110" y="252" on="0"/>
      </contour>
      <contour>
        <pt x="412" y="313" on="1"/>
        <pt x="412" y="388" on="0"/>
        <pt x="346" y="483" on="0"/>
        <pt x="289" y="483" on="1"/>
        <pt x="215" y="483" on="0"/>
        <pt x="164" y="418" on="1"/>
        <pt x="123" y="367" on="0"/>
        <pt x="113" y="282" on="1"/>
        <pt x="411" y="282" on="1"/>
        <pt x="412" y="293" on="0"/>
      </contour>
      <contour>
        <pt x="110" y="585" on="1"/>
        <pt x="292" y="761" on="1"/>
        <pt x="450" y="607" on="0"/>
        <pt x="458" y="600" on="1"/>
        <pt x="425" y="571" on="1"/>
        <pt x="275" y="719" on="1"/>
        <pt x="128" y="571" on="1"/>
      </contour>
    </TTGlyph>
    <TTGlyph name="edieresis" xMin="45" yMin="-4" xMax="471" yMax="650">
      <contour>
        <pt x="110" y="230" on="1"/>
        <pt x="110" y="14" on="0"/>
        <pt x="278" y="14" on="1"/>
        <pt x="322" y="14" on="0"/>
        <pt x="422" y="33" on="0"/>
        <pt x="436" y="41" on="1"/>
        <pt x="443" y="31" on="1"/>
        <pt x="420" y="16" on="0"/>
        <pt x="315" y="-4" on="0"/>
        <pt x="228" y="-4" on="0"/>
        <pt x="159" y="14" on="0"/>
        <pt x="87" y="60" on="0"/>
        <pt x="45" y="158" on="0"/>
        <pt x="45" y="229" on="1"/>
        <pt x="45" y="361" on="0"/>
        <pt x="113" y="431" on="1"/>
        <pt x="184" y="504" on="0"/>
        <pt x="372" y="504" on="0"/>
        <pt x="471" y="400" on="0"/>
        <pt x="471" y="306" on="1"/>
        <pt x="471" y="286" on="0"/>
        <pt x="468" y="263" on="1"/>
        <pt x="111" y="263" on="1"/>
        <pt x="110" y="252" on="0"/>
      </contour>
      <contour>
        <pt x="412" y="313" on="1"/>
        <pt x="412" y="388" on="0"/>
        <pt x="346" y="483" on="0"/>
        <pt x="289" y="483" on="1"/>
        <pt x="215" y="483" on="0"/>
        <pt x="164" y="418" on="1"/>
        <pt x="123" y="367" on="0"/>
        <pt x="113" y="282" on="1"/>
        <pt x="411" y="282" on="1"/>
        <pt x="412" y="293" on="0"/>
      </contour>
      <contour>
        <pt x="168" y="570" on="0"/>
        <pt x="147" y="593" on="0"/>
        <pt x="147" y="629" on="0"/>
        <pt x="168" y="650" on="0"/>
        <pt x="203" y="650" on="0"/>
        <pt x="224" y="629" on="0"/>
        <pt x="224" y="591" on="0"/>
        <pt x="202" y="570" on="0"/>
      </contour>
      <contour>
        <pt x="383" y="570" on="0"/>
        <pt x="363" y="593" on="0"/>
        <pt x="363" y="629" on="0"/>
        <pt x="383" y="650" on="0"/>
        <pt x="400" y="650" on="1"/>
        <pt x="440" y="650" on="0"/>
        <pt x="440" y="610" on="1"/>
        <pt x="440" y="591" on="0"/>
        <pt x="418" y="570" on="0"/>
      </contour>
    </TTGlyph>
    <TTGlyph name="egrave" xMin="45" yMin="-4" xMax="471" yMax="750">
      <contour>
        <pt x="110" y="230" on="1"/>
        <pt x="110" y="14" on="0"/>
        <pt x="278" y="14" on="1"/>
        <pt x="322" y="14" on="0"/>
        <pt x="422" y="33" on="0"/>
        <pt x="436" y="41" on="1"/>
        <pt x="443" y="31" on="1"/>
        <pt x="420" y="16" on="0"/>
        <pt x="315" y="-4" on="0"/>
        <pt x="228" y="-4" on="0"/>
        <pt x="159" y="14" on="0"/>
        <pt x="87" y="60" on="0"/>
        <pt x="45" y="158" on="0"/>
        <pt x="45" y="229" on="1"/>
        <pt x="45" y="361" on="0"/>
        <pt x="113" y="431" on="1"/>
        <pt x="184" y="504" on="0"/>
        <pt x="372" y="504" on="0"/>
        <pt x="471" y="400" on="0"/>
        <pt x="471" y="306" on="1"/>
        <pt x="471" y="286" on="0"/>
        <pt x="468" y="263" on="1"/>
        <pt x="111" y="263" on="1"/>
        <pt x="110" y="252" on="0"/>
      </contour>
      <contour>
        <pt x="412" y="313" on="1"/>
        <pt x="412" y="388" on="0"/>
        <pt x="346" y="483" on="0"/>
        <pt x="289" y="483" on="1"/>
        <pt x="215" y="483" on="0"/>
        <pt x="164" y="418" on="1"/>
        <pt x="123" y="367" on="0"/>
        <pt x="113" y="282" on="1"/>
        <pt x="411" y="282" on="1"/>
        <pt x="412" y="293" on="0"/>
      </contour>
      <contour>
        <pt x="282" y="603" on="1"/>
        <pt x="266" y="595" on="1"/>
        <pt x="148" y="743" on="1"/>
        <pt x="178" y="750" on="1"/>
      </contour>
    </TTGlyph>
    <TTGlyph name="eight" xMin="86" yMin="-4" xMax="532" yMax="666">
      <contour>
        <pt x="532" y="190" on="1"/>
        <pt x="532" y="160" on="0"/>
        <pt x="519" y="107" on="0"/>
        <pt x="478" y="38" on="0"/>
        <pt x="381" y="-4" on="0"/>
        <pt x="250" y="-4" on="0"/>
        <pt x="163" y="25" on="0"/>
        <pt x="119" y="66" on="0"/>
        <pt x="106" y="94" on="1"/>
        <pt x="86" y="136" on="0"/>
        <pt x="86" y="183" on="1"/>
        <pt x="86" y="300" on="0"/>
        <pt x="205" y="387" on="1"/>
        <pt x="124" y="420" on="0"/>
        <pt x="124" y="514" on="1"/>
        <pt x="124" y="666" on="0"/>
        <pt x="317" y="666" on="1"/>
        <pt x="393" y="666" on="0"/>
        <pt x="442" y="633" on="1"/>
        <pt x="462" y="619" on="0"/>
        <pt x="494" y="560" on="0"/>
        <pt x="494" y="519" on="1"/>
        <pt x="494" y="420" on="0"/>
        <pt x="404" y="358" on="1"/>
        <pt x="464" y="340" on="0"/>
        <pt x="532" y="266" on="0"/>
      </contour>
      <contour>
        <pt x="151" y="185" on="1"/>
        <pt x="151" y="136" on="0"/>
        <pt x="178" y="64" on="0"/>
        <pt x="211" y="30" on="0"/>
        <pt x="234" y="20" on="1"/>
        <pt x="263" y="9" on="0"/>
        <pt x="291" y="9" on="1"/>
        <pt x="467" y="9" on="0"/>
        <pt x="467" y="180" on="1"/>
        <pt x="467" y="268" on="0"/>
        <pt x="423" y="307" on="1"/>
        <pt x="383" y="342" on="0"/>
        <pt x="324" y="356" on="1"/>
        <pt x="310" y="360" on="0"/>
        <pt x="260" y="371" on="0"/>
        <pt x="248" y="374" on="1"/>
        <pt x="151" y="294" on="0"/>
      </contour>
      <contour>
        <pt x="304" y="653" on="1"/>
        <pt x="267" y="653" on="0"/>
        <pt x="217" y="622" on="0"/>
        <pt x="206" y="597" on="1"/>
        <pt x="189" y="555" on="0"/>
        <pt x="189" y="477" on="0"/>
        <pt x="211" y="427" on="0"/>
        <pt x="268" y="396" on="0"/>
        <pt x="284" y="390" on="1"/>
        <pt x="325" y="377" on="0"/>
        <pt x="360" y="370" on="1"/>
        <pt x="391" y="395" on="0"/>
        <pt x="425" y="467" on="0"/>
        <pt x="425" y="504" on="1"/>
        <pt x="425" y="567" on="0"/>
        <pt x="366" y="653" on="0"/>
      </contour>
    </TTGlyph>
    <TTGlyph name="ellipsis" xMin="29" yMin="-8" xMax="350" yMax="70">
      <contour>
        <pt x="29" y="29" on="1"/>
        <pt x="29" y="48" on="0"/>
        <pt x="48" y="70" on="0"/>
        <pt x="64" y="70" on="1"/>
        <pt x="99" y="70" on="0"/>
        <pt x="99" y="29" on="1"/>
        <pt x="99" y="12" on="0"/>
        <pt x="79" y="-8" on="0"/>
        <pt x="64" y="-8" on="1"/>
        <pt x="29" y="-8" on="0"/>
      </contour>
      <contour>
        <pt x="155" y="29" on="1"/>
        <pt x="155" y="48" on="0"/>
        <pt x="174" y="70" on="0"/>
        <pt x="190" y="70" on="1"/>
        <pt x="226" y="70" on="0"/>
        <pt x="226" y="29" on="1"/>
        <pt x="226" y="12" on="0"/>
        <pt x="205" y="-8" on="0"/>
        <pt x="190" y="-8" on="1"/>
        <pt x="155" y="-8" on="0"/>
      </contour>
      <contour>
        <pt x="279" y="29" on="1"/>
        <pt x="279" y="48" on="0"/>
        <pt x="298" y="70" on="0"/>
        <pt x="314" y="70" on="1"/>
        <pt x="350" y="70" on="0"/>
        <pt x="350" y="29" on="1"/>
        <pt x="350" y="12" on="0"/>
        <pt x="329" y="-8" on="0"/>
        <pt x="314" y="-8" on="1"/>
        <pt x="279" y="-8" on="0"/>
      </contour>
    </TTGlyph>
    <TTGlyph name="emdash" xMin="80" yMin="272" xMax="634" yMax="290">
      <contour>
        <pt x="80" y="290" on="1"/>
        <pt x="634" y="290" on="1"/>
        <pt x="634" y="272" on="1"/>
        <pt x="80" y="272" on="1"/>
      </contour>
    </TTGlyph>
    <TTGlyph name="endash" xMin="80" yMin="272" xMax="534" yMax="290">
      <contour>
        <pt x="80" y="290" on="1"/>
        <pt x="534" y="290" on="1"/>
        <pt x="534" y="272" on="1"/>
        <pt x="80" y="272" on="1"/>
      </contour>
    </TTGlyph>
    <TTGlyph name="equal" xMin="146" yMin="143" xMax="600" yMax="383">
      <contour>
        <pt x="146" y="383" on="1"/>
        <pt x="600" y="383" on="1"/>
        <pt x="600" y="365" on="1"/>
        <pt x="146" y="365" on="1"/>
      </contour>
      <contour>
        <pt x="146" y="161" on="1"/>
        <pt x="600" y="161" on="1"/>
        <pt x="600" y="143" on="1"/>
        <pt x="146" y="143" on="1"/>
      </contour>
    </TTGlyph>
    <TTGlyph name="eth" xMin="75" yMin="-4" xMax="550" yMax="781">
      <contour>
        <pt x="550" y="270" on="1"/>
        <pt x="550" y="136" on="0"/>
        <pt x="414" y="-4" on="0"/>
        <pt x="204" y="-4" on="0"/>
        <pt x="75" y="116" on="0"/>
        <pt x="75" y="363" on="0"/>
        <pt x="212" y="504" on="0"/>
        <pt x="314" y="504" on="1"/>
        <pt x="389" y="504" on="0"/>
        <pt x="436" y="461" on="1"/>
        <pt x="373" y="594" on="0"/>
        <pt x="248" y="673" on="1"/>
        <pt x="161" y="560" on="1"/>
        <pt x="148" y="569" on="1"/>
        <pt x="235" y="682" on="1"/>
        <pt x="186" y="711" on="0"/>
        <pt x="121" y="734" on="1"/>
        <pt x="131" y="750" on="1"/>
        <pt x="190" y="726" on="0"/>
        <pt x="246" y="697" on="1"/>
        <pt x="311" y="781" on="1"/>
        <pt x="324" y="772" on="1"/>
        <pt x="260" y="689" on="1"/>
        <pt x="550" y="533" on="0"/>
      </contour>
      <contour>
        <pt x="316" y="486" on="1"/>
        <pt x="240" y="486" on="0"/>
        <pt x="140" y="356" on="0"/>
        <pt x="140" y="133" on="0"/>
        <pt x="235" y="14" on="0"/>
        <pt x="386" y="14" on="0"/>
        <pt x="482" y="138" on="0"/>
        <pt x="485" y="256" on="1"/>
        <pt x="485" y="308" on="0"/>
        <pt x="471" y="365" on="1"/>
        <pt x="446" y="416" on="0"/>
        <pt x="364" y="486" on="0"/>
      </contour>
    </TTGlyph>
    <TTGlyph name="exclam" xMin="106" yMin="0" xMax="176" yMax="700">
      <contour>
        <pt x="172" y="700" on="1"/>
        <pt x="152" y="129" on="1"/>
        <pt x="132" y="129" on="1"/>
        <pt x="112" y="695" on="1"/>
      </contour>
      <contour>
        <pt x="106" y="21" on="0"/>
        <pt x="106" y="49" on="0"/>
        <pt x="127" y="70" on="0"/>
        <pt x="155" y="70" on="0"/>
        <pt x="176" y="49" on="0"/>
        <pt x="176" y="21" on="0"/>
        <pt x="155" y="0" on="0"/>
        <pt x="127" y="0" on="0"/>
      </contour>
    </TTGlyph>
    <TTGlyph name="exclamdown" xMin="104" yMin="-200" xMax="174" yMax="500">
      <contour>
        <pt x="150" y="371" on="1"/>
        <pt x="170" y="-200" on="1"/>
        <pt x="110" y="-195" on="1"/>
        <pt x="130" y="371" on="1"/>
      </contour>
      <contour>
        <pt x="104" y="451" on="0"/>
        <pt x="104" y="479" on="0"/>
        <pt x="125" y="500" on="0"/>
        <pt x="153" y="500" on="0"/>
        <pt x="174" y="479" on="0"/>
        <pt x="174" y="451" on="0"/>
        <pt x="153" y="430" on="0"/>
        <pt x="125" y="430" on="0"/>
      </contour>
    </TTGlyph>
    <TTGlyph name="f" xMin="40" yMin="-1" xMax="320" yMax="751">
      <contour>
        <pt x="40" y="-1" on="1"/>
        <pt x="41" y="13" on="1"/>
        <pt x="93" y="20" on="1"/>
        <pt x="102" y="21" on="0"/>
        <pt x="102" y="34" on="1"/>
        <pt x="102" y="482" on="1"/>
        <pt x="51" y="482" on="1"/>
        <pt x="59" y="490" on="1"/>
        <pt x="102" y="499" on="1"/>
        <pt x="102" y="621" on="1"/>
        <pt x="102" y="690" on="0"/>
        <pt x="192" y="751" on="0"/>
        <pt x="252" y="751" on="1"/>
        <pt x="292" y="751" on="0"/>
        <pt x="320" y="740" on="1"/>
        <pt x="317" y="733" on="1"/>
        <pt x="293" y="736" on="0"/>
        <pt x="258" y="736" on="0"/>
        <pt x="225" y="726" on="0"/>
        <pt x="207" y="713" on="1"/>
        <pt x="167" y="684" on="0"/>
        <pt x="167" y="598" on="1"/>
        <pt x="167" y="500" on="1"/>
        <pt x="288" y="500" on="1"/>
        <pt x="288" y="482" on="1"/>
        <pt x="167" y="482" on="1"/>
        <pt x="167" y="20" on="1"/>
        <pt x="252" y="15" on="1"/>
        <pt x="252" y="14" on="0"/>
        <pt x="251" y="0" on="1"/>
      </contour>
    </TTGlyph>
    <TTGlyph name="five" xMin="27" yMin="-3" xMax="428" yMax="662">
      <contour>
        <pt x="421" y="201" on="1"/>
        <pt x="421" y="97" on="0"/>
        <pt x="279" y="-3" on="0"/>
        <pt x="152" y="-3" on="1"/>
        <pt x="86" y="-3" on="0"/>
        <pt x="27" y="13" on="1"/>
        <pt x="32" y="25" on="1"/>
        <pt x="72" y="12" on="0"/>
        <pt x="146" y="12" on="1"/>
        <pt x="353" y="12" on="0"/>
        <pt x="353" y="198" on="1"/>
        <pt x="353" y="292" on="0"/>
        <pt x="292" y="324" on="1"/>
        <pt x="253" y="345" on="0"/>
        <pt x="217" y="349" on="1"/>
        <pt x="172" y="354" on="0"/>
        <pt x="120" y="354" on="1"/>
        <pt x="109" y="354" on="1"/>
        <pt x="129" y="662" on="1"/>
        <pt x="415" y="662" on="1"/>
        <pt x="428" y="518" on="1"/>
        <pt x="408" y="510" on="1"/>
        <pt x="396" y="607" on="1"/>
        <pt x="142" y="607" on="1"/>
        <pt x="127" y="369" on="1"/>
        <pt x="254" y="369" on="0"/>
        <pt x="303" y="356" on="1"/>
        <pt x="421" y="325" on="0"/>
      </contour>
    </TTGlyph>
    <TTGlyph name="four" xMin="85" yMin="-1" xMax="538" yMax="662">
      <contour>
        <pt x="402" y="140" on="1"/>
        <pt x="102" y="140" on="1"/>
        <pt x="85" y="155" on="1"/>
        <pt x="402" y="662" on="1"/>
        <pt x="470" y="662" on="1"/>
        <pt x="470" y="155" on="1"/>
        <pt x="516" y="155" on="1"/>
        <pt x="517" y="140" on="1"/>
        <pt x="470" y="140" on="1"/>
        <pt x="470" y="19" on="1"/>
        <pt x="538" y="15" on="1"/>
        <pt x="538" y="14" on="0"/>
        <pt x="537" y="0" on="1"/>
        <pt x="337" y="-1" on="1"/>
        <pt x="337" y="8" on="0"/>
        <pt x="338" y="13" on="1"/>
        <pt x="390" y="20" on="1"/>
        <pt x="400" y="21" on="0"/>
        <pt x="402" y="33" on="1"/>
      </contour>
      <contour>
        <pt x="402" y="155" on="1"/>
        <pt x="402" y="633" on="1"/>
        <pt x="102" y="155" on="1"/>
      </contour>
    </TTGlyph>
    <TTGlyph name="fraction" xMin="132" yMin="-200" xMax="470" yMax="749">
      <contour>
        <pt x="450" y="749" on="1"/>
        <pt x="470" y="749" on="1"/>
        <pt x="152" y="-200" on="1"/>
        <pt x="132" y="-200" on="1"/>
      </contour>
    </TTGlyph>
    <TTGlyph name="g" xMin="40" yMin="-250" xMax="521" yMax="504">
      <contour>
        <pt x="41" y="-103" on="1"/>
        <pt x="41" y="-9" on="0"/>
        <pt x="155" y="58" on="1"/>
        <pt x="106" y="85" on="0"/>
        <pt x="106" y="168" on="0"/>
        <pt x="146" y="191" on="1"/>
        <pt x="68" y="226" on="0"/>
        <pt x="68" y="339" on="1"/>
        <pt x="68" y="416" on="0"/>
        <pt x="184" y="504" on="0"/>
        <pt x="274" y="504" on="1"/>
        <pt x="316" y="504" on="0"/>
        <pt x="354" y="494" on="1"/>
        <pt x="521" y="504" on="1"/>
        <pt x="519" y="466" on="1"/>
        <pt x="400" y="473" on="1"/>
        <pt x="465" y="431" on="0"/>
        <pt x="465" y="261" on="0"/>
        <pt x="355" y="171" on="0"/>
        <pt x="268" y="171" on="1"/>
        <pt x="210" y="171" on="0"/>
        <pt x="173" y="181" on="1"/>
        <pt x="156" y="162" on="0"/>
        <pt x="156" y="137" on="1"/>
        <pt x="156" y="92" on="0"/>
        <pt x="192" y="72" on="1"/>
        <pt x="231" y="49" on="0"/>
        <pt x="330" y="32" on="1"/>
        <pt x="353" y="28" on="0"/>
        <pt x="374" y="23" on="0"/>
        <pt x="414" y="15" on="0"/>
        <pt x="434" y="8" on="0"/>
        <pt x="465" y="-5" on="0"/>
        <pt x="481" y="-17" on="0"/>
        <pt x="501" y="-35" on="0"/>
        <pt x="506" y="-46" on="1"/>
        <pt x="517" y="-72" on="0"/>
        <pt x="517" y="-141" on="0"/>
        <pt x="475" y="-203" on="0"/>
        <pt x="438" y="-219" on="1"/>
        <pt x="366" y="-250" on="0"/>
        <pt x="273" y="-250" on="1"/>
        <pt x="150" y="-250" on="0"/>
        <pt x="41" y="-163" on="0"/>
      </contour>
      <contour>
        <pt x="171" y="50" on="1"/>
        <pt x="106" y="-21" on="0"/>
        <pt x="106" y="-157" on="0"/>
        <pt x="185" y="-232" on="0"/>
        <pt x="347" y="-232" on="0"/>
        <pt x="452" y="-170" on="0"/>
        <pt x="452" y="-102" on="1"/>
        <pt x="452" y="-48" on="0"/>
        <pt x="385" y="2" on="0"/>
        <pt x="324" y="14" on="1"/>
        <pt x="201" y="37" on="0"/>
      </contour>
      <contour>
        <pt x="209" y="491" on="0"/>
        <pt x="133" y="414" on="0"/>
        <pt x="133" y="260" on="0"/>
        <pt x="191" y="184" on="0"/>
        <pt x="322" y="184" on="0"/>
        <pt x="397" y="271" on="0"/>
        <pt x="397" y="345" on="1"/>
        <pt x="397" y="491" on="0"/>
        <pt x="271" y="491" on="1"/>
      </contour>
    </TTGlyph>
    <TTGlyph name="germandbls" xMin="34" yMin="-4" xMax="583" yMax="750">
      <contour>
        <pt x="34" y="-1" on="1"/>
        <pt x="35" y="13" on="1"/>
        <pt x="87" y="20" on="1"/>
        <pt x="94" y="21" on="0"/>
        <pt x="96" y="30" on="1"/>
        <pt x="96" y="467" on="1"/>
        <pt x="48" y="467" on="1"/>
        <pt x="54" y="480" on="1"/>
        <pt x="96" y="480" on="1"/>
        <pt x="96" y="614" on="1"/>
        <pt x="96" y="682" on="0"/>
        <pt x="179" y="750" on="0"/>
        <pt x="316" y="750" on="0"/>
        <pt x="429" y="661" on="0"/>
        <pt x="429" y="595" on="1"/>
        <pt x="429" y="561" on="0"/>
        <pt x="392" y="497" on="0"/>
        <pt x="370" y="476" on="1"/>
        <pt x="312" y="417" on="0"/>
        <pt x="312" y="372" on="1"/>
        <pt x="312" y="315" on="0"/>
        <pt x="408" y="288" on="1"/>
        <pt x="447" y="277" on="0"/>
        <pt x="527" y="250" on="0"/>
        <pt x="583" y="189" on="0"/>
        <pt x="583" y="140" on="1"/>
        <pt x="583" y="73" on="0"/>
        <pt x="484" y="-4" on="0"/>
        <pt x="394" y="-4" on="1"/>
        <pt x="347" y="-4" on="0"/>
        <pt x="258" y="16" on="0"/>
        <pt x="236" y="32" on="1"/>
        <pt x="250" y="44" on="1"/>
        <pt x="263" y="33" on="0"/>
        <pt x="355" y="13" on="0"/>
        <pt x="393" y="13" on="0"/>
        <pt x="396" y="13" on="1"/>
        <pt x="449" y="15" on="0"/>
        <pt x="518" y="76" on="0"/>
        <pt x="518" y="167" on="0"/>
        <pt x="462" y="216" on="0"/>
        <pt x="383" y="239" on="0"/>
        <pt x="303" y="262" on="0"/>
        <pt x="247" y="317" on="0"/>
        <pt x="247" y="399" on="0"/>
        <pt x="283" y="457" on="0"/>
        <pt x="325" y="492" on="0"/>
        <pt x="361" y="556" on="0"/>
        <pt x="361" y="597" on="1"/>
        <pt x="361" y="659" on="0"/>
        <pt x="292" y="734" on="0"/>
        <pt x="208" y="734" on="0"/>
        <pt x="161" y="665" on="0"/>
        <pt x="161" y="597" on="1"/>
        <pt x="161" y="0" on="1"/>
        <pt x="155" y="0" on="1"/>
      </contour>
    </TTGlyph>
    <TTGlyph name="grave" xMin="71" yMin="595" xMax="205" yMax="750">
      <contour>
        <pt x="205" y="603" on="1"/>
        <pt x="189" y="595" on="1"/>
        <pt x="71" y="743" on="1"/>
        <pt x="101" y="750" on="1"/>
      </contour>
    </TTGlyph>
    <TTGlyph name="greater" xMin="100" yMin="100" xMax="455" yMax="500">
      <contour>
        <pt x="103" y="100" on="1"/>
        <pt x="100" y="153" on="1"/>
        <pt x="282" y="251" on="0"/>
        <pt x="373" y="299" on="1"/>
        <pt x="100" y="448" on="1"/>
        <pt x="103" y="500" on="1"/>
        <pt x="455" y="300" on="1"/>
      </contour>
    </TTGlyph>
    <TTGlyph name="guillemotleft" xMin="75" yMin="88" xMax="600" yMax="430">
      <contour>
        <pt x="344" y="106" on="1"/>
        <pt x="344" y="88" on="1"/>
        <pt x="75" y="259" on="1"/>
        <pt x="344" y="430" on="1"/>
        <pt x="344" y="412" on="1"/>
        <pt x="139" y="259" on="1"/>
      </contour>
      <contour>
        <pt x="600" y="106" on="1"/>
        <pt x="600" y="88" on="1"/>
        <pt x="331" y="259" on="1"/>
        <pt x="600" y="430" on="1"/>
        <pt x="600" y="412" on="1"/>
        <pt x="395" y="259" on="1"/>
      </contour>
    </TTGlyph>
    <TTGlyph name="guillemotright" xMin="75" yMin="88" xMax="600" yMax="430">
      <contour>
        <pt x="331" y="88" on="1"/>
        <pt x="331" y="106" on="1"/>
        <pt x="536" y="259" on="1"/>
        <pt x="331" y="412" on="1"/>
        <pt x="331" y="430" on="1"/>
        <pt x="600" y="259" on="1"/>
      </contour>
      <contour>
        <pt x="75" y="88" on="1"/>
        <pt x="75" y="106" on="1"/>
        <pt x="280" y="259" on="1"/>
        <pt x="75" y="412" on="1"/>
        <pt x="75" y="430" on="1"/>
        <pt x="344" y="259" on="1"/>
      </contour>
    </TTGlyph>
    <TTGlyph name="guilsinglleft" xMin="75" yMin="88" xMax="344" yMax="430">
      <contour>
        <pt x="344" y="136" on="1"/>
        <pt x="344" y="88" on="1"/>
        <pt x="75" y="259" on="1"/>
        <pt x="344" y="430" on="1"/>
        <pt x="344" y="382" on="1"/>
        <pt x="140" y="259" on="1"/>
      </contour>
    </TTGlyph>
    <TTGlyph name="guilsinglright" xMin="75" yMin="88" xMax="344" yMax="430">
      <contour>
        <pt x="75" y="88" on="1"/>
        <pt x="75" y="136" on="1"/>
        <pt x="279" y="259" on="1"/>
        <pt x="75" y="382" on="1"/>
        <pt x="75" y="430" on="1"/>
        <pt x="344" y="259" on="1"/>
      </contour>
    </TTGlyph>
    <TTGlyph name="h" xMin="60" yMin="-1" xMax="588" yMax="750">
      <contour>
        <pt x="191" y="709" on="1"/>
        <pt x="191" y="438" on="1"/>
        <pt x="322" y="528" on="0"/>
        <pt x="428" y="494" on="1"/>
        <pt x="452" y="487" on="0"/>
        <pt x="487" y="460" on="0"/>
        <pt x="513" y="406" on="0"/>
        <pt x="513" y="368" on="1"/>
        <pt x="513" y="20" on="1"/>
        <pt x="588" y="15" on="1"/>
        <pt x="588" y="14" on="0"/>
        <pt x="587" y="0" on="1"/>
        <pt x="387" y="-1" on="1"/>
        <pt x="387" y="8" on="0"/>
        <pt x="388" y="13" on="1"/>
        <pt x="440" y="20" on="1"/>
        <pt x="446" y="20" on="0"/>
        <pt x="448" y="29" on="1"/>
        <pt x="448" y="342" on="1"/>
        <pt x="448" y="381" on="0"/>
        <pt x="427" y="438" on="0"/>
        <pt x="399" y="464" on="0"/>
        <pt x="380" y="471" on="1"/>
        <pt x="354" y="481" on="0"/>
        <pt x="334" y="479" on="1"/>
        <pt x="269" y="477" on="0"/>
        <pt x="191" y="426" on="1"/>
        <pt x="191" y="20" on="1"/>
        <pt x="266" y="15" on="1"/>
        <pt x="266" y="14" on="0"/>
        <pt x="265" y="0" on="1"/>
        <pt x="65" y="-1" on="1"/>
        <pt x="65" y="8" on="0"/>
        <pt x="66" y="13" on="1"/>
        <pt x="118" y="20" on="1"/>
        <pt x="126" y="21" on="0"/>
        <pt x="126" y="34" on="1"/>
        <pt x="126" y="714" on="1"/>
        <pt x="126" y="725" on="0"/>
        <pt x="120" y="725" on="1"/>
        <pt x="60" y="727" on="1"/>
        <pt x="61" y="741" on="1"/>
        <pt x="115" y="750" on="0"/>
        <pt x="171" y="750" on="0"/>
        <pt x="191" y="724" on="0"/>
      </contour>
    </TTGlyph>
    <TTGlyph name="hyphen" xMin="146" yMin="272" xMax="448" yMax="290">
      <contour>
        <pt x="146" y="290" on="1"/>
        <pt x="448" y="290" on="1"/>
        <pt x="448" y="272" on="1"/>
        <pt x="146" y="272" on="1"/>
      </contour>
    </TTGlyph>
    <TTGlyph name="i" xMin="60" yMin="-1" xMax="266" yMax="725">
      <contour>
        <pt x="191" y="459" on="1"/>
        <pt x="191" y="20" on="1"/>
        <pt x="266" y="15" on="1"/>
        <pt x="266" y="14" on="0"/>
        <pt x="265" y="0" on="1"/>
        <pt x="65" y="-1" on="1"/>
        <pt x="65" y="8" on="0"/>
        <pt x="66" y="13" on="1"/>
        <pt x="118" y="20" on="1"/>
        <pt x="124" y="20" on="0"/>
        <pt x="126" y="29" on="1"/>
        <pt x="126" y="468" on="1"/>
        <pt x="124" y="475" on="0"/>
        <pt x="120" y="475" on="1"/>
        <pt x="60" y="477" on="1"/>
        <pt x="61" y="491" on="1"/>
        <pt x="115" y="500" on="0"/>
        <pt x="171" y="500" on="0"/>
        <pt x="191" y="474" on="0"/>
      </contour>
      <contour>
        <pt x="137" y="634" on="0"/>
        <pt x="115" y="659" on="0"/>
        <pt x="115" y="700" on="0"/>
        <pt x="138" y="725" on="0"/>
        <pt x="178" y="725" on="0"/>
        <pt x="203" y="700" on="0"/>
        <pt x="203" y="657" on="0"/>
        <pt x="177" y="634" on="0"/>
      </contour>
    </TTGlyph>
    <TTGlyph name="iacute" xMin="60" yMin="-1" xMax="275" yMax="750">
      <contour>
        <pt x="191" y="459" on="1"/>
        <pt x="191" y="40" on="1"/>
        <pt x="266" y="35" on="1"/>
        <pt x="266" y="34" on="0"/>
        <pt x="266" y="17" on="1"/>
        <pt x="265" y="0" on="1"/>
        <pt x="65" y="-1" on="1"/>
        <pt x="65" y="28" on="0"/>
        <pt x="66" y="33" on="1"/>
        <pt x="118" y="40" on="1"/>
        <pt x="126" y="41" on="0"/>
        <pt x="126" y="54" on="1"/>
        <pt x="126" y="444" on="1"/>
        <pt x="126" y="455" on="0"/>
        <pt x="120" y="455" on="1"/>
        <pt x="60" y="457" on="1"/>
        <pt x="61" y="491" on="1"/>
        <pt x="115" y="500" on="0"/>
        <pt x="171" y="500" on="0"/>
        <pt x="191" y="474" on="0"/>
      </contour>
      <contour>
        <pt x="245" y="750" on="1"/>
        <pt x="275" y="743" on="1"/>
        <pt x="156" y="595" on="1"/>
        <pt x="141" y="603" on="1"/>
      </contour>
    </TTGlyph>
    <TTGlyph name="icircumflex" xMin="45" yMin="-1" xMax="393" yMax="761">
      <contour>
        <pt x="261" y="459" on="1"/>
        <pt x="261" y="40" on="1"/>
        <pt x="336" y="35" on="1"/>
        <pt x="336" y="34" on="0"/>
        <pt x="336" y="17" on="1"/>
        <pt x="335" y="0" on="1"/>
        <pt x="135" y="-1" on="1"/>
        <pt x="135" y="28" on="0"/>
        <pt x="136" y="33" on="1"/>
        <pt x="188" y="40" on="1"/>
        <pt x="196" y="41" on="0"/>
        <pt x="196" y="54" on="1"/>
        <pt x="196" y="444" on="1"/>
        <pt x="196" y="455" on="0"/>
        <pt x="190" y="455" on="1"/>
        <pt x="130" y="457" on="1"/>
        <pt x="131" y="491" on="1"/>
        <pt x="185" y="500" on="0"/>
        <pt x="241" y="500" on="0"/>
        <pt x="261" y="474" on="0"/>
      </contour>
      <contour>
        <pt x="45" y="585" on="1"/>
        <pt x="227" y="761" on="1"/>
        <pt x="385" y="607" on="0"/>
        <pt x="393" y="600" on="1"/>
        <pt x="360" y="571" on="1"/>
        <pt x="210" y="719" on="1"/>
        <pt x="63" y="571" on="1"/>
      </contour>
    </TTGlyph>
    <TTGlyph name="idieresis" xMin="60" yMin="-1" xMax="353" yMax="650">
      <contour>
        <pt x="241" y="459" on="1"/>
        <pt x="241" y="40" on="1"/>
        <pt x="316" y="35" on="1"/>
        <pt x="316" y="34" on="0"/>
        <pt x="316" y="17" on="1"/>
        <pt x="315" y="0" on="1"/>
        <pt x="115" y="-1" on="1"/>
        <pt x="115" y="28" on="0"/>
        <pt x="116" y="33" on="1"/>
        <pt x="168" y="40" on="1"/>
        <pt x="176" y="41" on="0"/>
        <pt x="176" y="54" on="1"/>
        <pt x="176" y="444" on="1"/>
        <pt x="176" y="455" on="0"/>
        <pt x="170" y="455" on="1"/>
        <pt x="110" y="457" on="1"/>
        <pt x="111" y="491" on="1"/>
        <pt x="165" y="500" on="0"/>
        <pt x="221" y="500" on="0"/>
        <pt x="241" y="474" on="0"/>
      </contour>
      <contour>
        <pt x="81" y="570" on="0"/>
        <pt x="60" y="593" on="0"/>
        <pt x="60" y="629" on="0"/>
        <pt x="81" y="650" on="0"/>
        <pt x="116" y="650" on="0"/>
        <pt x="137" y="629" on="0"/>
        <pt x="137" y="591" on="0"/>
        <pt x="115" y="570" on="0"/>
      </contour>
      <contour>
        <pt x="296" y="570" on="0"/>
        <pt x="276" y="593" on="0"/>
        <pt x="276" y="629" on="0"/>
        <pt x="296" y="650" on="0"/>
        <pt x="313" y="650" on="1"/>
        <pt x="353" y="650" on="0"/>
        <pt x="353" y="610" on="1"/>
        <pt x="353" y="591" on="0"/>
        <pt x="331" y="570" on="0"/>
      </contour>
    </TTGlyph>
    <TTGlyph name="igrave" xMin="20" yMin="-1" xMax="266" yMax="750">
      <contour>
        <pt x="191" y="459" on="1"/>
        <pt x="191" y="40" on="1"/>
        <pt x="266" y="35" on="1"/>
        <pt x="266" y="34" on="0"/>
        <pt x="266" y="17" on="1"/>
        <pt x="265" y="0" on="1"/>
        <pt x="65" y="-1" on="1"/>
        <pt x="65" y="28" on="0"/>
        <pt x="66" y="33" on="1"/>
        <pt x="118" y="40" on="1"/>
        <pt x="126" y="41" on="0"/>
        <pt x="126" y="54" on="1"/>
        <pt x="126" y="444" on="1"/>
        <pt x="126" y="455" on="0"/>
        <pt x="120" y="455" on="1"/>
        <pt x="60" y="457" on="1"/>
        <pt x="61" y="491" on="1"/>
        <pt x="115" y="500" on="0"/>
        <pt x="171" y="500" on="0"/>
        <pt x="191" y="474" on="0"/>
      </contour>
      <contour>
        <pt x="154" y="603" on="1"/>
        <pt x="138" y="595" on="1"/>
        <pt x="20" y="743" on="1"/>
        <pt x="50" y="750" on="1"/>
      </contour>
    </TTGlyph>
    <TTGlyph name="j" xMin="66" yMin="-248" xMax="235" yMax="725">
      <contour>
        <pt x="159" y="0" on="1"/>
        <pt x="159" y="467" on="1"/>
        <pt x="157" y="475" on="0"/>
        <pt x="153" y="475" on="1"/>
        <pt x="92" y="477" on="1"/>
        <pt x="93" y="491" on="1"/>
        <pt x="156" y="500" on="0"/>
        <pt x="178" y="500" on="1"/>
        <pt x="218" y="500" on="0"/>
        <pt x="223" y="465" on="1"/>
        <pt x="224" y="465" on="1"/>
        <pt x="224" y="0" on="1"/>
        <pt x="224" y="-3" on="0"/>
        <pt x="224" y="-5" on="1"/>
        <pt x="224" y="-44" on="0"/>
        <pt x="194" y="-124" on="0"/>
        <pt x="172" y="-152" on="1"/>
        <pt x="126" y="-211" on="0"/>
        <pt x="88" y="-237" on="1"/>
        <pt x="73" y="-248" on="1"/>
        <pt x="66" y="-240" on="1"/>
        <pt x="107" y="-193" on="0"/>
        <pt x="159" y="-51" on="0"/>
      </contour>
      <contour>
        <pt x="170" y="634" on="0"/>
        <pt x="147" y="659" on="0"/>
        <pt x="147" y="700" on="0"/>
        <pt x="171" y="725" on="0"/>
        <pt x="211" y="725" on="0"/>
        <pt x="235" y="700" on="0"/>
        <pt x="235" y="657" on="0"/>
        <pt x="210" y="634" on="0"/>
      </contour>
    </TTGlyph>
    <TTGlyph name="k" xMin="60" yMin="-1" xMax="542" yMax="750">
      <contour>
        <pt x="65" y="-1" on="1"/>
        <pt x="66" y="13" on="1"/>
        <pt x="118" y="20" on="1"/>
        <pt x="125" y="21" on="0"/>
        <pt x="127" y="30" on="1"/>
        <pt x="127" y="714" on="1"/>
        <pt x="127" y="725" on="0"/>
        <pt x="121" y="725" on="1"/>
        <pt x="60" y="727" on="1"/>
        <pt x="61" y="741" on="1"/>
        <pt x="124" y="750" on="0"/>
        <pt x="171" y="750" on="0"/>
        <pt x="192" y="724" on="0"/>
        <pt x="192" y="709" on="1"/>
        <pt x="192" y="20" on="1"/>
        <pt x="267" y="15" on="1"/>
        <pt x="267" y="14" on="0"/>
        <pt x="266" y="0" on="1"/>
      </contour>
      <contour>
        <pt x="542" y="15" on="1"/>
        <pt x="542" y="14" on="0"/>
        <pt x="541" y="0" on="1"/>
        <pt x="415" y="0" on="1"/>
        <pt x="192" y="266" on="1"/>
        <pt x="364" y="465" on="1"/>
        <pt x="364" y="478" on="0"/>
        <pt x="356" y="479" on="1"/>
        <pt x="304" y="486" on="1"/>
        <pt x="303" y="491" on="0"/>
        <pt x="303" y="500" on="1"/>
        <pt x="513" y="499" on="1"/>
        <pt x="513" y="498" on="0"/>
        <pt x="514" y="484" on="1"/>
        <pt x="400" y="477" on="1"/>
        <pt x="232" y="294" on="1"/>
        <pt x="473" y="20" on="1"/>
      </contour>
    </TTGlyph>
    <TTGlyph name="l" xMin="60" yMin="-1" xMax="267" yMax="750">
      <contour>
        <pt x="65" y="-1" on="1"/>
        <pt x="66" y="13" on="1"/>
        <pt x="118" y="20" on="1"/>
        <pt x="125" y="21" on="0"/>
        <pt x="127" y="30" on="1"/>
        <pt x="127" y="714" on="1"/>
        <pt x="127" y="725" on="0"/>
        <pt x="121" y="725" on="1"/>
        <pt x="60" y="727" on="1"/>
        <pt x="61" y="741" on="1"/>
        <pt x="124" y="750" on="0"/>
        <pt x="171" y="750" on="0"/>
        <pt x="192" y="724" on="0"/>
        <pt x="192" y="709" on="1"/>
        <pt x="192" y="20" on="1"/>
        <pt x="267" y="15" on="1"/>
        <pt x="267" y="14" on="0"/>
        <pt x="266" y="0" on="1"/>
      </contour>
    </TTGlyph>
    <TTGlyph name="less" xMin="100" yMin="100" xMax="455" yMax="500">
      <contour>
        <pt x="100" y="300" on="1"/>
        <pt x="452" y="500" on="1"/>
        <pt x="455" y="448" on="1"/>
        <pt x="181" y="299" on="1"/>
        <pt x="273" y="251" on="0"/>
        <pt x="455" y="153" on="1"/>
        <pt x="452" y="100" on="1"/>
      </contour>
    </TTGlyph>
    <TTGlyph name="logicalnot" xMin="100" yMin="152" xMax="522" yMax="290">
      <contour>
        <pt x="100" y="290" on="1"/>
        <pt x="522" y="290" on="1"/>
        <pt x="522" y="152" on="1"/>
        <pt x="462" y="152" on="1"/>
        <pt x="462" y="272" on="1"/>
        <pt x="100" y="272" on="1"/>
      </contour>
    </TTGlyph>
    <TTGlyph name="lozenge" xMin="248" yMin="100" xMax="482" yMax="700">
      <contour>
        <pt x="248" y="400" on="1"/>
        <pt x="359" y="700" on="1"/>
        <pt x="372" y="700" on="1"/>
        <pt x="482" y="400" on="1"/>
        <pt x="372" y="100" on="1"/>
        <pt x="359" y="100" on="1"/>
      </contour>
      <contour>
        <pt x="468" y="400" on="1"/>
        <pt x="364" y="685" on="1"/>
        <pt x="259" y="400" on="1"/>
        <pt x="364" y="114" on="1"/>
      </contour>
    </TTGlyph>
    <TTGlyph name="m" xMin="50" yMin="-1" xMax="849" yMax="503">
      <contour>
        <pt x="311" y="481" on="1"/>
        <pt x="251" y="480" on="0"/>
        <pt x="181" y="437" on="1"/>
        <pt x="181" y="20" on="1"/>
        <pt x="256" y="15" on="1"/>
        <pt x="256" y="14" on="0"/>
        <pt x="255" y="0" on="1"/>
        <pt x="55" y="-1" on="1"/>
        <pt x="55" y="8" on="0"/>
        <pt x="56" y="13" on="1"/>
        <pt x="108" y="20" on="1"/>
        <pt x="114" y="20" on="0"/>
        <pt x="116" y="29" on="1"/>
        <pt x="116" y="468" on="1"/>
        <pt x="114" y="475" on="0"/>
        <pt x="110" y="475" on="1"/>
        <pt x="50" y="477" on="1"/>
        <pt x="51" y="491" on="1"/>
        <pt x="105" y="500" on="0"/>
        <pt x="161" y="500" on="0"/>
        <pt x="181" y="474" on="0"/>
        <pt x="181" y="459" on="1"/>
        <pt x="181" y="447" on="1"/>
        <pt x="264" y="499" on="0"/>
        <pt x="333" y="503" on="1"/>
        <pt x="428" y="503" on="0"/>
        <pt x="462" y="449" on="1"/>
        <pt x="549" y="499" on="0"/>
        <pt x="626" y="503" on="1"/>
        <pt x="696" y="503" on="0"/>
        <pt x="732" y="474" on="1"/>
        <pt x="749" y="461" on="0"/>
        <pt x="774" y="406" on="0"/>
        <pt x="774" y="368" on="1"/>
        <pt x="774" y="20" on="1"/>
        <pt x="849" y="15" on="1"/>
        <pt x="849" y="14" on="0"/>
        <pt x="848" y="0" on="1"/>
        <pt x="648" y="-1" on="1"/>
        <pt x="648" y="8" on="0"/>
        <pt x="649" y="13" on="1"/>
        <pt x="701" y="20" on="1"/>
        <pt x="707" y="20" on="0"/>
        <pt x="709" y="29" on="1"/>
        <pt x="709" y="343" on="1"/>
        <pt x="709" y="383" on="0"/>
        <pt x="689" y="440" on="0"/>
        <pt x="665" y="466" on="0"/>
        <pt x="647" y="473" on="1"/>
        <pt x="627" y="481" on="0"/>
        <pt x="604" y="481" on="1"/>
        <pt x="542" y="480" on="0"/>
        <pt x="469" y="434" on="1"/>
        <pt x="482" y="406" on="0"/>
        <pt x="482" y="368" on="1"/>
        <pt x="482" y="20" on="1"/>
        <pt x="557" y="15" on="1"/>
        <pt x="557" y="14" on="0"/>
        <pt x="556" y="0" on="1"/>
        <pt x="355" y="-1" on="1"/>
        <pt x="356" y="13" on="1"/>
        <pt x="408" y="20" on="1"/>
        <pt x="415" y="21" on="0"/>
        <pt x="417" y="30" on="1"/>
        <pt x="417" y="344" on="1"/>
        <pt x="417" y="393" on="0"/>
        <pt x="391" y="456" on="0"/>
        <pt x="369" y="466" on="1"/>
        <pt x="339" y="481" on="0"/>
      </contour>
    </TTGlyph>
    <TTGlyph name="macron" xMin="100" yMin="590" xMax="400" yMax="608">
      <contour>
        <pt x="100" y="608" on="1"/>
        <pt x="400" y="608" on="1"/>
        <pt x="400" y="590" on="1"/>
        <pt x="100" y="590" on="1"/>
      </contour>
    </TTGlyph>
    <TTGlyph name="mu" xMin="60" yMin="-250" xMax="589" yMax="500">
      <contour>
        <pt x="195" y="-250" on="1"/>
        <pt x="130" y="-250" on="1"/>
        <pt x="130" y="250" on="1"/>
        <pt x="195" y="250" on="1"/>
      </contour>
      <contour>
        <pt x="61" y="484" on="1"/>
        <pt x="60" y="499" on="1"/>
        <pt x="195" y="500" on="1"/>
        <pt x="195" y="152" on="1"/>
        <pt x="195" y="113" on="0"/>
        <pt x="217" y="56" on="0"/>
        <pt x="244" y="30" on="0"/>
        <pt x="262" y="23" on="1"/>
        <pt x="290" y="13" on="0"/>
        <pt x="309" y="15" on="1"/>
        <pt x="370" y="16" on="0"/>
        <pt x="448" y="78" on="1"/>
        <pt x="448" y="465" on="1"/>
        <pt x="444" y="477" on="0"/>
        <pt x="431" y="479" on="1"/>
        <pt x="379" y="484" on="1"/>
        <pt x="378" y="490" on="0"/>
        <pt x="378" y="499" on="1"/>
        <pt x="513" y="500" on="1"/>
        <pt x="513" y="46" on="1"/>
        <pt x="515" y="21" on="0"/>
        <pt x="529" y="21" on="1"/>
        <pt x="589" y="18" on="1"/>
        <pt x="588" y="3" on="1"/>
        <pt x="540" y="-5" on="0"/>
        <pt x="488" y="-5" on="1"/>
        <pt x="476" y="-4" on="0"/>
        <pt x="448" y="21" on="0"/>
        <pt x="448" y="40" on="1"/>
        <pt x="448" y="58" on="1"/>
        <pt x="357" y="-3" on="0"/>
        <pt x="276" y="-3" on="1"/>
        <pt x="242" y="-3" on="0"/>
        <pt x="196" y="14" on="1"/>
        <pt x="166" y="25" on="0"/>
        <pt x="130" y="86" on="0"/>
        <pt x="130" y="132" on="1"/>
        <pt x="130" y="464" on="1"/>
        <pt x="130" y="469" on="0"/>
        <pt x="119" y="478" on="0"/>
        <pt x="113" y="479" on="1"/>
      </contour>
    </TTGlyph>
    <TTGlyph name="multiply" xMin="115" yMin="-21" xMax="517" yMax="381">
      <contour>
        <pt x="476" y="-21" on="1"/>
        <pt x="316" y="139" on="1"/>
        <pt x="156" y="-21" on="1"/>
        <pt x="115" y="20" on="1"/>
        <pt x="275" y="180" on="1"/>
        <pt x="115" y="340" on="1"/>
        <pt x="156" y="381" on="1"/>
        <pt x="316" y="221" on="1"/>
        <pt x="476" y="381" on="1"/>
        <pt x="517" y="340" on="1"/>
        <pt x="357" y="180" on="1"/>
        <pt x="517" y="20" on="1"/>
      </contour>
    </TTGlyph>
    <TTGlyph name="n" xMin="50" yMin="-1" xMax="569" yMax="503">
      <contour>
        <pt x="55" y="-1" on="1"/>
        <pt x="56" y="13" on="1"/>
        <pt x="108" y="20" on="1"/>
        <pt x="117" y="21" on="0"/>
        <pt x="117" y="34" on="1"/>
        <pt x="117" y="467" on="1"/>
        <pt x="115" y="475" on="0"/>
        <pt x="111" y="475" on="1"/>
        <pt x="50" y="477" on="1"/>
        <pt x="51" y="491" on="1"/>
        <pt x="114" y="500" on="0"/>
        <pt x="136" y="500" on="1"/>
        <pt x="176" y="500" on="0"/>
        <pt x="181" y="465" on="1"/>
        <pt x="182" y="465" on="1"/>
        <pt x="182" y="444" on="1"/>
        <pt x="264" y="500" on="0"/>
        <pt x="339" y="503" on="1"/>
        <pt x="412" y="503" on="0"/>
        <pt x="450" y="474" on="1"/>
        <pt x="467" y="461" on="0"/>
        <pt x="494" y="406" on="0"/>
        <pt x="494" y="368" on="1"/>
        <pt x="494" y="20" on="1"/>
        <pt x="569" y="15" on="1"/>
        <pt x="569" y="14" on="0"/>
        <pt x="568" y="0" on="1"/>
        <pt x="368" y="-1" on="1"/>
        <pt x="368" y="8" on="0"/>
        <pt x="369" y="13" on="1"/>
        <pt x="421" y="20" on="1"/>
        <pt x="429" y="21" on="0"/>
        <pt x="429" y="34" on="1"/>
        <pt x="429" y="343" on="1"/>
        <pt x="429" y="383" on="0"/>
        <pt x="408" y="439" on="0"/>
        <pt x="382" y="465" on="0"/>
        <pt x="363" y="472" on="1"/>
        <pt x="341" y="480" on="0"/>
        <pt x="317" y="480" on="1"/>
        <pt x="257" y="479" on="0"/>
        <pt x="182" y="433" on="1"/>
        <pt x="182" y="20" on="1"/>
        <pt x="257" y="15" on="1"/>
        <pt x="257" y="14" on="0"/>
        <pt x="256" y="0" on="1"/>
      </contour>
    </TTGlyph>
    <TTGlyph name="nine" xMin="70" yMin="-4" xMax="481" yMax="662">
      <contour>
        <pt x="158" y="287" on="0"/>
        <pt x="70" y="376" on="0"/>
        <pt x="70" y="550" on="0"/>
        <pt x="189" y="662" on="0"/>
        <pt x="372" y="662" on="0"/>
        <pt x="481" y="570" on="0"/>
        <pt x="481" y="471" on="1"/>
        <pt x="481" y="413" on="0"/>
        <pt x="443" y="299" on="0"/>
        <pt x="387" y="212" on="0"/>
        <pt x="307" y="128" on="0"/>
        <pt x="241" y="74" on="0"/>
        <pt x="202" y="48" on="1"/>
        <pt x="149" y="14" on="0"/>
        <pt x="114" y="-4" on="1"/>
        <pt x="97" y="14" on="1"/>
        <pt x="100" y="14" on="0"/>
        <pt x="170" y="61" on="0"/>
        <pt x="201" y="86" on="0"/>
        <pt x="239" y="118" on="0"/>
        <pt x="276" y="155" on="0"/>
        <pt x="294" y="175" on="1"/>
        <pt x="329" y="214" on="0"/>
        <pt x="360" y="269" on="1"/>
        <pt x="273" y="269" on="0"/>
        <pt x="230" y="276" on="1"/>
      </contour>
      <contour>
        <pt x="413" y="374" on="0"/>
        <pt x="413" y="564" on="0"/>
        <pt x="336" y="647" on="0"/>
        <pt x="219" y="647" on="0"/>
        <pt x="138" y="542" on="0"/>
        <pt x="138" y="387" on="0"/>
        <pt x="195" y="301" on="0"/>
        <pt x="283" y="284" on="0"/>
        <pt x="368" y="284" on="1"/>
      </contour>
    </TTGlyph>
    <TTGlyph name="ntilde" xMin="50" yMin="-1" xMax="569" yMax="674">
      <contour>
        <pt x="55" y="-1" on="1"/>
        <pt x="56" y="13" on="1"/>
        <pt x="108" y="20" on="1"/>
        <pt x="117" y="21" on="0"/>
        <pt x="117" y="34" on="1"/>
        <pt x="117" y="467" on="1"/>
        <pt x="115" y="475" on="0"/>
        <pt x="111" y="475" on="1"/>
        <pt x="50" y="477" on="1"/>
        <pt x="51" y="491" on="1"/>
        <pt x="114" y="500" on="0"/>
        <pt x="136" y="500" on="1"/>
        <pt x="176" y="500" on="0"/>
        <pt x="181" y="465" on="1"/>
        <pt x="182" y="465" on="1"/>
        <pt x="182" y="444" on="1"/>
        <pt x="264" y="500" on="0"/>
        <pt x="339" y="503" on="1"/>
        <pt x="412" y="503" on="0"/>
        <pt x="450" y="474" on="1"/>
        <pt x="467" y="461" on="0"/>
        <pt x="494" y="406" on="0"/>
        <pt x="494" y="368" on="1"/>
        <pt x="494" y="20" on="1"/>
        <pt x="569" y="15" on="1"/>
        <pt x="569" y="14" on="0"/>
        <pt x="568" y="0" on="1"/>
        <pt x="368" y="-1" on="1"/>
        <pt x="368" y="8" on="0"/>
        <pt x="369" y="13" on="1"/>
        <pt x="421" y="20" on="1"/>
        <pt x="429" y="21" on="0"/>
        <pt x="429" y="34" on="1"/>
        <pt x="429" y="343" on="1"/>
        <pt x="429" y="383" on="0"/>
        <pt x="408" y="439" on="0"/>
        <pt x="382" y="465" on="0"/>
        <pt x="363" y="472" on="1"/>
        <pt x="341" y="480" on="0"/>
        <pt x="317" y="480" on="1"/>
        <pt x="257" y="479" on="0"/>
        <pt x="182" y="433" on="1"/>
        <pt x="182" y="20" on="1"/>
        <pt x="257" y="15" on="1"/>
        <pt x="257" y="14" on="0"/>
        <pt x="256" y="0" on="1"/>
      </contour>
      <contour>
        <pt x="207" y="668" on="1"/>
        <pt x="231" y="668" on="0"/>
        <pt x="390" y="634" on="0"/>
        <pt x="449" y="634" on="0"/>
        <pt x="469" y="652" on="0"/>
        <pt x="475" y="674" on="1"/>
        <pt x="491" y="670" on="1"/>
        <pt x="482" y="629" on="0"/>
        <pt x="445" y="596" on="0"/>
        <pt x="394" y="596" on="0"/>
        <pt x="240" y="631" on="0"/>
        <pt x="202" y="631" on="1"/>
        <pt x="147" y="631" on="0"/>
        <pt x="138" y="596" on="1"/>
        <pt x="124" y="600" on="1"/>
        <pt x="136" y="668" on="0"/>
      </contour>
    </TTGlyph>
    <TTGlyph name="numbersign" xMin="23" yMin="44" xMax="560" yMax="679">
      <contour>
        <pt x="63" y="478" on="1"/>
        <pt x="69" y="496" on="1"/>
        <pt x="188" y="496" on="1"/>
        <pt x="220" y="679" on="1"/>
        <pt x="280" y="679" on="1"/>
        <pt x="248" y="496" on="1"/>
        <pt x="390" y="496" on="1"/>
        <pt x="422" y="679" on="1"/>
        <pt x="482" y="679" on="1"/>
        <pt x="450" y="496" on="1"/>
        <pt x="560" y="496" on="1"/>
        <pt x="554" y="478" on="1"/>
        <pt x="447" y="478" on="1"/>
        <pt x="410" y="267" on="1"/>
        <pt x="520" y="267" on="1"/>
        <pt x="514" y="249" on="1"/>
        <pt x="407" y="249" on="1"/>
        <pt x="371" y="44" on="1"/>
        <pt x="311" y="44" on="1"/>
        <pt x="347" y="249" on="1"/>
        <pt x="205" y="249" on="1"/>
        <pt x="169" y="44" on="1"/>
        <pt x="109" y="44" on="1"/>
        <pt x="145" y="249" on="1"/>
        <pt x="23" y="249" on="1"/>
        <pt x="29" y="267" on="1"/>
        <pt x="148" y="267" on="1"/>
        <pt x="185" y="478" on="1"/>
      </contour>
      <contour>
        <pt x="245" y="478" on="1"/>
        <pt x="208" y="267" on="1"/>
        <pt x="350" y="267" on="1"/>
        <pt x="387" y="478" on="1"/>
      </contour>
    </TTGlyph>
    <TTGlyph name="o" xMin="45" yMin="-4" xMax="520" yMax="504">
      <contour>
        <pt x="174" y="-4" on="0"/>
        <pt x="45" y="116" on="0"/>
        <pt x="45" y="363" on="0"/>
        <pt x="182" y="504" on="0"/>
        <pt x="390" y="504" on="0"/>
        <pt x="520" y="384" on="0"/>
        <pt x="520" y="137" on="0"/>
        <pt x="383" y="-4" on="0"/>
      </contour>
      <contour>
        <pt x="210" y="486" on="0"/>
        <pt x="110" y="356" on="0"/>
        <pt x="110" y="133" on="0"/>
        <pt x="205" y="14" on="0"/>
        <pt x="355" y="14" on="0"/>
        <pt x="455" y="144" on="0"/>
        <pt x="455" y="366" on="0"/>
        <pt x="360" y="486" on="0"/>
      </contour>
    </TTGlyph>
    <TTGlyph name="oacute" xMin="46" yMin="-4" xMax="521" yMax="750">
      <contour>
        <pt x="175" y="-4" on="0"/>
        <pt x="46" y="116" on="0"/>
        <pt x="46" y="363" on="0"/>
        <pt x="183" y="504" on="0"/>
        <pt x="391" y="504" on="0"/>
        <pt x="521" y="384" on="0"/>
        <pt x="521" y="137" on="0"/>
        <pt x="384" y="-4" on="0"/>
      </contour>
      <contour>
        <pt x="211" y="486" on="0"/>
        <pt x="111" y="356" on="0"/>
        <pt x="111" y="133" on="0"/>
        <pt x="206" y="14" on="0"/>
        <pt x="356" y="14" on="0"/>
        <pt x="456" y="144" on="0"/>
        <pt x="456" y="366" on="0"/>
        <pt x="361" y="486" on="0"/>
      </contour>
      <contour>
        <pt x="434" y="750" on="1"/>
        <pt x="464" y="743" on="1"/>
        <pt x="345" y="595" on="1"/>
        <pt x="330" y="603" on="1"/>
      </contour>
    </TTGlyph>
    <TTGlyph name="ocircumflex" xMin="46" yMin="-4" xMax="521" yMax="761">
      <contour>
        <pt x="175" y="-4" on="0"/>
        <pt x="46" y="116" on="0"/>
        <pt x="46" y="363" on="0"/>
        <pt x="183" y="504" on="0"/>
        <pt x="391" y="504" on="0"/>
        <pt x="521" y="384" on="0"/>
        <pt x="521" y="137" on="0"/>
        <pt x="384" y="-4" on="0"/>
      </contour>
      <contour>
        <pt x="211" y="486" on="0"/>
        <pt x="111" y="356" on="0"/>
        <pt x="111" y="133" on="0"/>
        <pt x="206" y="14" on="0"/>
        <pt x="356" y="14" on="0"/>
        <pt x="456" y="144" on="0"/>
        <pt x="456" y="366" on="0"/>
        <pt x="361" y="486" on="0"/>
      </contour>
      <contour>
        <pt x="115" y="585" on="1"/>
        <pt x="297" y="761" on="1"/>
        <pt x="455" y="607" on="0"/>
        <pt x="463" y="600" on="1"/>
        <pt x="430" y="571" on="1"/>
        <pt x="280" y="719" on="1"/>
        <pt x="133" y="571" on="1"/>
      </contour>
    </TTGlyph>
    <TTGlyph name="odieresis" xMin="46" yMin="-4" xMax="521" yMax="660">
      <contour>
        <pt x="175" y="-4" on="0"/>
        <pt x="46" y="116" on="0"/>
        <pt x="46" y="363" on="0"/>
        <pt x="183" y="504" on="0"/>
        <pt x="391" y="504" on="0"/>
        <pt x="521" y="384" on="0"/>
        <pt x="521" y="137" on="0"/>
        <pt x="384" y="-4" on="0"/>
      </contour>
      <contour>
        <pt x="211" y="486" on="0"/>
        <pt x="111" y="356" on="0"/>
        <pt x="111" y="133" on="0"/>
        <pt x="206" y="14" on="0"/>
        <pt x="356" y="14" on="0"/>
        <pt x="456" y="144" on="0"/>
        <pt x="456" y="366" on="0"/>
        <pt x="361" y="486" on="0"/>
      </contour>
      <contour>
        <pt x="165" y="580" on="0"/>
        <pt x="144" y="603" on="0"/>
        <pt x="144" y="639" on="0"/>
        <pt x="165" y="660" on="0"/>
        <pt x="200" y="660" on="0"/>
        <pt x="221" y="639" on="0"/>
        <pt x="221" y="601" on="0"/>
        <pt x="199" y="580" on="0"/>
      </contour>
      <contour>
        <pt x="380" y="580" on="0"/>
        <pt x="360" y="603" on="0"/>
        <pt x="360" y="639" on="0"/>
        <pt x="380" y="660" on="0"/>
        <pt x="397" y="660" on="1"/>
        <pt x="437" y="660" on="0"/>
        <pt x="437" y="620" on="1"/>
        <pt x="437" y="601" on="0"/>
        <pt x="415" y="580" on="0"/>
      </contour>
    </TTGlyph>
    <TTGlyph name="oe" xMin="45" yMin="-4" xMax="748" yMax="505">
      <contour>
        <pt x="427" y="45" on="1"/>
        <pt x="364" y="-4" on="0"/>
        <pt x="174" y="-4" on="0"/>
        <pt x="45" y="116" on="0"/>
        <pt x="45" y="363" on="0"/>
        <pt x="182" y="504" on="0"/>
        <pt x="385" y="504" on="0"/>
        <pt x="446" y="452" on="1"/>
        <pt x="414" y="417" on="1"/>
        <pt x="368" y="486" on="0"/>
        <pt x="210" y="486" on="0"/>
        <pt x="110" y="356" on="0"/>
        <pt x="110" y="133" on="0"/>
        <pt x="205" y="14" on="0"/>
        <pt x="353" y="14" on="0"/>
        <pt x="402" y="75" on="1"/>
      </contour>
      <contour>
        <pt x="387" y="230" on="1"/>
        <pt x="387" y="14" on="0"/>
        <pt x="555" y="14" on="1"/>
        <pt x="600" y="14" on="0"/>
        <pt x="699" y="33" on="0"/>
        <pt x="713" y="41" on="1"/>
        <pt x="720" y="31" on="1"/>
        <pt x="697" y="16" on="0"/>
        <pt x="592" y="-4" on="0"/>
        <pt x="505" y="-4" on="0"/>
        <pt x="436" y="14" on="0"/>
        <pt x="364" y="60" on="0"/>
        <pt x="322" y="158" on="0"/>
        <pt x="322" y="229" on="1"/>
        <pt x="322" y="361" on="0"/>
        <pt x="390" y="431" on="1"/>
        <pt x="461" y="504" on="0"/>
        <pt x="649" y="504" on="0"/>
        <pt x="748" y="400" on="0"/>
        <pt x="748" y="306" on="1"/>
        <pt x="748" y="286" on="0"/>
        <pt x="745" y="263" on="1"/>
        <pt x="388" y="263" on="1"/>
        <pt x="387" y="252" on="0"/>
      </contour>
      <contour>
        <pt x="689" y="313" on="1"/>
        <pt x="689" y="388" on="0"/>
        <pt x="623" y="483" on="0"/>
        <pt x="566" y="483" on="1"/>
        <pt x="492" y="483" on="0"/>
        <pt x="440" y="418" on="1"/>
        <pt x="400" y="367" on="0"/>
        <pt x="390" y="282" on="1"/>
        <pt x="688" y="282" on="1"/>
        <pt x="689" y="293" on="0"/>
      </contour>
    </TTGlyph>
    <TTGlyph name="ograve" xMin="46" yMin="-4" xMax="521" yMax="750">
      <contour>
        <pt x="175" y="-4" on="0"/>
        <pt x="46" y="116" on="0"/>
        <pt x="46" y="363" on="0"/>
        <pt x="183" y="504" on="0"/>
        <pt x="391" y="504" on="0"/>
        <pt x="521" y="384" on="0"/>
        <pt x="521" y="137" on="0"/>
        <pt x="384" y="-4" on="0"/>
      </contour>
      <contour>
        <pt x="211" y="486" on="0"/>
        <pt x="111" y="356" on="0"/>
        <pt x="111" y="133" on="0"/>
        <pt x="206" y="14" on="0"/>
        <pt x="356" y="14" on="0"/>
        <pt x="456" y="144" on="0"/>
        <pt x="456" y="366" on="0"/>
        <pt x="361" y="486" on="0"/>
      </contour>
      <contour>
        <pt x="296" y="603" on="1"/>
        <pt x="280" y="595" on="1"/>
        <pt x="162" y="743" on="1"/>
        <pt x="192" y="750" on="1"/>
      </contour>
    </TTGlyph>
    <TTGlyph name="one" xMin="77" yMin="0" xMax="300" yMax="662">
      <contour>
        <pt x="300" y="662" on="1"/>
        <pt x="300" y="0" on="1"/>
        <pt x="237" y="0" on="1"/>
        <pt x="237" y="643" on="1"/>
        <pt x="78" y="607" on="1"/>
        <pt x="77" y="626" on="1"/>
        <pt x="237" y="662" on="1"/>
      </contour>
    </TTGlyph>
    <TTGlyph name="onehalf" xMin="81" yMin="0" xMax="815" yMax="750">
      <contour>
        <pt x="233" y="749" on="1"/>
        <pt x="233" y="300" on="1"/>
        <pt x="190" y="300" on="1"/>
        <pt x="190" y="736" on="1"/>
        <pt x="82" y="712" on="1"/>
        <pt x="81" y="725" on="1"/>
        <pt x="190" y="749" on="1"/>
      </contour>
      <contour>
        <pt x="537" y="413" on="1"/>
        <pt x="600" y="448" on="0"/>
        <pt x="715" y="448" on="0"/>
        <pt x="790" y="392" on="0"/>
        <pt x="790" y="331" on="1"/>
        <pt x="790" y="250" on="0"/>
        <pt x="720" y="161" on="1"/>
        <pt x="666" y="91" on="0"/>
        <pt x="582" y="11" on="1"/>
        <pt x="789" y="11" on="1"/>
        <pt x="802" y="122" on="1"/>
        <pt x="815" y="119" on="1"/>
        <pt x="805" y="1" on="1"/>
        <pt x="531" y="1" on="1"/>
        <pt x="523" y="11" on="1"/>
        <pt x="636" y="121" on="0"/>
        <pt x="745" y="271" on="0"/>
        <pt x="745" y="332" on="1"/>
        <pt x="745" y="354" on="0"/>
        <pt x="734" y="396" on="0"/>
        <pt x="692" y="438" on="0"/>
        <pt x="664" y="438" on="1"/>
        <pt x="616" y="438" on="0"/>
        <pt x="559" y="414" on="1"/>
        <pt x="540" y="406" on="1"/>
      </contour>
      <contour>
        <pt x="524" y="750" on="1"/>
        <pt x="540" y="750" on="1"/>
        <pt x="289" y="0" on="1"/>
        <pt x="273" y="0" on="1"/>
      </contour>
    </TTGlyph>
    <TTGlyph name="onequarter" xMin="79" yMin="-1" xMax="770" yMax="750">
      <contour>
        <pt x="524" y="750" on="1"/>
        <pt x="540" y="750" on="1"/>
        <pt x="289" y="0" on="1"/>
        <pt x="273" y="0" on="1"/>
      </contour>
      <contour>
        <pt x="675" y="98" on="1"/>
        <pt x="465" y="98" on="1"/>
        <pt x="453" y="108" on="1"/>
        <pt x="675" y="463" on="1"/>
        <pt x="723" y="463" on="1"/>
        <pt x="723" y="108" on="1"/>
        <pt x="755" y="108" on="1"/>
        <pt x="756" y="98" on="1"/>
        <pt x="723" y="98" on="1"/>
        <pt x="723" y="13" on="1"/>
        <pt x="770" y="10" on="1"/>
        <pt x="769" y="1" on="0"/>
        <pt x="769" y="0" on="1"/>
        <pt x="630" y="-1" on="1"/>
        <pt x="630" y="9" on="1"/>
        <pt x="667" y="14" on="1"/>
        <pt x="672" y="15" on="0"/>
        <pt x="675" y="23" on="1"/>
      </contour>
      <contour>
        <pt x="675" y="108" on="1"/>
        <pt x="675" y="442" on="1"/>
        <pt x="465" y="108" on="1"/>
      </contour>
      <contour>
        <pt x="230" y="749" on="1"/>
        <pt x="230" y="300" on="1"/>
        <pt x="188" y="300" on="1"/>
        <pt x="188" y="737" on="1"/>
        <pt x="80" y="712" on="1"/>
        <pt x="79" y="725" on="1"/>
        <pt x="188" y="749" on="1"/>
      </contour>
    </TTGlyph>
    <TTGlyph name="onesuperior" xMin="87" yMin="500" xMax="170" yMax="749">
      <contour>
        <pt x="170" y="749" on="1"/>
        <pt x="170" y="500" on="1"/>
        <pt x="146" y="500" on="1"/>
        <pt x="146" y="742" on="1"/>
        <pt x="87" y="728" on="1"/>
        <pt x="87" y="735" on="1"/>
        <pt x="146" y="749" on="1"/>
      </contour>
    </TTGlyph>
</ttFont>
